<?xml version="1.0" encoding="UTF-8" standalone="no"?>
<!DOCTYPE svg PUBLIC "-//W3C//DTD SVG 1.1//EN" "http://www.w3.org/Graphics/SVG/1.1/DTD/svg11.dtd">
<svg width="100%" height="100%" viewBox="0 0 1962 775" version="1.1" xmlns="http://www.w3.org/2000/svg" xmlns:xlink="http://www.w3.org/1999/xlink" xml:space="preserve" xmlns:serif="http://www.serif.com/" style="fill-rule:evenodd;clip-rule:evenodd;stroke-linejoin:round;stroke-miterlimit:2;">
    <g id="Artboard1" transform="matrix(0.941007,0,0,1.35965,-1241.19,-1520.09)">
        <rect x="1319" y="1118" width="2085" height="570" style="fill:none;"/>
        <clipPath id="_clip1">
            <rect x="1319" y="1118" width="2085" height="570"/>
        </clipPath>
        <g clip-path="url(#_clip1)">
            <g transform="matrix(1.06269,0,0,0.735484,1206.63,1333.1)">
                <g transform="matrix(0.0232833,0,0,0.0312489,120.421,0)">
                    <rect x="304" y="336" width="14816" height="4192" style="fill:none;stroke:rgb(0,100,168);stroke-width:200px;"/>
                </g>
                <g transform="matrix(1,0,0,1,-10,0)">
                    <rect x="0" y="0" width="481.464" height="175.494" style="fill:none;"/>
                    <g transform="matrix(0.499963,0,0,0.499982,170.092,106.42)">
                        <path d="M12.395,0L12.395,-119.542L36.205,-119.542L64.5,-34.9C67.11,-27.018 69.013,-21.12 70.208,-17.206C71.568,-21.555 73.688,-27.942 76.569,-36.368L105.19,-119.542L126.473,-119.542L126.473,0L111.225,0L111.225,-100.053L76.487,0L62.217,0L27.643,-101.766L27.643,0L12.395,0Z" style="fill:rgb(51,51,51);fill-rule:nonzero;"/>
                        <path d="M209.013,-27.888L224.18,-26.012C221.788,-17.151 217.358,-10.274 210.889,-5.382C204.42,-0.489 196.157,1.957 186.1,1.957C173.433,1.957 163.39,-1.943 155.97,-9.744C148.549,-17.545 144.839,-28.486 144.839,-42.565C144.839,-57.134 148.59,-68.442 156.092,-76.487C163.594,-84.533 173.325,-88.556 185.284,-88.556C196.863,-88.556 206.322,-84.614 213.661,-76.732C221,-68.849 224.67,-57.76 224.67,-43.462C224.67,-42.593 224.642,-41.288 224.588,-39.548L160.006,-39.548C160.55,-30.035 163.241,-22.75 168.079,-17.695C172.917,-12.639 178.951,-10.111 186.181,-10.111C191.563,-10.111 196.157,-11.525 199.962,-14.352C203.767,-17.178 206.784,-21.69 209.013,-27.888ZM160.821,-51.617L209.176,-51.617C208.524,-58.901 206.676,-64.365 203.632,-68.007C198.956,-73.66 192.895,-76.487 185.447,-76.487C178.707,-76.487 173.039,-74.231 168.446,-69.719C163.852,-65.207 161.311,-59.173 160.821,-51.617Z" style="fill:rgb(51,51,51);fill-rule:nonzero;"/>
                        <path d="M274.266,-13.128L276.387,-0.163C272.255,0.707 268.558,1.142 265.297,1.142C259.969,1.142 255.838,0.299 252.902,-1.386C249.967,-3.071 247.901,-5.287 246.705,-8.032C245.509,-10.777 244.911,-16.553 244.911,-25.36L244.911,-75.183L234.147,-75.183L234.147,-86.599L244.911,-86.599L244.911,-108.044L259.507,-116.851L259.507,-86.599L274.266,-86.599L274.266,-75.183L259.507,-75.183L259.507,-24.544C259.507,-20.359 259.765,-17.668 260.282,-16.472C260.798,-15.276 261.641,-14.324 262.81,-13.618C263.978,-12.911 265.65,-12.558 267.825,-12.558C269.455,-12.558 271.603,-12.748 274.266,-13.128Z" style="fill:rgb(51,51,51);fill-rule:nonzero;"/>
                        <path d="M288.229,0L288.229,-119.542L302.907,-119.542L302.907,-76.65C309.756,-84.587 318.4,-88.556 328.837,-88.556C335.252,-88.556 340.824,-87.292 345.554,-84.764C350.283,-82.236 353.667,-78.743 355.706,-74.286C357.744,-69.828 358.764,-63.359 358.764,-54.878L358.764,0L344.086,0L344.086,-54.878C344.086,-62.217 342.496,-67.558 339.316,-70.902C336.135,-74.245 331.637,-75.917 325.82,-75.917C321.471,-75.917 317.381,-74.788 313.548,-72.532C309.716,-70.276 306.984,-67.219 305.353,-63.359C303.722,-59.499 302.907,-54.172 302.907,-47.376L302.907,0L288.229,0Z" style="fill:rgb(51,51,51);fill-rule:nonzero;"/>
                        <path d="M375.254,-43.299C375.254,-59.336 379.712,-71.214 388.627,-78.934C396.075,-85.348 405.153,-88.556 415.862,-88.556C427.768,-88.556 437.498,-84.655 445.055,-76.854C452.611,-69.053 456.389,-58.276 456.389,-44.522C456.389,-33.378 454.718,-24.612 451.374,-18.225C448.031,-11.837 443.166,-6.877 436.778,-3.343C430.391,0.19 423.419,1.957 415.862,1.957C403.74,1.957 393.941,-1.93 386.466,-9.704C378.991,-17.477 375.254,-28.676 375.254,-43.299ZM390.339,-43.299C390.339,-32.209 392.759,-23.906 397.597,-18.388C402.435,-12.87 408.524,-10.111 415.862,-10.111C423.147,-10.111 429.208,-12.884 434.047,-18.429C438.885,-23.974 441.304,-32.427 441.304,-43.789C441.304,-54.498 438.871,-62.611 434.006,-68.129C429.14,-73.647 423.093,-76.406 415.862,-76.406C408.524,-76.406 402.435,-73.66 397.597,-68.17C392.759,-62.679 390.339,-54.389 390.339,-43.299Z" style="fill:rgb(51,51,51);fill-rule:nonzero;"/>
                        <path d="M529.389,0L529.389,-10.927C523.898,-2.338 515.826,1.957 505.171,1.957C498.267,1.957 491.92,0.054 486.13,-3.751C480.341,-7.556 475.856,-12.87 472.676,-19.693C469.496,-26.515 467.906,-34.357 467.906,-43.218C467.906,-51.861 469.346,-59.703 472.227,-66.743C475.109,-73.783 479.43,-79.178 485.193,-82.929C490.955,-86.68 497.397,-88.556 504.518,-88.556C509.737,-88.556 514.385,-87.455 518.462,-85.253C522.539,-83.052 525.855,-80.184 528.41,-76.65L528.41,-119.542L543.007,-119.542L543.007,0L529.389,0ZM482.991,-43.218C482.991,-32.128 485.329,-23.838 490.004,-18.347C494.679,-12.857 500.197,-10.111 506.557,-10.111C512.972,-10.111 518.421,-12.734 522.906,-17.98C527.391,-23.226 529.634,-31.231 529.634,-41.995C529.634,-53.846 527.35,-62.543 522.784,-68.088C518.218,-73.633 512.591,-76.406 505.905,-76.406C499.381,-76.406 493.931,-73.742 489.555,-68.415C485.179,-63.087 482.991,-54.688 482.991,-43.218Z" style="fill:rgb(51,51,51);fill-rule:nonzero;"/>
                    </g>
                </g>
            </g>
            <g transform="matrix(1.06269,0,0,0.735484,2003.38,1132.03)">
                <g transform="matrix(0.0312477,0,0,0.0312489,0,0)">
                    <rect x="464" y="336" width="11344" height="4192" style="fill:none;stroke:rgb(0,100,168);stroke-width:200px;"/>
                </g>
                <rect x="0" y="0" width="383.471" height="175.494" style="fill:none;"/>
                <g transform="matrix(0.499963,0,0,0.499982,49.9973,106.475)">
                    <path d="M7.502,-38.407L22.424,-39.711C23.131,-33.732 24.775,-28.825 27.358,-24.993C29.94,-21.16 33.949,-18.062 39.385,-15.697C44.821,-13.332 50.937,-12.15 57.732,-12.15C63.767,-12.15 69.094,-13.047 73.715,-14.841C78.336,-16.635 81.774,-19.095 84.03,-22.22C86.286,-25.346 87.414,-28.757 87.414,-32.454C87.414,-36.205 86.327,-39.48 84.152,-42.28C81.978,-45.08 78.39,-47.431 73.389,-49.333C70.181,-50.584 63.087,-52.527 52.106,-55.164C41.125,-57.8 33.433,-60.287 29.029,-62.625C23.321,-65.615 19.067,-69.325 16.268,-73.756C13.468,-78.186 12.068,-83.147 12.068,-88.637C12.068,-94.671 13.781,-100.311 17.206,-105.557C20.63,-110.803 25.632,-114.785 32.209,-117.503C38.787,-120.222 46.099,-121.581 54.145,-121.581C63.006,-121.581 70.82,-120.154 77.588,-117.3C84.356,-114.446 89.561,-110.246 93.204,-104.701C96.846,-99.156 98.803,-92.877 99.075,-85.865L83.908,-84.723C83.092,-92.279 80.333,-97.987 75.631,-101.847C70.929,-105.707 63.984,-107.637 54.797,-107.637C45.229,-107.637 38.257,-105.884 33.881,-102.377C29.505,-98.871 27.317,-94.644 27.317,-89.697C27.317,-85.403 28.866,-81.869 31.965,-79.097C35.009,-76.324 42.96,-73.484 55.816,-70.575C68.673,-67.667 77.493,-65.126 82.277,-62.951C89.235,-59.744 94.372,-55.68 97.688,-50.76C101.005,-45.841 102.663,-40.174 102.663,-33.759C102.663,-27.398 100.841,-21.405 97.199,-15.779C93.557,-10.152 88.325,-5.776 81.502,-2.65C74.68,0.476 67.001,2.039 58.466,2.039C47.648,2.039 38.583,0.462 31.272,-2.691C23.96,-5.844 18.225,-10.587 14.066,-16.92C9.907,-23.253 7.719,-30.416 7.502,-38.407Z" style="fill:rgb(51,51,51);fill-rule:nonzero;"/>
                    <path d="M178.516,-10.682C173.08,-6.061 167.848,-2.8 162.819,-0.897C157.791,1.006 152.395,1.957 146.633,1.957C137.12,1.957 129.808,-0.367 124.698,-5.015C119.588,-9.663 117.033,-15.602 117.033,-22.832C117.033,-27.072 117.998,-30.946 119.928,-34.452C121.858,-37.958 124.385,-40.771 127.511,-42.892C130.637,-45.012 134.157,-46.615 138.071,-47.703C140.952,-48.464 145.301,-49.198 151.118,-49.904C162.969,-51.318 171.694,-53.003 177.293,-54.96C177.347,-56.971 177.375,-58.249 177.375,-58.792C177.375,-64.772 175.988,-68.985 173.216,-71.432C169.465,-74.748 163.893,-76.406 156.5,-76.406C149.596,-76.406 144.499,-75.196 141.21,-72.777C137.921,-70.358 135.489,-66.077 133.912,-59.934L119.561,-61.891C120.865,-68.034 123.013,-72.995 126.003,-76.773C128.993,-80.551 133.314,-83.459 138.968,-85.498C144.622,-87.536 151.172,-88.556 158.62,-88.556C166.013,-88.556 172.02,-87.686 176.641,-85.946C181.262,-84.207 184.659,-82.019 186.834,-79.382C189.008,-76.746 190.53,-73.416 191.4,-69.393C191.889,-66.892 192.134,-62.38 192.134,-55.857L192.134,-36.287C192.134,-22.642 192.447,-14.012 193.072,-10.397C193.697,-6.782 194.934,-3.316 196.782,0L181.452,0C179.93,-3.044 178.951,-6.605 178.516,-10.682ZM177.293,-43.462C171.966,-41.288 163.974,-39.44 153.319,-37.917C147.285,-37.048 143.018,-36.069 140.517,-34.982C138.017,-33.895 136.087,-32.305 134.728,-30.212C133.369,-28.119 132.689,-25.795 132.689,-23.24C132.689,-19.326 134.17,-16.064 137.133,-13.455C140.096,-10.845 144.431,-9.541 150.139,-9.541C155.793,-9.541 160.821,-10.777 165.225,-13.251C169.628,-15.724 172.863,-19.108 174.928,-23.403C176.505,-26.719 177.293,-31.611 177.293,-38.081L177.293,-43.462Z" style="fill:rgb(51,51,51);fill-rule:nonzero;"/>
                    <path d="M215.032,0L215.032,-86.599L228.161,-86.599L228.161,-74.449C230.879,-78.689 234.494,-82.1 239.006,-84.682C243.518,-87.265 248.655,-88.556 254.418,-88.556C260.832,-88.556 266.092,-87.224 270.196,-84.56C274.301,-81.896 277.195,-78.173 278.881,-73.389C285.73,-83.5 294.646,-88.556 305.627,-88.556C314.216,-88.556 320.821,-86.177 325.442,-81.421C330.062,-76.664 332.373,-69.339 332.373,-59.445L332.373,0L317.777,0L317.777,-54.552C317.777,-60.423 317.301,-64.65 316.35,-67.232C315.398,-69.814 313.672,-71.894 311.172,-73.47C308.671,-75.047 305.735,-75.835 302.365,-75.835C296.276,-75.835 291.221,-73.81 287.198,-69.76C283.175,-65.71 281.164,-59.227 281.164,-50.312L281.164,0L266.486,0L266.486,-56.265C266.486,-62.788 265.29,-67.681 262.898,-70.942C260.506,-74.204 256.592,-75.835 251.156,-75.835C247.024,-75.835 243.206,-74.748 239.699,-72.573C236.193,-70.399 233.651,-67.219 232.075,-63.033C230.498,-58.847 229.71,-52.813 229.71,-44.93L229.71,0L215.032,0Z" style="fill:rgb(51,51,51);fill-rule:nonzero;"/>
                    <path d="M354.034,33.188L354.034,-86.599L367.407,-86.599L367.407,-75.346C370.56,-79.749 374.12,-83.052 378.089,-85.253C382.057,-87.455 386.868,-88.556 392.522,-88.556C399.915,-88.556 406.439,-86.653 412.092,-82.848C417.746,-79.042 422.013,-73.674 424.895,-66.743C427.776,-59.812 429.216,-52.215 429.216,-43.952C429.216,-35.091 427.626,-27.113 424.446,-20.019C421.266,-12.925 416.645,-7.488 410.584,-3.71C404.522,0.068 398.148,1.957 391.462,1.957C386.569,1.957 382.18,0.924 378.293,-1.142C374.406,-3.207 371.212,-5.817 368.711,-8.97L368.711,33.188L354.034,33.188ZM367.325,-42.81C367.325,-31.666 369.581,-23.43 374.093,-18.103C378.605,-12.775 384.069,-10.111 390.483,-10.111C397.007,-10.111 402.593,-12.87 407.241,-18.388C411.888,-23.906 414.212,-32.454 414.212,-44.033C414.212,-55.069 411.943,-63.332 407.404,-68.822C402.864,-74.313 397.442,-77.058 391.136,-77.058C384.884,-77.058 379.353,-74.136 374.542,-68.292C369.731,-62.448 367.325,-53.954 367.325,-42.81Z" style="fill:rgb(51,51,51);fill-rule:nonzero;"/>
                    <rect x="446.733" y="-119.542" width="14.678" height="119.542" style="fill:rgb(51,51,51);fill-rule:nonzero;"/>
                    <path d="M543.369,-27.888L558.536,-26.012C556.144,-17.151 551.714,-10.274 545.244,-5.382C538.775,-0.489 530.512,1.957 520.455,1.957C507.789,1.957 497.746,-1.943 490.325,-9.744C482.905,-17.545 479.195,-28.486 479.195,-42.565C479.195,-57.134 482.946,-68.442 490.448,-76.487C497.95,-84.533 507.68,-88.556 519.64,-88.556C531.219,-88.556 540.678,-84.614 548.017,-76.732C555.356,-68.849 559.025,-57.76 559.025,-43.462C559.025,-42.593 558.998,-41.288 558.944,-39.548L494.362,-39.548C494.905,-30.035 497.596,-22.75 502.434,-17.695C507.273,-12.639 513.307,-10.111 520.537,-10.111C525.919,-10.111 530.512,-11.525 534.318,-14.352C538.123,-17.178 541.14,-21.69 543.369,-27.888ZM495.177,-51.617L543.532,-51.617C542.88,-58.901 541.031,-64.365 537.987,-68.007C533.312,-73.66 527.251,-76.487 519.803,-76.487C513.062,-76.487 507.395,-74.231 502.801,-69.719C498.208,-65.207 495.666,-59.173 495.177,-51.617Z" style="fill:rgb(51,51,51);fill-rule:nonzero;"/>
                </g>
            </g>
            <g transform="matrix(1.06269,0,0,0.735484,1739.59,1567.32)">
                <g transform="matrix(0.0312477,0,0,0.0312489,0,0)">
                    <rect x="464" y="336" width="11344" height="4192" style="fill:none;stroke:rgb(0,100,168);stroke-width:200px;"/>
                </g>
                <rect x="0" y="0" width="383.471" height="175.494" style="fill:none;"/>
                <g transform="matrix(0.499963,0,0,0.499982,49.9973,106.475)">
                    <path d="M7.502,-38.407L22.424,-39.711C23.131,-33.732 24.775,-28.825 27.358,-24.993C29.94,-21.16 33.949,-18.062 39.385,-15.697C44.821,-13.332 50.937,-12.15 57.732,-12.15C63.767,-12.15 69.094,-13.047 73.715,-14.841C78.336,-16.635 81.774,-19.095 84.03,-22.22C86.286,-25.346 87.414,-28.757 87.414,-32.454C87.414,-36.205 86.327,-39.48 84.152,-42.28C81.978,-45.08 78.39,-47.431 73.389,-49.333C70.181,-50.584 63.087,-52.527 52.106,-55.164C41.125,-57.8 33.433,-60.287 29.029,-62.625C23.321,-65.615 19.067,-69.325 16.268,-73.756C13.468,-78.186 12.068,-83.147 12.068,-88.637C12.068,-94.671 13.781,-100.311 17.206,-105.557C20.63,-110.803 25.632,-114.785 32.209,-117.503C38.787,-120.222 46.099,-121.581 54.145,-121.581C63.006,-121.581 70.82,-120.154 77.588,-117.3C84.356,-114.446 89.561,-110.246 93.204,-104.701C96.846,-99.156 98.803,-92.877 99.075,-85.865L83.908,-84.723C83.092,-92.279 80.333,-97.987 75.631,-101.847C70.929,-105.707 63.984,-107.637 54.797,-107.637C45.229,-107.637 38.257,-105.884 33.881,-102.377C29.505,-98.871 27.317,-94.644 27.317,-89.697C27.317,-85.403 28.866,-81.869 31.965,-79.097C35.009,-76.324 42.96,-73.484 55.816,-70.575C68.673,-67.667 77.493,-65.126 82.277,-62.951C89.235,-59.744 94.372,-55.68 97.688,-50.76C101.005,-45.841 102.663,-40.174 102.663,-33.759C102.663,-27.398 100.841,-21.405 97.199,-15.779C93.557,-10.152 88.325,-5.776 81.502,-2.65C74.68,0.476 67.001,2.039 58.466,2.039C47.648,2.039 38.583,0.462 31.272,-2.691C23.96,-5.844 18.225,-10.587 14.066,-16.92C9.907,-23.253 7.719,-30.416 7.502,-38.407Z" style="fill:rgb(51,51,51);fill-rule:nonzero;"/>
                    <path d="M178.516,-10.682C173.08,-6.061 167.848,-2.8 162.819,-0.897C157.791,1.006 152.395,1.957 146.633,1.957C137.12,1.957 129.808,-0.367 124.698,-5.015C119.588,-9.663 117.033,-15.602 117.033,-22.832C117.033,-27.072 117.998,-30.946 119.928,-34.452C121.858,-37.958 124.385,-40.771 127.511,-42.892C130.637,-45.012 134.157,-46.615 138.071,-47.703C140.952,-48.464 145.301,-49.198 151.118,-49.904C162.969,-51.318 171.694,-53.003 177.293,-54.96C177.347,-56.971 177.375,-58.249 177.375,-58.792C177.375,-64.772 175.988,-68.985 173.216,-71.432C169.465,-74.748 163.893,-76.406 156.5,-76.406C149.596,-76.406 144.499,-75.196 141.21,-72.777C137.921,-70.358 135.489,-66.077 133.912,-59.934L119.561,-61.891C120.865,-68.034 123.013,-72.995 126.003,-76.773C128.993,-80.551 133.314,-83.459 138.968,-85.498C144.622,-87.536 151.172,-88.556 158.62,-88.556C166.013,-88.556 172.02,-87.686 176.641,-85.946C181.262,-84.207 184.659,-82.019 186.834,-79.382C189.008,-76.746 190.53,-73.416 191.4,-69.393C191.889,-66.892 192.134,-62.38 192.134,-55.857L192.134,-36.287C192.134,-22.642 192.447,-14.012 193.072,-10.397C193.697,-6.782 194.934,-3.316 196.782,0L181.452,0C179.93,-3.044 178.951,-6.605 178.516,-10.682ZM177.293,-43.462C171.966,-41.288 163.974,-39.44 153.319,-37.917C147.285,-37.048 143.018,-36.069 140.517,-34.982C138.017,-33.895 136.087,-32.305 134.728,-30.212C133.369,-28.119 132.689,-25.795 132.689,-23.24C132.689,-19.326 134.17,-16.064 137.133,-13.455C140.096,-10.845 144.431,-9.541 150.139,-9.541C155.793,-9.541 160.821,-10.777 165.225,-13.251C169.628,-15.724 172.863,-19.108 174.928,-23.403C176.505,-26.719 177.293,-31.611 177.293,-38.081L177.293,-43.462Z" style="fill:rgb(51,51,51);fill-rule:nonzero;"/>
                    <path d="M215.032,0L215.032,-86.599L228.161,-86.599L228.161,-74.449C230.879,-78.689 234.494,-82.1 239.006,-84.682C243.518,-87.265 248.655,-88.556 254.418,-88.556C260.832,-88.556 266.092,-87.224 270.196,-84.56C274.301,-81.896 277.195,-78.173 278.881,-73.389C285.73,-83.5 294.646,-88.556 305.627,-88.556C314.216,-88.556 320.821,-86.177 325.442,-81.421C330.062,-76.664 332.373,-69.339 332.373,-59.445L332.373,0L317.777,0L317.777,-54.552C317.777,-60.423 317.301,-64.65 316.35,-67.232C315.398,-69.814 313.672,-71.894 311.172,-73.47C308.671,-75.047 305.735,-75.835 302.365,-75.835C296.276,-75.835 291.221,-73.81 287.198,-69.76C283.175,-65.71 281.164,-59.227 281.164,-50.312L281.164,0L266.486,0L266.486,-56.265C266.486,-62.788 265.29,-67.681 262.898,-70.942C260.506,-74.204 256.592,-75.835 251.156,-75.835C247.024,-75.835 243.206,-74.748 239.699,-72.573C236.193,-70.399 233.651,-67.219 232.075,-63.033C230.498,-58.847 229.71,-52.813 229.71,-44.93L229.71,0L215.032,0Z" style="fill:rgb(51,51,51);fill-rule:nonzero;"/>
                    <path d="M354.034,33.188L354.034,-86.599L367.407,-86.599L367.407,-75.346C370.56,-79.749 374.12,-83.052 378.089,-85.253C382.057,-87.455 386.868,-88.556 392.522,-88.556C399.915,-88.556 406.439,-86.653 412.092,-82.848C417.746,-79.042 422.013,-73.674 424.895,-66.743C427.776,-59.812 429.216,-52.215 429.216,-43.952C429.216,-35.091 427.626,-27.113 424.446,-20.019C421.266,-12.925 416.645,-7.488 410.584,-3.71C404.522,0.068 398.148,1.957 391.462,1.957C386.569,1.957 382.18,0.924 378.293,-1.142C374.406,-3.207 371.212,-5.817 368.711,-8.97L368.711,33.188L354.034,33.188ZM367.325,-42.81C367.325,-31.666 369.581,-23.43 374.093,-18.103C378.605,-12.775 384.069,-10.111 390.483,-10.111C397.007,-10.111 402.593,-12.87 407.241,-18.388C411.888,-23.906 414.212,-32.454 414.212,-44.033C414.212,-55.069 411.943,-63.332 407.404,-68.822C402.864,-74.313 397.442,-77.058 391.136,-77.058C384.884,-77.058 379.353,-74.136 374.542,-68.292C369.731,-62.448 367.325,-53.954 367.325,-42.81Z" style="fill:rgb(51,51,51);fill-rule:nonzero;"/>
                    <rect x="446.733" y="-119.542" width="14.678" height="119.542" style="fill:rgb(51,51,51);fill-rule:nonzero;"/>
                    <path d="M543.369,-27.888L558.536,-26.012C556.144,-17.151 551.714,-10.274 545.244,-5.382C538.775,-0.489 530.512,1.957 520.455,1.957C507.789,1.957 497.746,-1.943 490.325,-9.744C482.905,-17.545 479.195,-28.486 479.195,-42.565C479.195,-57.134 482.946,-68.442 490.448,-76.487C497.95,-84.533 507.68,-88.556 519.64,-88.556C531.219,-88.556 540.678,-84.614 548.017,-76.732C555.356,-68.849 559.025,-57.76 559.025,-43.462C559.025,-42.593 558.998,-41.288 558.944,-39.548L494.362,-39.548C494.905,-30.035 497.596,-22.75 502.434,-17.695C507.273,-12.639 513.307,-10.111 520.537,-10.111C525.919,-10.111 530.512,-11.525 534.318,-14.352C538.123,-17.178 541.14,-21.69 543.369,-27.888ZM495.177,-51.617L543.532,-51.617C542.88,-58.901 541.031,-64.365 537.987,-68.007C533.312,-73.66 527.251,-76.487 519.803,-76.487C513.062,-76.487 507.395,-74.231 502.801,-69.719C498.208,-65.207 495.666,-59.173 495.177,-51.617Z" style="fill:rgb(51,51,51);fill-rule:nonzero;"/>
                </g>
            </g>
            <g transform="matrix(1.06269,0,0,0.735484,2266.64,1567.32)">
                <g transform="matrix(0.0312477,0,0,0.0312489,0,0)">
                    <rect x="464" y="336" width="11344" height="4192" style="fill:none;stroke:rgb(0,100,168);stroke-width:200px;"/>
                </g>
                <rect x="0" y="0" width="383.471" height="175.494" style="fill:none;"/>
                <g transform="matrix(0.499963,0,0,0.499982,49.9973,106.475)">
                    <path d="M7.502,-38.407L22.424,-39.711C23.131,-33.732 24.775,-28.825 27.358,-24.993C29.94,-21.16 33.949,-18.062 39.385,-15.697C44.821,-13.332 50.937,-12.15 57.732,-12.15C63.767,-12.15 69.094,-13.047 73.715,-14.841C78.336,-16.635 81.774,-19.095 84.03,-22.22C86.286,-25.346 87.414,-28.757 87.414,-32.454C87.414,-36.205 86.327,-39.48 84.152,-42.28C81.978,-45.08 78.39,-47.431 73.389,-49.333C70.181,-50.584 63.087,-52.527 52.106,-55.164C41.125,-57.8 33.433,-60.287 29.029,-62.625C23.321,-65.615 19.067,-69.325 16.268,-73.756C13.468,-78.186 12.068,-83.147 12.068,-88.637C12.068,-94.671 13.781,-100.311 17.206,-105.557C20.63,-110.803 25.632,-114.785 32.209,-117.503C38.787,-120.222 46.099,-121.581 54.145,-121.581C63.006,-121.581 70.82,-120.154 77.588,-117.3C84.356,-114.446 89.561,-110.246 93.204,-104.701C96.846,-99.156 98.803,-92.877 99.075,-85.865L83.908,-84.723C83.092,-92.279 80.333,-97.987 75.631,-101.847C70.929,-105.707 63.984,-107.637 54.797,-107.637C45.229,-107.637 38.257,-105.884 33.881,-102.377C29.505,-98.871 27.317,-94.644 27.317,-89.697C27.317,-85.403 28.866,-81.869 31.965,-79.097C35.009,-76.324 42.96,-73.484 55.816,-70.575C68.673,-67.667 77.493,-65.126 82.277,-62.951C89.235,-59.744 94.372,-55.68 97.688,-50.76C101.005,-45.841 102.663,-40.174 102.663,-33.759C102.663,-27.398 100.841,-21.405 97.199,-15.779C93.557,-10.152 88.325,-5.776 81.502,-2.65C74.68,0.476 67.001,2.039 58.466,2.039C47.648,2.039 38.583,0.462 31.272,-2.691C23.96,-5.844 18.225,-10.587 14.066,-16.92C9.907,-23.253 7.719,-30.416 7.502,-38.407Z" style="fill:rgb(51,51,51);fill-rule:nonzero;"/>
                    <path d="M178.516,-10.682C173.08,-6.061 167.848,-2.8 162.819,-0.897C157.791,1.006 152.395,1.957 146.633,1.957C137.12,1.957 129.808,-0.367 124.698,-5.015C119.588,-9.663 117.033,-15.602 117.033,-22.832C117.033,-27.072 117.998,-30.946 119.928,-34.452C121.858,-37.958 124.385,-40.771 127.511,-42.892C130.637,-45.012 134.157,-46.615 138.071,-47.703C140.952,-48.464 145.301,-49.198 151.118,-49.904C162.969,-51.318 171.694,-53.003 177.293,-54.96C177.347,-56.971 177.375,-58.249 177.375,-58.792C177.375,-64.772 175.988,-68.985 173.216,-71.432C169.465,-74.748 163.893,-76.406 156.5,-76.406C149.596,-76.406 144.499,-75.196 141.21,-72.777C137.921,-70.358 135.489,-66.077 133.912,-59.934L119.561,-61.891C120.865,-68.034 123.013,-72.995 126.003,-76.773C128.993,-80.551 133.314,-83.459 138.968,-85.498C144.622,-87.536 151.172,-88.556 158.62,-88.556C166.013,-88.556 172.02,-87.686 176.641,-85.946C181.262,-84.207 184.659,-82.019 186.834,-79.382C189.008,-76.746 190.53,-73.416 191.4,-69.393C191.889,-66.892 192.134,-62.38 192.134,-55.857L192.134,-36.287C192.134,-22.642 192.447,-14.012 193.072,-10.397C193.697,-6.782 194.934,-3.316 196.782,0L181.452,0C179.93,-3.044 178.951,-6.605 178.516,-10.682ZM177.293,-43.462C171.966,-41.288 163.974,-39.44 153.319,-37.917C147.285,-37.048 143.018,-36.069 140.517,-34.982C138.017,-33.895 136.087,-32.305 134.728,-30.212C133.369,-28.119 132.689,-25.795 132.689,-23.24C132.689,-19.326 134.17,-16.064 137.133,-13.455C140.096,-10.845 144.431,-9.541 150.139,-9.541C155.793,-9.541 160.821,-10.777 165.225,-13.251C169.628,-15.724 172.863,-19.108 174.928,-23.403C176.505,-26.719 177.293,-31.611 177.293,-38.081L177.293,-43.462Z" style="fill:rgb(51,51,51);fill-rule:nonzero;"/>
                    <path d="M215.032,0L215.032,-86.599L228.161,-86.599L228.161,-74.449C230.879,-78.689 234.494,-82.1 239.006,-84.682C243.518,-87.265 248.655,-88.556 254.418,-88.556C260.832,-88.556 266.092,-87.224 270.196,-84.56C274.301,-81.896 277.195,-78.173 278.881,-73.389C285.73,-83.5 294.646,-88.556 305.627,-88.556C314.216,-88.556 320.821,-86.177 325.442,-81.421C330.062,-76.664 332.373,-69.339 332.373,-59.445L332.373,0L317.777,0L317.777,-54.552C317.777,-60.423 317.301,-64.65 316.35,-67.232C315.398,-69.814 313.672,-71.894 311.172,-73.47C308.671,-75.047 305.735,-75.835 302.365,-75.835C296.276,-75.835 291.221,-73.81 287.198,-69.76C283.175,-65.71 281.164,-59.227 281.164,-50.312L281.164,0L266.486,0L266.486,-56.265C266.486,-62.788 265.29,-67.681 262.898,-70.942C260.506,-74.204 256.592,-75.835 251.156,-75.835C247.024,-75.835 243.206,-74.748 239.699,-72.573C236.193,-70.399 233.651,-67.219 232.075,-63.033C230.498,-58.847 229.71,-52.813 229.71,-44.93L229.71,0L215.032,0Z" style="fill:rgb(51,51,51);fill-rule:nonzero;"/>
                    <path d="M354.034,33.188L354.034,-86.599L367.407,-86.599L367.407,-75.346C370.56,-79.749 374.12,-83.052 378.089,-85.253C382.057,-87.455 386.868,-88.556 392.522,-88.556C399.915,-88.556 406.439,-86.653 412.092,-82.848C417.746,-79.042 422.013,-73.674 424.895,-66.743C427.776,-59.812 429.216,-52.215 429.216,-43.952C429.216,-35.091 427.626,-27.113 424.446,-20.019C421.266,-12.925 416.645,-7.488 410.584,-3.71C404.522,0.068 398.148,1.957 391.462,1.957C386.569,1.957 382.18,0.924 378.293,-1.142C374.406,-3.207 371.212,-5.817 368.711,-8.97L368.711,33.188L354.034,33.188ZM367.325,-42.81C367.325,-31.666 369.581,-23.43 374.093,-18.103C378.605,-12.775 384.069,-10.111 390.483,-10.111C397.007,-10.111 402.593,-12.87 407.241,-18.388C411.888,-23.906 414.212,-32.454 414.212,-44.033C414.212,-55.069 411.943,-63.332 407.404,-68.822C402.864,-74.313 397.442,-77.058 391.136,-77.058C384.884,-77.058 379.353,-74.136 374.542,-68.292C369.731,-62.448 367.325,-53.954 367.325,-42.81Z" style="fill:rgb(51,51,51);fill-rule:nonzero;"/>
                    <rect x="446.733" y="-119.542" width="14.678" height="119.542" style="fill:rgb(51,51,51);fill-rule:nonzero;"/>
                    <path d="M543.369,-27.888L558.536,-26.012C556.144,-17.151 551.714,-10.274 545.244,-5.382C538.775,-0.489 530.512,1.957 520.455,1.957C507.789,1.957 497.746,-1.943 490.325,-9.744C482.905,-17.545 479.195,-28.486 479.195,-42.565C479.195,-57.134 482.946,-68.442 490.448,-76.487C497.95,-84.533 507.68,-88.556 519.64,-88.556C531.219,-88.556 540.678,-84.614 548.017,-76.732C555.356,-68.849 559.025,-57.76 559.025,-43.462C559.025,-42.593 558.998,-41.288 558.944,-39.548L494.362,-39.548C494.905,-30.035 497.596,-22.75 502.434,-17.695C507.273,-12.639 513.307,-10.111 520.537,-10.111C525.919,-10.111 530.512,-11.525 534.318,-14.352C538.123,-17.178 541.14,-21.69 543.369,-27.888ZM495.177,-51.617L543.532,-51.617C542.88,-58.901 541.031,-64.365 537.987,-68.007C533.312,-73.66 527.251,-76.487 519.803,-76.487C513.062,-76.487 507.395,-74.231 502.801,-69.719C498.208,-65.207 495.666,-59.173 495.177,-51.617Z" style="fill:rgb(51,51,51);fill-rule:nonzero;"/>
                </g>
            </g>
            <g transform="matrix(1.06269,0,0,0.735484,1929.53,1330.95)">
                <g transform="matrix(0.0312477,0,0,0.0312489,0,0)">
                    <rect x="416" y="336" width="15872" height="4192" style="fill:none;stroke:rgb(0,100,168);stroke-width:200px;"/>
                </g>
                <rect x="0" y="0" width="522.461" height="175.494" style="fill:none;"/>
                <g transform="matrix(0.499963,0,0,0.499982,50.1639,106.42)">
                    <path d="M13.21,0L13.21,-119.542L99.646,-119.542L99.646,-105.435L29.029,-105.435L29.029,-68.822L95.161,-68.822L95.161,-54.797L29.029,-54.797L29.029,-14.107L102.418,-14.107L102.418,0L13.21,0Z" style="fill:rgb(51,51,51);fill-rule:nonzero;"/>
                    <path d="M112.222,0L143.861,-45.012L114.587,-86.599L132.934,-86.599L146.225,-66.294C148.726,-62.435 150.737,-59.2 152.259,-56.591C154.651,-60.179 156.853,-63.359 158.864,-66.131L173.461,-86.599L190.992,-86.599L161.066,-45.827L193.276,0L175.255,0L157.478,-26.909L152.749,-34.167L129.998,0L112.222,0Z" style="fill:rgb(51,51,51);fill-rule:nonzero;"/>
                    <path d="M205.007,33.188L205.007,-86.599L218.38,-86.599L218.38,-75.346C221.533,-79.749 225.094,-83.052 229.062,-85.253C233.031,-87.455 237.842,-88.556 243.495,-88.556C250.888,-88.556 257.412,-86.653 263.066,-82.848C268.719,-79.042 272.987,-73.674 275.868,-66.743C278.749,-59.812 280.19,-52.215 280.19,-43.952C280.19,-35.091 278.6,-27.113 275.419,-20.019C272.239,-12.925 267.618,-7.488 261.557,-3.71C255.496,0.068 249.122,1.957 242.435,1.957C237.543,1.957 233.153,0.924 229.266,-1.142C225.379,-3.207 222.185,-5.817 219.685,-8.97L219.685,33.188L205.007,33.188ZM218.298,-42.81C218.298,-31.666 220.555,-23.43 225.067,-18.103C229.579,-12.775 235.042,-10.111 241.457,-10.111C247.98,-10.111 253.566,-12.87 258.214,-18.388C262.862,-23.906 265.186,-32.454 265.186,-44.033C265.186,-55.069 262.916,-63.332 258.377,-68.822C253.838,-74.313 248.415,-77.058 242.109,-77.058C235.857,-77.058 230.326,-74.136 225.515,-68.292C220.704,-62.448 218.298,-53.954 218.298,-42.81Z" style="fill:rgb(51,51,51);fill-rule:nonzero;"/>
                    <path d="M357.314,-27.888L372.481,-26.012C370.089,-17.151 365.659,-10.274 359.19,-5.382C352.721,-0.489 344.458,1.957 334.401,1.957C321.734,1.957 311.691,-1.943 304.27,-9.744C296.85,-17.545 293.14,-28.486 293.14,-42.565C293.14,-57.134 296.891,-68.442 304.393,-76.487C311.895,-84.533 321.626,-88.556 333.585,-88.556C345.164,-88.556 354.623,-84.614 361.962,-76.732C369.301,-68.849 372.97,-57.76 372.97,-43.462C372.97,-42.593 372.943,-41.288 372.889,-39.548L308.307,-39.548C308.85,-30.035 311.541,-22.75 316.38,-17.695C321.218,-12.639 327.252,-10.111 334.482,-10.111C339.864,-10.111 344.458,-11.525 348.263,-14.352C352.068,-17.178 355.085,-21.69 357.314,-27.888ZM309.122,-51.617L357.477,-51.617C356.825,-58.901 354.977,-64.365 351.932,-68.007C347.257,-73.66 341.196,-76.487 333.748,-76.487C327.007,-76.487 321.34,-74.231 316.747,-69.719C312.153,-65.207 309.612,-59.173 309.122,-51.617Z" style="fill:rgb(51,51,51);fill-rule:nonzero;"/>
                    <path d="M390.895,0L390.895,-86.599L404.105,-86.599L404.105,-73.47C407.475,-79.613 410.587,-83.663 413.441,-85.62C416.295,-87.577 419.435,-88.556 422.86,-88.556C427.807,-88.556 432.835,-86.979 437.945,-83.826L432.889,-70.208C429.302,-72.329 425.714,-73.389 422.126,-73.389C418.918,-73.389 416.037,-72.424 413.482,-70.494C410.927,-68.564 409.106,-65.887 408.019,-62.462C406.388,-57.243 405.573,-51.535 405.573,-45.338L405.573,0L390.895,0Z" style="fill:rgb(51,51,51);fill-rule:nonzero;"/>
                    <path d="M447.141,-102.663L447.141,-119.542L461.818,-119.542L461.818,-102.663L447.141,-102.663ZM447.141,0L447.141,-86.599L461.818,-86.599L461.818,0L447.141,0Z" style="fill:rgb(51,51,51);fill-rule:nonzero;"/>
                    <path d="M484.087,0L484.087,-86.599L497.216,-86.599L497.216,-74.449C499.934,-78.689 503.549,-82.1 508.061,-84.682C512.573,-87.265 517.71,-88.556 523.472,-88.556C529.887,-88.556 535.147,-87.224 539.251,-84.56C543.355,-81.896 546.25,-78.173 547.935,-73.389C554.785,-83.5 563.7,-88.556 574.681,-88.556C583.271,-88.556 589.876,-86.177 594.496,-81.421C599.117,-76.664 601.428,-69.339 601.428,-59.445L601.428,0L586.831,0L586.831,-54.552C586.831,-60.423 586.356,-64.65 585.404,-67.232C584.453,-69.814 582.727,-71.894 580.226,-73.47C577.726,-75.047 574.79,-75.835 571.42,-75.835C565.331,-75.835 560.276,-73.81 556.253,-69.76C552.23,-65.71 550.219,-59.227 550.219,-50.312L550.219,0L535.541,0L535.541,-56.265C535.541,-62.788 534.345,-67.681 531.953,-70.942C529.561,-74.204 525.647,-75.835 520.211,-75.835C516.079,-75.835 512.26,-74.748 508.754,-72.573C505.248,-70.399 502.706,-67.219 501.13,-63.033C499.553,-58.847 498.765,-52.813 498.765,-44.93L498.765,0L484.087,0Z" style="fill:rgb(51,51,51);fill-rule:nonzero;"/>
                    <path d="M682.37,-27.888L697.537,-26.012C695.145,-17.151 690.715,-10.274 684.246,-5.382C677.777,-0.489 669.514,1.957 659.457,1.957C646.79,1.957 636.747,-1.943 629.327,-9.744C621.906,-17.545 618.196,-28.486 618.196,-42.565C618.196,-57.134 621.947,-68.442 629.449,-76.487C636.951,-84.533 646.682,-88.556 658.641,-88.556C670.22,-88.556 679.679,-84.614 687.018,-76.732C694.357,-68.849 698.026,-57.76 698.026,-43.462C698.026,-42.593 697.999,-41.288 697.945,-39.548L633.363,-39.548C633.907,-30.035 636.597,-22.75 641.436,-17.695C646.274,-12.639 652.308,-10.111 659.538,-10.111C664.92,-10.111 669.514,-11.525 673.319,-14.352C677.124,-17.178 680.141,-21.69 682.37,-27.888ZM634.178,-51.617L682.533,-51.617C681.881,-58.901 680.033,-64.365 676.988,-68.007C672.313,-73.66 666.252,-76.487 658.804,-76.487C652.063,-76.487 646.396,-74.231 641.803,-69.719C637.209,-65.207 634.668,-59.173 634.178,-51.617Z" style="fill:rgb(51,51,51);fill-rule:nonzero;"/>
                    <path d="M716.114,0L716.114,-86.599L729.324,-86.599L729.324,-74.286C735.684,-83.799 744.871,-88.556 756.885,-88.556C762.104,-88.556 766.902,-87.618 771.278,-85.742C775.654,-83.867 778.929,-81.407 781.104,-78.363C783.278,-75.319 784.8,-71.703 785.67,-67.518C786.214,-64.799 786.486,-60.043 786.486,-53.248L786.486,0L771.808,0L771.808,-52.677C771.808,-58.657 771.237,-63.128 770.095,-66.091C768.954,-69.053 766.929,-71.418 764.02,-73.185C761.112,-74.952 757.701,-75.835 753.787,-75.835C747.535,-75.835 742.14,-73.851 737.601,-69.882C733.061,-65.914 730.792,-58.385 730.792,-47.295L730.792,0L716.114,0Z" style="fill:rgb(51,51,51);fill-rule:nonzero;"/>
                    <path d="M841.186,-13.128L843.306,-0.163C839.174,0.707 835.478,1.142 832.216,1.142C826.889,1.142 822.757,0.299 819.822,-1.386C816.886,-3.071 814.82,-5.287 813.624,-8.032C812.428,-10.777 811.83,-16.553 811.83,-25.36L811.83,-75.183L801.067,-75.183L801.067,-86.599L811.83,-86.599L811.83,-108.044L826.426,-116.851L826.426,-86.599L841.186,-86.599L841.186,-75.183L826.426,-75.183L826.426,-24.544C826.426,-20.359 826.685,-17.668 827.201,-16.472C827.718,-15.276 828.56,-14.324 829.729,-13.618C830.898,-12.911 832.569,-12.558 834.744,-12.558C836.375,-12.558 838.522,-12.748 841.186,-13.128Z" style="fill:rgb(51,51,51);fill-rule:nonzero;"/>
                </g>
            </g>
            <g transform="matrix(1.06269,0,0,0.735484,2691.74,1261.11)">
                <g transform="matrix(0.0312477,0,0,0.0312489,0,0)">
                    <rect x="368" y="336" width="13600" height="4192" style="fill:none;stroke:rgb(0,100,168);stroke-width:200px;"/>
                </g>
                <rect x="0" y="0" width="448.467" height="175.494" style="fill:none;"/>
                <g transform="matrix(0.499963,0,0,0.499982,50.0673,106.42)">
                    <path d="M12.395,0L12.395,-119.542L36.205,-119.542L64.5,-34.9C67.11,-27.018 69.013,-21.12 70.208,-17.206C71.568,-21.555 73.688,-27.942 76.569,-36.368L105.19,-119.542L126.473,-119.542L126.473,0L111.225,0L111.225,-100.053L76.487,0L62.217,0L27.643,-101.766L27.643,0L12.395,0Z" style="fill:rgb(51,51,51);fill-rule:nonzero;"/>
                    <path d="M209.291,-27.888L224.458,-26.012C222.066,-17.151 217.636,-10.274 211.167,-5.382C204.698,-0.489 196.435,1.957 186.378,1.957C173.711,1.957 163.668,-1.943 156.248,-9.744C148.827,-17.545 145.117,-28.486 145.117,-42.565C145.117,-57.134 148.868,-68.442 156.37,-76.487C163.872,-84.533 173.603,-88.556 185.562,-88.556C197.141,-88.556 206.6,-84.614 213.939,-76.732C221.278,-68.849 224.948,-57.76 224.948,-43.462C224.948,-42.593 224.92,-41.288 224.866,-39.548L160.284,-39.548C160.828,-30.035 163.519,-22.75 168.357,-17.695C173.195,-12.639 179.229,-10.111 186.459,-10.111C191.841,-10.111 196.435,-11.525 200.24,-14.352C204.045,-17.178 207.062,-21.69 209.291,-27.888ZM161.099,-51.617L209.454,-51.617C208.802,-58.901 206.954,-64.365 203.91,-68.007C199.234,-73.66 193.173,-76.487 185.725,-76.487C178.985,-76.487 173.317,-74.231 168.724,-69.719C164.13,-65.207 161.589,-59.173 161.099,-51.617Z" style="fill:rgb(51,51,51);fill-rule:nonzero;"/>
                    <path d="M275.081,-13.128L277.202,-0.163C273.07,0.707 269.373,1.142 266.112,1.142C260.784,1.142 256.653,0.299 253.717,-1.386C250.782,-3.071 248.716,-5.287 247.52,-8.032C246.324,-10.777 245.726,-16.553 245.726,-25.36L245.726,-75.183L234.962,-75.183L234.962,-86.599L245.726,-86.599L245.726,-108.044L260.322,-116.851L260.322,-86.599L275.081,-86.599L275.081,-75.183L260.322,-75.183L260.322,-24.544C260.322,-20.359 260.58,-17.668 261.097,-16.472C261.613,-15.276 262.456,-14.324 263.625,-13.618C264.793,-12.911 266.465,-12.558 268.64,-12.558C270.27,-12.558 272.418,-12.748 275.081,-13.128Z" style="fill:rgb(51,51,51);fill-rule:nonzero;"/>
                    <path d="M345.516,-10.682C340.08,-6.061 334.848,-2.8 329.819,-0.897C324.791,1.006 319.395,1.957 313.633,1.957C304.12,1.957 296.808,-0.367 291.698,-5.015C286.588,-9.663 284.033,-15.602 284.033,-22.832C284.033,-27.072 284.998,-30.946 286.928,-34.452C288.857,-37.958 291.385,-40.771 294.511,-42.892C297.637,-45.012 301.157,-46.615 305.071,-47.703C307.952,-48.464 312.301,-49.198 318.118,-49.904C329.969,-51.318 338.694,-53.003 344.293,-54.96C344.347,-56.971 344.375,-58.249 344.375,-58.792C344.375,-64.772 342.988,-68.985 340.216,-71.432C336.465,-74.748 330.893,-76.406 323.5,-76.406C316.596,-76.406 311.499,-75.196 308.21,-72.777C304.921,-70.358 302.489,-66.077 300.912,-59.934L286.561,-61.891C287.865,-68.034 290.013,-72.995 293.003,-76.773C295.992,-80.551 300.314,-83.459 305.968,-85.498C311.622,-87.536 318.172,-88.556 325.62,-88.556C333.013,-88.556 339.02,-87.686 343.641,-85.946C348.262,-84.207 351.659,-82.019 353.834,-79.382C356.008,-76.746 357.53,-73.416 358.4,-69.393C358.889,-66.892 359.134,-62.38 359.134,-55.857L359.134,-36.287C359.134,-22.642 359.447,-14.012 360.072,-10.397C360.697,-6.782 361.934,-3.316 363.782,0L348.452,0C346.93,-3.044 345.951,-6.605 345.516,-10.682ZM344.293,-43.462C338.966,-41.288 330.974,-39.44 320.319,-37.917C314.285,-37.048 310.018,-36.069 307.517,-34.982C305.017,-33.895 303.087,-32.305 301.728,-30.212C300.369,-28.119 299.689,-25.795 299.689,-23.24C299.689,-19.326 301.17,-16.064 304.133,-13.455C307.096,-10.845 311.431,-9.541 317.139,-9.541C322.793,-9.541 327.821,-10.777 332.225,-13.251C336.628,-15.724 339.863,-19.108 341.928,-23.403C343.505,-26.719 344.293,-31.611 344.293,-38.081L344.293,-43.462Z" style="fill:rgb(51,51,51);fill-rule:nonzero;"/>
                    <path d="M438.216,0L438.216,-10.927C432.725,-2.338 424.652,1.957 413.997,1.957C407.093,1.957 400.747,0.054 394.957,-3.751C389.167,-7.556 384.683,-12.87 381.502,-19.693C378.322,-26.515 376.732,-34.357 376.732,-43.218C376.732,-51.861 378.173,-59.703 381.054,-66.743C383.935,-73.783 388.257,-79.178 394.019,-82.929C399.782,-86.68 406.223,-88.556 413.345,-88.556C418.564,-88.556 423.212,-87.455 427.289,-85.253C431.366,-83.052 434.682,-80.184 437.237,-76.65L437.237,-119.542L451.833,-119.542L451.833,0L438.216,0ZM391.818,-43.218C391.818,-32.128 394.155,-23.838 398.83,-18.347C403.505,-12.857 409.023,-10.111 415.383,-10.111C421.798,-10.111 427.248,-12.734 431.733,-17.98C436.218,-23.226 438.46,-31.231 438.46,-41.995C438.46,-53.846 436.177,-62.543 431.611,-68.088C427.044,-73.633 421.418,-76.406 414.731,-76.406C408.208,-76.406 402.758,-73.742 398.382,-68.415C394.006,-63.087 391.818,-54.688 391.818,-43.218Z" style="fill:rgb(51,51,51);fill-rule:nonzero;"/>
                    <path d="M531.567,-10.682C526.131,-6.061 520.899,-2.8 515.87,-0.897C510.842,1.006 505.446,1.957 499.684,1.957C490.17,1.957 482.859,-0.367 477.749,-5.015C472.639,-9.663 470.084,-15.602 470.084,-22.832C470.084,-27.072 471.049,-30.946 472.979,-34.452C474.908,-37.958 477.436,-40.771 480.562,-42.892C483.688,-45.012 487.208,-46.615 491.122,-47.703C494.003,-48.464 498.352,-49.198 504.169,-49.904C516.02,-51.318 524.745,-53.003 530.344,-54.96C530.398,-56.971 530.426,-58.249 530.426,-58.792C530.426,-64.772 529.039,-68.985 526.267,-71.432C522.516,-74.748 516.944,-76.406 509.551,-76.406C502.647,-76.406 497.55,-75.196 494.261,-72.777C490.972,-70.358 488.54,-66.077 486.963,-59.934L472.612,-61.891C473.916,-68.034 476.064,-72.995 479.053,-76.773C482.043,-80.551 486.365,-83.459 492.019,-85.498C497.672,-87.536 504.223,-88.556 511.671,-88.556C519.064,-88.556 525.071,-87.686 529.692,-85.946C534.312,-84.207 537.71,-82.019 539.885,-79.382C542.059,-76.746 543.581,-73.416 544.451,-69.393C544.94,-66.892 545.185,-62.38 545.185,-55.857L545.185,-36.287C545.185,-22.642 545.497,-14.012 546.123,-10.397C546.748,-6.782 547.984,-3.316 549.833,0L534.503,0C532.981,-3.044 532.002,-6.605 531.567,-10.682ZM530.344,-43.462C525.017,-41.288 517.025,-39.44 506.37,-37.917C500.336,-37.048 496.069,-36.069 493.568,-34.982C491.067,-33.895 489.138,-32.305 487.779,-30.212C486.42,-28.119 485.74,-25.795 485.74,-23.24C485.74,-19.326 487.221,-16.064 490.184,-13.455C493.147,-10.845 497.482,-9.541 503.19,-9.541C508.844,-9.541 513.872,-10.777 518.276,-13.251C522.679,-15.724 525.913,-19.108 527.979,-23.403C529.556,-26.719 530.344,-31.611 530.344,-38.081L530.344,-43.462Z" style="fill:rgb(51,51,51);fill-rule:nonzero;"/>
                    <path d="M600.13,-13.128L602.25,-0.163C598.118,0.707 594.422,1.142 591.16,1.142C585.832,1.142 581.701,0.299 578.765,-1.386C575.83,-3.071 573.764,-5.287 572.568,-8.032C571.372,-10.777 570.774,-16.553 570.774,-25.36L570.774,-75.183L560.011,-75.183L560.011,-86.599L570.774,-86.599L570.774,-108.044L585.37,-116.851L585.37,-86.599L600.13,-86.599L600.13,-75.183L585.37,-75.183L585.37,-24.544C585.37,-20.359 585.629,-17.668 586.145,-16.472C586.661,-15.276 587.504,-14.324 588.673,-13.618C589.842,-12.911 591.513,-12.558 593.688,-12.558C595.319,-12.558 597.466,-12.748 600.13,-13.128Z" style="fill:rgb(51,51,51);fill-rule:nonzero;"/>
                    <path d="M670.565,-10.682C665.128,-6.061 659.896,-2.8 654.867,-0.897C649.839,1.006 644.444,1.957 638.681,1.957C629.168,1.957 621.856,-0.367 616.746,-5.015C611.636,-9.663 609.081,-15.602 609.081,-22.832C609.081,-27.072 610.046,-30.946 611.976,-34.452C613.906,-37.958 616.434,-40.771 619.559,-42.892C622.685,-45.012 626.205,-46.615 630.119,-47.703C633,-48.464 637.349,-49.198 643.166,-49.904C655.017,-51.318 663.742,-53.003 669.341,-54.96C669.396,-56.971 669.423,-58.249 669.423,-58.792C669.423,-64.772 668.037,-68.985 665.264,-71.432C661.513,-74.748 655.941,-76.406 648.548,-76.406C641.644,-76.406 636.548,-75.196 633.259,-72.777C629.97,-70.358 627.537,-66.077 625.961,-59.934L611.609,-61.891C612.914,-68.034 615.061,-72.995 618.051,-76.773C621.041,-80.551 625.363,-83.459 631.016,-85.498C636.67,-87.536 643.22,-88.556 650.668,-88.556C658.061,-88.556 664.068,-87.686 668.689,-85.946C673.31,-84.207 676.707,-82.019 678.882,-79.382C681.056,-76.746 682.579,-73.416 683.448,-69.393C683.938,-66.892 684.182,-62.38 684.182,-55.857L684.182,-36.287C684.182,-22.642 684.495,-14.012 685.12,-10.397C685.745,-6.782 686.982,-3.316 688.83,0L673.5,0C671.978,-3.044 670.999,-6.605 670.565,-10.682ZM669.341,-43.462C664.014,-41.288 656.023,-39.44 645.368,-37.917C639.334,-37.048 635.066,-36.069 632.565,-34.982C630.065,-33.895 628.135,-32.305 626.776,-30.212C625.417,-28.119 624.737,-25.795 624.737,-23.24C624.737,-19.326 626.219,-16.064 629.181,-13.455C632.144,-10.845 636.48,-9.541 642.188,-9.541C647.841,-9.541 652.87,-10.777 657.273,-13.251C661.676,-15.724 664.911,-19.108 666.977,-23.403C668.553,-26.719 669.341,-31.611 669.341,-38.081L669.341,-43.462Z" style="fill:rgb(51,51,51);fill-rule:nonzero;"/>
                </g>
            </g>
            <g transform="matrix(1.06269,0,0,0.735484,2695.99,1402.27)">
                <g transform="matrix(0.0312477,0,0,0.0312489,0,0)">
                    <rect x="240" y="336" width="20416" height="4192" style="fill:none;stroke:rgb(0,100,168);stroke-width:200px;"/>
                </g>
                <rect x="0" y="0" width="652.451" height="175.494" style="fill:none;"/>
                <g transform="matrix(0.499963,0,0,0.499982,50.118,106.469)">
                    <path d="M12.395,0L12.395,-119.542L36.205,-119.542L64.5,-34.9C67.11,-27.018 69.013,-21.12 70.208,-17.206C71.568,-21.555 73.688,-27.942 76.569,-36.368L105.19,-119.542L126.473,-119.542L126.473,0L111.225,0L111.225,-100.053L76.487,0L62.217,0L27.643,-101.766L27.643,0L12.395,0Z" style="fill:rgb(51,51,51);fill-rule:nonzero;"/>
                    <path d="M209.291,-27.888L224.458,-26.012C222.066,-17.151 217.636,-10.274 211.167,-5.382C204.698,-0.489 196.435,1.957 186.378,1.957C173.711,1.957 163.668,-1.943 156.248,-9.744C148.827,-17.545 145.117,-28.486 145.117,-42.565C145.117,-57.134 148.868,-68.442 156.37,-76.487C163.872,-84.533 173.603,-88.556 185.562,-88.556C197.141,-88.556 206.6,-84.614 213.939,-76.732C221.278,-68.849 224.948,-57.76 224.948,-43.462C224.948,-42.593 224.92,-41.288 224.866,-39.548L160.284,-39.548C160.828,-30.035 163.519,-22.75 168.357,-17.695C173.195,-12.639 179.229,-10.111 186.459,-10.111C191.841,-10.111 196.435,-11.525 200.24,-14.352C204.045,-17.178 207.062,-21.69 209.291,-27.888ZM161.099,-51.617L209.454,-51.617C208.802,-58.901 206.954,-64.365 203.91,-68.007C199.234,-73.66 193.173,-76.487 185.725,-76.487C178.985,-76.487 173.317,-74.231 168.724,-69.719C164.13,-65.207 161.589,-59.173 161.099,-51.617Z" style="fill:rgb(51,51,51);fill-rule:nonzero;"/>
                    <path d="M299.544,-10.682C294.108,-6.061 288.876,-2.8 283.847,-0.897C278.819,1.006 273.423,1.957 267.661,1.957C258.148,1.957 250.836,-0.367 245.726,-5.015C240.616,-9.663 238.061,-15.602 238.061,-22.832C238.061,-27.072 239.026,-30.946 240.956,-34.452C242.886,-37.958 245.413,-40.771 248.539,-42.892C251.665,-45.012 255.185,-46.615 259.099,-47.703C261.98,-48.464 266.329,-49.198 272.146,-49.904C283.997,-51.318 292.722,-53.003 298.321,-54.96C298.376,-56.971 298.403,-58.249 298.403,-58.792C298.403,-64.772 297.016,-68.985 294.244,-71.432C290.493,-74.748 284.921,-76.406 277.528,-76.406C270.624,-76.406 265.527,-75.196 262.238,-72.777C258.95,-70.358 256.517,-66.077 254.94,-59.934L240.589,-61.891C241.893,-68.034 244.041,-72.995 247.031,-76.773C250.021,-80.551 254.342,-83.459 259.996,-85.498C265.65,-87.536 272.2,-88.556 279.648,-88.556C287.041,-88.556 293.048,-87.686 297.669,-85.946C302.29,-84.207 305.687,-82.019 307.862,-79.382C310.036,-76.746 311.558,-73.416 312.428,-69.393C312.917,-66.892 313.162,-62.38 313.162,-55.857L313.162,-36.287C313.162,-22.642 313.475,-14.012 314.1,-10.397C314.725,-6.782 315.962,-3.316 317.81,0L302.48,0C300.958,-3.044 299.979,-6.605 299.544,-10.682ZM298.321,-43.462C292.994,-41.288 285.002,-39.44 274.348,-37.917C268.313,-37.048 264.046,-36.069 261.545,-34.982C259.045,-33.895 257.115,-32.305 255.756,-30.212C254.397,-28.119 253.717,-25.795 253.717,-23.24C253.717,-19.326 255.199,-16.064 258.161,-13.455C261.124,-10.845 265.459,-9.541 271.167,-9.541C276.821,-9.541 281.849,-10.777 286.253,-13.251C290.656,-15.724 293.891,-19.108 295.956,-23.403C297.533,-26.719 298.321,-31.611 298.321,-38.081L298.321,-43.462Z" style="fill:rgb(51,51,51);fill-rule:nonzero;"/>
                    <path d="M330.189,-25.849L344.704,-28.132C345.519,-22.316 347.789,-17.858 351.513,-14.759C355.237,-11.661 360.442,-10.111 367.128,-10.111C373.869,-10.111 378.871,-11.484 382.132,-14.229C385.394,-16.975 387.025,-20.195 387.025,-23.892C387.025,-27.208 385.584,-29.818 382.703,-31.72C380.692,-33.025 375.69,-34.683 367.699,-36.694C356.935,-39.412 349.474,-41.764 345.316,-43.748C341.157,-45.732 338.004,-48.477 335.857,-51.984C333.709,-55.49 332.636,-59.363 332.636,-63.604C332.636,-67.463 333.519,-71.038 335.286,-74.326C337.053,-77.615 339.458,-80.347 342.502,-82.521C344.786,-84.207 347.898,-85.634 351.839,-86.802C355.78,-87.971 360.007,-88.556 364.519,-88.556C371.314,-88.556 377.28,-87.577 382.418,-85.62C387.555,-83.663 391.347,-81.013 393.793,-77.67C396.239,-74.326 397.924,-69.855 398.849,-64.256L384.497,-62.299C383.845,-66.757 381.956,-70.236 378.83,-72.736C375.704,-75.237 371.287,-76.487 365.579,-76.487C358.838,-76.487 354.027,-75.373 351.146,-73.144C348.265,-70.915 346.824,-68.306 346.824,-65.316C346.824,-63.413 347.422,-61.701 348.618,-60.179C349.814,-58.602 351.69,-57.298 354.245,-56.265C355.712,-55.721 360.034,-54.471 367.21,-52.514C377.593,-49.741 384.837,-47.472 388.941,-45.705C393.045,-43.938 396.266,-41.369 398.604,-37.999C400.941,-34.629 402.11,-30.443 402.11,-25.441C402.11,-20.549 400.683,-15.942 397.829,-11.62C394.975,-7.298 390.857,-3.955 385.476,-1.59C380.094,0.775 374.005,1.957 367.21,1.957C355.957,1.957 347.381,-0.381 341.483,-5.056C335.585,-9.731 331.82,-16.662 330.189,-25.849Z" style="fill:rgb(51,51,51);fill-rule:nonzero;"/>
                    <path d="M476.814,0L476.814,-12.721C470.073,-2.936 460.913,1.957 449.334,1.957C444.224,1.957 439.454,0.979 435.024,-0.979C430.593,-2.936 427.304,-5.395 425.157,-8.358C423.01,-11.321 421.501,-14.95 420.631,-19.244C420.033,-22.125 419.734,-26.692 419.734,-32.943L419.734,-86.599L434.412,-86.599L434.412,-38.57C434.412,-30.905 434.711,-25.74 435.309,-23.077C436.233,-19.217 438.19,-16.186 441.18,-13.985C444.17,-11.783 447.867,-10.682 452.27,-10.682C456.673,-10.682 460.805,-11.81 464.664,-14.066C468.524,-16.322 471.256,-19.394 472.86,-23.281C474.463,-27.167 475.265,-32.807 475.265,-40.201L475.265,-86.599L489.943,-86.599L489.943,0L476.814,0Z" style="fill:rgb(51,51,51);fill-rule:nonzero;"/>
                    <path d="M512.923,0L512.923,-86.599L526.133,-86.599L526.133,-73.47C529.503,-79.613 532.615,-83.663 535.469,-85.62C538.323,-87.577 541.463,-88.556 544.888,-88.556C549.835,-88.556 554.863,-86.979 559.973,-83.826L554.917,-70.208C551.33,-72.329 547.742,-73.389 544.154,-73.389C540.946,-73.389 538.065,-72.424 535.51,-70.494C532.955,-68.564 531.134,-65.887 530.047,-62.462C528.416,-57.243 527.601,-51.535 527.601,-45.338L527.601,0L512.923,0Z" style="fill:rgb(51,51,51);fill-rule:nonzero;"/>
                    <path d="M628.369,-27.888L643.536,-26.012C641.144,-17.151 636.713,-10.274 630.244,-5.382C623.775,-0.489 615.512,1.957 605.455,1.957C592.789,1.957 582.746,-1.943 575.325,-9.744C567.905,-17.545 564.195,-28.486 564.195,-42.565C564.195,-57.134 567.946,-68.442 575.448,-76.487C582.95,-84.533 592.68,-88.556 604.64,-88.556C616.219,-88.556 625.678,-84.614 633.017,-76.732C640.356,-68.849 644.025,-57.76 644.025,-43.462C644.025,-42.593 643.998,-41.288 643.944,-39.548L579.362,-39.548C579.905,-30.035 582.596,-22.75 587.434,-17.695C592.273,-12.639 598.307,-10.111 605.537,-10.111C610.919,-10.111 615.512,-11.525 619.318,-14.352C623.123,-17.178 626.14,-21.69 628.369,-27.888ZM580.177,-51.617L628.532,-51.617C627.88,-58.901 626.031,-64.365 622.987,-68.007C618.312,-73.66 612.251,-76.487 604.803,-76.487C598.062,-76.487 592.395,-74.231 587.801,-69.719C583.208,-65.207 580.666,-59.173 580.177,-51.617Z" style="fill:rgb(51,51,51);fill-rule:nonzero;"/>
                    <path d="M662.113,0L662.113,-86.599L675.241,-86.599L675.241,-74.449C677.959,-78.689 681.574,-82.1 686.086,-84.682C690.598,-87.265 695.736,-88.556 701.498,-88.556C707.913,-88.556 713.172,-87.224 717.276,-84.56C721.381,-81.896 724.276,-78.173 725.961,-73.389C732.81,-83.5 741.726,-88.556 752.707,-88.556C761.296,-88.556 767.901,-86.177 772.522,-81.421C777.143,-76.664 779.453,-69.339 779.453,-59.445L779.453,0L764.857,0L764.857,-54.552C764.857,-60.423 764.381,-64.65 763.43,-67.232C762.478,-69.814 760.752,-71.894 758.252,-73.47C755.751,-75.047 752.816,-75.835 749.445,-75.835C743.357,-75.835 738.301,-73.81 734.278,-69.76C730.255,-65.71 728.244,-59.227 728.244,-50.312L728.244,0L713.566,0L713.566,-56.265C713.566,-62.788 712.37,-67.681 709.978,-70.942C707.586,-74.204 703.672,-75.835 698.236,-75.835C694.105,-75.835 690.286,-74.748 686.779,-72.573C683.273,-70.399 680.732,-67.219 679.155,-63.033C677.579,-58.847 676.79,-52.813 676.79,-44.93L676.79,0L662.113,0Z" style="fill:rgb(51,51,51);fill-rule:nonzero;"/>
                    <path d="M859.396,-27.888L874.563,-26.012C872.171,-17.151 867.74,-10.274 861.271,-5.382C854.802,-0.489 846.539,1.957 836.482,1.957C823.816,1.957 813.772,-1.943 806.352,-9.744C798.932,-17.545 795.221,-28.486 795.221,-42.565C795.221,-57.134 798.972,-68.442 806.474,-76.487C813.976,-84.533 823.707,-88.556 835.667,-88.556C847.246,-88.556 856.705,-84.614 864.044,-76.732C871.382,-68.849 875.052,-57.76 875.052,-43.462C875.052,-42.593 875.025,-41.288 874.97,-39.548L810.388,-39.548C810.932,-30.035 813.623,-22.75 818.461,-17.695C823.299,-12.639 829.333,-10.111 836.564,-10.111C841.945,-10.111 846.539,-11.525 850.344,-14.352C854.15,-17.178 857.167,-21.69 859.396,-27.888ZM811.204,-51.617L859.559,-51.617C858.906,-58.901 857.058,-64.365 854.014,-68.007C849.339,-73.66 843.277,-76.487 835.83,-76.487C829.089,-76.487 823.422,-74.231 818.828,-69.719C814.234,-65.207 811.693,-59.173 811.204,-51.617Z" style="fill:rgb(51,51,51);fill-rule:nonzero;"/>
                    <path d="M893.139,0L893.139,-86.599L906.349,-86.599L906.349,-74.286C912.71,-83.799 921.897,-88.556 933.911,-88.556C939.13,-88.556 943.927,-87.618 948.303,-85.742C952.679,-83.867 955.955,-81.407 958.129,-78.363C960.304,-75.319 961.826,-71.703 962.696,-67.518C963.239,-64.799 963.511,-60.043 963.511,-53.248L963.511,0L948.833,0L948.833,-52.677C948.833,-58.657 948.262,-63.128 947.121,-66.091C945.979,-69.053 943.954,-71.418 941.046,-73.185C938.137,-74.952 934.726,-75.835 930.812,-75.835C924.561,-75.835 919.165,-73.851 914.626,-69.882C910.087,-65.914 907.817,-58.385 907.817,-47.295L907.817,0L893.139,0Z" style="fill:rgb(51,51,51);fill-rule:nonzero;"/>
                    <path d="M1018.21,-13.128L1020.33,-0.163C1016.2,0.707 1012.5,1.142 1009.24,1.142C1003.91,1.142 999.782,0.299 996.847,-1.386C993.911,-3.071 991.846,-5.287 990.65,-8.032C989.454,-10.777 988.856,-16.553 988.856,-25.36L988.856,-75.183L978.092,-75.183L978.092,-86.599L988.856,-86.599L988.856,-108.044L1003.45,-116.851L1003.45,-86.599L1018.21,-86.599L1018.21,-75.183L1003.45,-75.183L1003.45,-24.544C1003.45,-20.359 1003.71,-17.668 1004.23,-16.472C1004.74,-15.276 1005.59,-14.324 1006.75,-13.618C1007.92,-12.911 1009.6,-12.558 1011.77,-12.558C1013.4,-12.558 1015.55,-12.748 1018.21,-13.128Z" style="fill:rgb(51,51,51);fill-rule:nonzero;"/>
                    <path d="M1026.27,-25.849L1040.78,-28.132C1041.6,-22.316 1043.87,-17.858 1047.59,-14.759C1051.31,-11.661 1056.52,-10.111 1063.2,-10.111C1069.94,-10.111 1074.95,-11.484 1078.21,-14.229C1081.47,-16.975 1083.1,-20.195 1083.1,-23.892C1083.1,-27.208 1081.66,-29.818 1078.78,-31.72C1076.77,-33.025 1071.77,-34.683 1063.78,-36.694C1053.01,-39.412 1045.55,-41.764 1041.39,-43.748C1037.23,-45.732 1034.08,-48.477 1031.93,-51.984C1029.79,-55.49 1028.71,-59.363 1028.71,-63.604C1028.71,-67.463 1029.6,-71.038 1031.36,-74.326C1033.13,-77.615 1035.53,-80.347 1038.58,-82.521C1040.86,-84.207 1043.97,-85.634 1047.91,-86.802C1051.86,-87.971 1056.08,-88.556 1060.6,-88.556C1067.39,-88.556 1073.36,-87.577 1078.49,-85.62C1083.63,-83.663 1087.42,-81.013 1089.87,-77.67C1092.32,-74.326 1094,-69.855 1094.92,-64.256L1080.57,-62.299C1079.92,-66.757 1078.03,-70.236 1074.91,-72.736C1071.78,-75.237 1067.36,-76.487 1061.65,-76.487C1054.91,-76.487 1050.1,-75.373 1047.22,-73.144C1044.34,-70.915 1042.9,-68.306 1042.9,-65.316C1042.9,-63.413 1043.5,-61.701 1044.69,-60.179C1045.89,-58.602 1047.77,-57.298 1050.32,-56.265C1051.79,-55.721 1056.11,-54.471 1063.29,-52.514C1073.67,-49.741 1080.91,-47.472 1085.02,-45.705C1089.12,-43.938 1092.34,-41.369 1094.68,-37.999C1097.02,-34.629 1098.19,-30.443 1098.19,-25.441C1098.19,-20.549 1096.76,-15.942 1093.91,-11.62C1091.05,-7.298 1086.93,-3.955 1081.55,-1.59C1076.17,0.775 1070.08,1.957 1063.29,1.957C1052.03,1.957 1043.46,-0.381 1037.56,-5.056C1031.66,-9.731 1027.9,-16.662 1026.27,-25.849Z" style="fill:rgb(51,51,51);fill-rule:nonzero;"/>
                </g>
            </g>
            <g transform="matrix(1.03862,0,0,0.735484,-166.683,287.639)">
                <g transform="matrix(1.02317,-0,-0,1,1430.43,1129)">
                    <path d="M548.01,351.32L585.51,370.07L548.01,388.82L548.01,351.32Z" style="fill:rgb(0,100,168);"/>
                    <path d="M369.724,370.07L555.51,370.07" style="fill:none;stroke:rgb(0,100,168);stroke-width:6.25px;stroke-linecap:square;stroke-miterlimit:1.5;"/>
                </g>
            </g>
            <g transform="matrix(1.02917,0,0,0.735484,732.393,420.761)">
                <g transform="matrix(1.03257,-0,-0,1,569.979,948)">
                    <path d="M1265.76,449.186L1303.26,467.949L1265.75,486.686L1265.76,449.186Z" style="fill:rgb(0,100,168);"/>
                    <path d="M1085.47,370.07L1176.17,370.07L1176.19,467.907C1176.19,467.907 1235.69,467.927 1273.26,467.939" style="fill:none;stroke:rgb(0,100,168);stroke-width:6.25px;stroke-linecap:square;stroke-linejoin:miter;stroke-miterlimit:1.5;"/>
                </g>
            </g>
            <g transform="matrix(6.23567e-17,0.704804,-1.06269,4.50354e-17,3607.37,246.321)">
                <g transform="matrix(6.38978e-17,-1,1.04353,6.12323e-17,1236.77,2153.37)">
                    <path d="M606.142,583.922L587.392,621.422L568.642,583.922L606.142,583.922Z" style="fill:rgb(0,100,168);"/>
                    <path d="M835.491,433.035L835.491,527.497L587.392,527.497L587.392,591.422" style="fill:none;stroke:rgb(0,100,168);stroke-width:6.25px;stroke-linecap:square;stroke-linejoin:miter;stroke-miterlimit:1.5;"/>
                </g>
            </g>
            <g transform="matrix(-5.99561e-17,0.704804,1.06269,4.6751e-17,806.242,246.321)">
                <g transform="matrix(-6.63319e-17,1,1.04353,5.8875e-17,1236.77,482.509)">
                    <path d="M1102.22,583.922L1083.47,621.422L1064.72,583.922L1102.22,583.922Z" style="fill:rgb(0,100,168);"/>
                    <path d="M835.374,433.035L835.374,527.497L1083.47,527.497L1083.47,591.422" style="fill:none;stroke:rgb(0,100,168);stroke-width:6.25px;stroke-linecap:square;stroke-linejoin:miter;stroke-miterlimit:1.5;"/>
                </g>
            </g>
            <g transform="matrix(1.02917,-8.01064e-19,1.18427e-18,-0.735484,732.393,2359.6)">
                <g transform="matrix(1.03257,-1.12464e-18,1.1507e-18,-1,569.979,1688.14)">
                    <path d="M1265.75,253.453L1303.26,272.191L1265.76,290.953L1265.75,253.453Z" style="fill:rgb(0,100,168);"/>
                    <path d="M1085.47,370.07L1176.17,370.07L1176.19,272.232C1176.19,272.232 1235.69,272.213 1273.26,272.201" style="fill:none;stroke:rgb(0,100,168);stroke-width:6.25px;stroke-linecap:square;stroke-linejoin:miter;stroke-miterlimit:1.5;"/>
                </g>
            </g>
            <g transform="matrix(1.40533e-16,0.457917,-1.06269,-4.83852e-18,3799.92,407.856)">
                <g transform="matrix(-1.05664e-17,-1,1.60615,2.12402e-16,1550.81,2334.56)">
                    <path d="M854.241,260.54L835.491,298.04L816.741,260.54L854.241,260.54Z" style="fill:rgb(0,100,168);"/>
                    <path d="M835.491,160.577L835.491,268.04" style="fill:none;stroke:rgb(0,100,168);stroke-width:6.25px;stroke-linecap:square;stroke-miterlimit:1.5;"/>
                </g>
            </g>
        </g>
    </g>
</svg>
