<?xml version="1.0" encoding="UTF-8" standalone="no"?>
<!DOCTYPE svg PUBLIC "-//W3C//DTD SVG 1.1//EN" "http://www.w3.org/Graphics/SVG/1.1/DTD/svg11.dtd">
<svg width="100%" height="100%" viewBox="0 0 3249 1359" version="1.1" xmlns="http://www.w3.org/2000/svg" xmlns:xlink="http://www.w3.org/1999/xlink" xml:space="preserve" xmlns:serif="http://www.serif.com/" style="fill-rule:evenodd;clip-rule:evenodd;stroke-linecap:round;stroke-linejoin:round;stroke-miterlimit:1.5;">
    <g id="Battery-Cell" serif:id="Battery Cell" transform="matrix(1,0,0,1,-73.0254,82.8064)">
        <g transform="matrix(1,0,0,1,-8.11139,702.431)">
            <path d="M516.59,237.095C516.272,296.397 441.696,362.769 316.857,364.052C181.697,365.442 112.932,288.782 113.251,234.932C113.649,167.711 105.137,-464.792 105.137,-464.792L536.059,-464.792C536.059,-464.792 516.916,176.337 516.59,237.095Z" style="fill:rgb(18,126,217);stroke:black;stroke-width:2.08px;"/>
        </g>
        <path d="M97.026,237.636C97.355,170.415 195.91,112.351 312.487,111.22C439.893,109.983 527.782,176.877 527.947,237.636C528.17,319.652 441.696,362.769 316.857,364.052C181.697,365.442 96.708,302.844 97.026,237.636Z" style="fill:rgb(19,93,168);stroke:black;stroke-width:2.08px;"/>
        <g transform="matrix(0.77033,0,0,0.751911,70.9575,44.8944)">
            <path d="M97.026,237.636C97.355,170.415 195.91,112.351 312.487,111.22C439.893,109.983 527.782,176.877 527.947,237.636C528.17,319.652 441.696,362.769 316.857,364.052C181.697,365.442 96.708,302.844 97.026,237.636Z" style="fill:rgb(174,175,170);stroke:black;stroke-width:2.74px;"/>
        </g>
        <g transform="matrix(0.450298,-1.11022e-16,1.11022e-16,0.446076,173.938,118.384)">
            <path d="M97.026,237.636C97.355,170.415 195.91,112.351 312.487,111.22C439.893,109.983 527.782,176.877 527.947,237.636C528.17,319.652 441.696,362.769 316.857,364.052C181.697,365.442 96.708,302.844 97.026,237.636Z" style="fill:rgb(112,105,92);stroke:black;stroke-width:4.65px;"/>
        </g>
        <path d="M240.967,260.334C240.967,260.334 245.254,253.371 245.951,244.595C246.452,238.287 241.443,233.114 235.506,231.752C227.836,229.991 222.403,233.35 219.322,233.838L220.248,237.962L223.605,244.857L230.228,253.386L240.028,261.371L240.967,260.334Z" style="fill:rgb(62,62,62);"/>
        <path d="M240.967,260.334C240.967,260.334 245.254,253.371 245.951,244.595C246.452,238.287 241.443,233.114 235.506,231.752C227.836,229.991 222.403,233.35 219.322,233.838" style="fill:none;stroke:black;stroke-width:2.08px;"/>
        <g transform="matrix(0.512175,-0.858881,0.858881,0.512175,11.4891,348.566)">
            <path d="M240.446,261.388C240.446,261.388 242.417,258.679 243.488,255.726C244.39,253.24 245.023,249.835 244.298,245.721C242.741,236.896 235.436,228.703 228.31,226.452C220.487,223.982 216.566,225.177 213.484,225.665L227.468,246.316L240.446,261.388Z" style="fill:rgb(66,66,66);"/>
        </g>
        <g transform="matrix(0.512175,-0.858881,0.858881,0.512175,11.4891,348.566)">
            <path d="M240.446,261.388C240.446,261.388 242.417,258.679 243.488,255.726C244.39,253.24 245.023,249.835 244.298,245.721C242.741,236.896 235.436,228.703 228.31,226.452C220.487,223.982 216.566,225.177 213.484,225.665" style="fill:none;stroke:black;stroke-width:2.08px;"/>
        </g>
        <path d="M395.162,227.349C394.153,246.93 376.697,259.725 349.429,265.364C348.87,265.09 348.281,264.833 347.658,264.596C339.28,261.413 328.502,263.491 322.92,268.459L322.897,268.479C320.503,268.581 318.062,268.644 315.58,268.667C283.647,268.965 259.138,260.677 245.308,248.96C245.602,247.577 245.83,246.113 245.951,244.595C246.452,238.287 241.443,233.114 235.506,231.752C234.78,231.585 234.074,231.464 233.387,231.383C232.891,229.416 232.643,227.425 232.654,225.426C232.778,202.433 269.956,182.572 313.931,182.186C342.753,181.932 366.215,190.059 380.394,201.091C379.878,205.834 379.048,211.598 382.032,215.871C385.875,221.371 390.811,223.503 395.162,227.349Z" style="fill:rgb(138,135,130);stroke:black;stroke-width:2.08px;"/>
        <g transform="matrix(0.450298,-1.11022e-16,1.11022e-16,0.446076,173.938,118.384)">
            <path d="M97.026,237.636C97.355,170.415 195.91,112.351 312.487,111.22C439.893,109.983 527.782,176.877 527.947,237.636C528.17,319.652 441.696,362.769 316.857,364.052C181.697,365.442 96.708,302.844 97.026,237.636Z" style="fill:none;stroke:black;stroke-width:4.65px;"/>
        </g>
    </g>
    <g id="Crushed-Cell" serif:id="Crushed Cell" transform="matrix(1,0,0,1,5.41297,188.764)">
        <g id="Separator-Foil" serif:id="Separator Foil" transform="matrix(-0.203586,0.979057,-0.979057,-0.203586,1654.91,-1448.04)">
            <path d="M1751.92,187.921C1749.32,204.224 1756.67,267.903 1758.81,292.166C1760.03,306.032 1762.41,323.24 1764.78,333.496C1766.42,340.586 1767.94,348.519 1773.05,353.702C1778.33,359.06 1789.73,361.279 1796.47,365.642C1802.67,369.659 1808.6,374.308 1813.46,379.878C1818.66,385.848 1820.29,397.047 1827.69,401.462C1836.04,406.437 1851.57,410.57 1863.51,409.728C1875.45,408.886 1889.31,403.069 1899.33,396.41C1909.35,389.756 1917.54,380.119 1923.67,369.775C1930.25,358.677 1938.29,341.609 1938.83,329.822C1939.33,318.832 1927.57,308.009 1926.89,299.054C1926.27,290.994 1932.63,282.675 1934.69,276.093C1936.41,270.636 1939.29,259.561 1939.29,259.561C1939.29,259.561 1945.48,265.148 1947.55,264.612C1949.62,264.076 1951.68,259.101 1951.68,256.346C1951.68,253.591 1949.62,248.692 1947.55,248.08C1945.48,247.468 1939.29,252.672 1939.29,252.672C1939.29,252.672 1928.27,244.406 1921.83,244.406C1914.26,244.406 1901.93,252.519 1893.82,252.672C1886.51,252.81 1878.36,241.957 1873.16,245.325C1867.95,248.692 1865.35,267.061 1862.59,272.878C1861.24,275.73 1859.53,279.843 1856.62,280.226C1853.72,280.609 1848.97,276.629 1845.14,275.174C1841.39,273.747 1834.73,272.955 1833.66,271.501C1832.59,270.046 1838.71,266.449 1838.71,266.449C1838.71,266.449 1823.87,237.059 1816.67,226.956C1810.89,218.844 1802.59,211.265 1795.55,205.831C1789.2,200.935 1781.69,197.336 1774.42,194.351C1767.21,191.388 1753.15,180.218 1751.92,187.921Z" style="fill:rgb(245,252,252);stroke:black;stroke-width:2.08px;stroke-linecap:square;"/>
            <path d="M1833.66,382.174C1832.9,384.853 1835.58,387.838 1835.96,390.44C1836.32,392.863 1834.2,396.084 1835.96,397.788C1838.41,400.16 1845.37,403.834 1850.65,404.676C1855.93,405.518 1862.23,404.595 1867.64,402.839C1873.08,401.079 1878.9,397.175 1883.26,394.114C1887.16,391.375 1890.68,387.379 1893.82,384.47C1896.6,381.894 1899.24,379.159 1902.09,376.663C1905.15,373.985 1910.35,371.076 1912.19,368.397C1913.67,366.236 1913.11,360.59 1913.11,360.59C1913.11,360.59 1906.08,364.584 1902.55,366.56C1898.72,368.703 1893.82,371.153 1890.15,373.449C1886.8,375.542 1884.25,379.088 1880.5,380.337C1876.14,381.791 1868.72,382.71 1863.97,382.174C1859.68,381.689 1855.93,378.424 1852.03,377.123C1848.3,375.878 1843.61,373.525 1840.55,374.367C1837.49,375.209 1834.43,379.495 1833.66,382.174Z" style="fill:rgb(245,252,252);stroke:black;stroke-width:2.08px;stroke-linecap:square;"/>
            <path d="M1762.02,226.956C1760.11,228.486 1761.34,243.947 1762.02,251.295C1762.65,257.99 1764.09,264.918 1766.16,271.041C1768.17,277.009 1772.05,283.67 1774.42,288.033C1776.17,291.24 1780.39,297.217 1780.39,297.217C1780.39,297.217 1786.75,288.547 1787.28,283.44C1787.82,278.312 1782,269.051 1783.61,266.449C1785.21,263.847 1792.5,268.417 1796.92,267.827C1801.52,267.214 1811.16,262.775 1811.16,262.775C1811.16,262.775 1796.31,251.983 1790.04,248.539C1784.85,245.695 1778.17,245.707 1773.5,242.11C1768.84,238.513 1763.94,225.425 1762.02,226.956Z" style="fill:rgb(164,185,187);stroke:black;stroke-width:2.08px;stroke-linecap:square;"/>
            <path d="M1811.1,309.364C1811.1,309.364 1831.87,312.656 1841.19,293.846" style="fill:none;stroke:black;stroke-width:2.08px;stroke-linecap:square;"/>
            <path d="M1836.73,357.095C1836.73,357.095 1898.17,363.913 1907.5,345.103" style="fill:none;stroke:black;stroke-width:2.08px;stroke-linecap:square;"/>
            <path d="M1916.43,284.206C1916.43,284.206 1877.95,287.968 1887.28,269.158" style="fill:none;stroke:black;stroke-width:2.08px;stroke-linecap:square;"/>
        </g>
        <g id="Crushed-Battery-Cell" serif:id="Crushed Battery Cell">
            <g transform="matrix(0.000582731,-1,1,0.000582731,1364.99,810.208)">
                <path d="M191.908,-90.446C191.59,-31.144 213.132,4.975 213.132,4.975C213.132,4.975 105.047,-17.677 105.366,-71.527C105.764,-138.748 105.137,-464.792 105.137,-464.792L209.136,-366.767L200.379,-243.399L174.509,-232.938L196.489,-188.608C196.489,-188.608 192.016,-110.62 191.908,-90.446Z" style="fill:rgb(18,126,217);stroke:black;stroke-width:2.08px;"/>
            </g>
            <g transform="matrix(0.0185596,-0.999828,0.999828,0.0185596,662.02,797.388)">
                <path d="M473.424,165.471L280.595,347.34C200.51,344.617 96.761,291.869 97.026,237.636C97.355,170.415 195.91,112.351 312.487,111.22C381.375,110.551 438.711,129.801 476.848,157.258L473.424,165.471Z" style="fill:rgb(19,93,168);stroke:black;stroke-width:2.08px;"/>
                <g transform="matrix(0.77033,0,0,0.751911,70.9575,44.8944)">
                    <path d="M448.945,341.037C370.931,325.901 403.152,354.771 352.003,366.082C219.879,395.299 96.708,302.844 97.026,237.636C97.355,170.415 195.91,112.351 312.487,111.22C406.398,110.308 478.839,146.413 510.47,189.829L448.945,341.037Z" style="fill:rgb(174,175,170);stroke:black;stroke-width:2.74px;"/>
                </g>
                <g transform="matrix(0.450298,-1.11022e-16,1.11022e-16,0.446076,173.938,118.384)">
                    <path d="M97.026,237.636C97.355,170.415 195.91,112.351 312.487,111.22C439.893,109.983 527.782,176.877 527.947,237.636C528.17,319.652 441.696,362.769 316.857,364.052C181.697,365.442 96.708,302.844 97.026,237.636Z" style="fill:rgb(112,105,92);stroke:black;stroke-width:4.65px;"/>
                </g>
                <path d="M240.967,260.334C240.967,260.334 245.254,253.371 245.951,244.595C246.452,238.287 241.443,233.114 235.506,231.752C227.836,229.991 222.403,233.35 219.322,233.838L220.248,237.962L223.605,244.857L230.228,253.386L240.028,261.371L240.967,260.334Z" style="fill:rgb(62,62,62);"/>
                <path d="M240.967,260.334C240.967,260.334 245.254,253.371 245.951,244.595C246.452,238.287 241.443,233.114 235.506,231.752C227.836,229.991 222.403,233.35 219.322,233.838" style="fill:none;stroke:black;stroke-width:2.08px;"/>
                <g transform="matrix(0.512175,-0.858881,0.858881,0.512175,11.4891,348.566)">
                    <path d="M240.446,261.388C240.446,261.388 242.417,258.679 243.488,255.726C244.39,253.24 245.023,249.835 244.298,245.721C242.741,236.896 235.436,228.703 228.31,226.452C220.487,223.982 216.566,225.177 213.484,225.665L227.468,246.316L240.446,261.388Z" style="fill:rgb(66,66,66);"/>
                </g>
                <g transform="matrix(0.512175,-0.858881,0.858881,0.512175,11.4891,348.566)">
                    <path d="M240.446,261.388C240.446,261.388 242.417,258.679 243.488,255.726C244.39,253.24 245.023,249.835 244.298,245.721C242.741,236.896 235.436,228.703 228.31,226.452C220.487,223.982 216.566,225.177 213.484,225.665" style="fill:none;stroke:black;stroke-width:2.08px;"/>
                </g>
                <path d="M395.162,227.349C394.153,246.93 376.697,259.725 349.429,265.364C348.87,265.09 348.281,264.833 347.658,264.596C339.28,261.413 328.502,263.491 322.92,268.459L322.897,268.479C320.503,268.581 318.062,268.644 315.58,268.667C283.647,268.965 259.138,260.677 245.308,248.96C245.602,247.577 245.83,246.113 245.951,244.595C246.452,238.287 241.443,233.114 235.506,231.752C234.78,231.585 234.074,231.464 233.387,231.383C232.891,229.416 232.643,227.425 232.654,225.426C232.778,202.433 269.956,182.572 313.931,182.186C342.753,181.932 366.215,190.059 380.394,201.091C379.878,205.834 379.048,211.598 382.032,215.871C385.875,221.371 390.811,223.503 395.162,227.349Z" style="fill:rgb(138,135,130);stroke:black;stroke-width:2.08px;"/>
                <g transform="matrix(0.450298,-1.11022e-16,1.11022e-16,0.446076,173.938,118.384)">
                    <path d="M97.026,237.636C97.355,170.415 195.91,112.351 312.487,111.22C439.893,109.983 527.782,176.877 527.947,237.636C528.17,319.652 441.696,362.769 316.857,364.052C181.697,365.442 96.708,302.844 97.026,237.636Z" style="fill:none;stroke:black;stroke-width:4.65px;"/>
                </g>
            </g>
        </g>
        <g id="Alumiunium-Foil" serif:id="Alumiunium Foil">
            <g transform="matrix(0.883644,0.468159,-0.468159,0.883644,58.3854,-440.56)">
                <path d="M1582.86,428.228C1595.37,441.755 1630.53,472.805 1649.42,473.08C1667.7,473.346 1717.42,447.503 1687.44,395.295C1687.31,395.061 1695.84,385.076 1695.84,385.076C1695.84,385.076 1712.22,383.249 1713.06,378.985C1713.61,376.212 1701.72,359.662 1701.72,359.662C1701.72,359.662 1638.56,376.718 1618.55,379.615C1603.11,381.85 1582.86,384.026 1582.86,384.026C1582.86,384.026 1590.84,387.113 1590.84,388.409C1590.84,389.704 1587.27,392.307 1580.71,392.571C1576.75,392.73 1568.84,397.407 1568.84,397.407C1568.84,397.407 1563.62,407.425 1582.86,428.228Z" style="fill:rgb(235,235,234);stroke:black;stroke-width:2.08px;stroke-linecap:square;"/>
                <path d="M1561.02,407.729C1563.96,413.218 1582.86,428.228 1582.86,428.228L1581.68,412.938L1578.16,414.282L1578.32,407.393L1572.44,408.569L1575.3,400.84L1565.22,395.295C1565.22,395.295 1558.95,403.873 1561.02,407.729Z" style="fill:rgb(205,205,205);stroke:black;stroke-width:2.08px;stroke-linecap:square;"/>
                <g transform="matrix(1,0,0,1,-133.315,133.771)">
                    <path d="M1783.05,338.386C1762.98,304.119 1751.77,319.469 1720.73,284.079" style="fill:none;stroke:black;stroke-width:2.08px;stroke-linecap:square;"/>
                </g>
                <g transform="matrix(1.2199,0,0,0.397776,-491.812,316.357)">
                    <path d="M1783.33,340.863C1760.26,284.428 1746.92,327.309 1720.73,284.079" style="fill:none;stroke:black;stroke-width:2.3px;stroke-linecap:square;"/>
                </g>
                <g transform="matrix(1.2199,0,0,0.397776,-504.609,290.763)">
                    <path d="M1764.11,288.146C1753.39,308.218 1753.45,307.574 1746.03,328.416" style="fill:none;stroke:black;stroke-width:2.3px;stroke-linecap:square;"/>
                </g>
                <g transform="matrix(1.2199,0,0,0.397776,-526.662,270.546)">
                    <path d="M1782.19,289.768C1765.91,293.62 1753.45,307.574 1746.03,328.416" style="fill:none;stroke:black;stroke-width:2.3px;stroke-linecap:square;"/>
                </g>
                <g transform="matrix(1.2199,0,0,0.397776,-526.662,270.546)">
                    <path d="M1782.19,289.768C1770.49,295.242 1777.26,314.333 1780.6,321.928" style="fill:none;stroke:black;stroke-width:2.3px;stroke-linecap:square;"/>
                </g>
                <g transform="matrix(1.2199,0,0,0.397776,-526.662,270.546)">
                    <path d="M1797.44,278.143C1804.79,314.436 1783.34,354.884 1780.6,369.509" style="fill:none;stroke:black;stroke-width:2.3px;stroke-linecap:square;"/>
                </g>
                <g transform="matrix(1.2199,0,0,0.397776,-526.662,270.546)">
                    <path d="M1797.44,278.143C1807.52,304.434 1820.28,235.932 1823.18,244.609" style="fill:none;stroke:black;stroke-width:2.3px;stroke-linecap:square;"/>
                </g>
            </g>
            <g transform="matrix(1.1992,-0.474848,0.474848,1.1992,-919.341,859.813)">
                <path d="M1568.11,383.124L1607.43,366.997C1607.43,366.997 1701.81,359.974 1701.75,359.495C1698.89,335.525 1722.38,312.988 1722.38,312.988C1722.38,312.988 1724.05,298.91 1720.69,294.61C1718.38,291.644 1709.44,293.673 1709.44,293.673L1710.69,281.821L1586.12,331.828L1580.8,343.368L1568.11,383.124Z" style="fill:rgb(205,205,205);stroke:black;stroke-width:1.62px;stroke-linecap:square;"/>
                <path d="M1580.8,343.368L1585.14,345.745L1707.32,295.937L1715.36,282.855L1700.12,249.13L1581.54,306.019L1580.7,312.14L1583.22,316.22L1580.46,317.54L1583.7,320.901L1579.14,322.221L1581.18,324.622L1579.38,328.342L1583.46,331.272L1581.42,334.103L1576.5,335.183L1577.7,338.064L1581.06,339.384L1580.8,343.368Z" style="fill:rgb(235,235,234);stroke:black;stroke-width:1.62px;stroke-linecap:square;"/>
                <g transform="matrix(1,0,0,1,-335.227,239.723)">
                    <path d="M1931.93,102.283C1965.45,102.091 1978.75,111.39 1991.7,110.71" style="fill:none;stroke:black;stroke-width:1.62px;stroke-linecap:square;"/>
                </g>
                <g transform="matrix(1,0,0,1,-335.227,239.723)">
                    <path d="M1931.93,102.283C1924.49,109.388 1922.49,111.198 1919.94,115.639" style="fill:none;stroke:black;stroke-width:1.62px;stroke-linecap:square;"/>
                </g>
                <g transform="matrix(1,0,0,1,-335.227,239.723)">
                    <path d="M2037.48,80.007C2024.02,85 2027.27,106.376 2017.5,108.961" style="fill:none;stroke:black;stroke-width:1.62px;stroke-linecap:square;"/>
                </g>
                <g transform="matrix(1,0,0,1,-335.227,239.723)">
                    <path d="M2037.48,80.007C2048.28,76.103 2061.07,56.449 2052.38,53.464" style="fill:none;stroke:black;stroke-width:1.62px;stroke-linecap:square;"/>
                </g>
                <g transform="matrix(1,0,0,1,-335.227,239.723)">
                    <path d="M1997.95,92.105C2008.75,88.201 2019.32,93.267 2020.11,89.976" style="fill:none;stroke:black;stroke-width:1.62px;stroke-linecap:square;"/>
                </g>
            </g>
            <g transform="matrix(0.85845,0.512897,-0.512897,0.85845,-247.086,-658.203)">
                <path d="M1909.24,319.454C1909.24,319.454 1903.78,313.461 1905.34,310.657C1907.42,306.912 1921.75,296.983 1921.75,296.983C1921.75,296.983 1922.95,289.216 1925.07,286.044C1928.65,280.664 1940.04,273.484 1943.23,264.704C1947.27,253.602 1949,232.414 1949.29,219.432C1949.54,208.467 1944.99,186.81 1944.99,186.81L1881.11,207.516C1881.11,207.516 1871.44,240.431 1870.57,250.491C1870.04,256.524 1875.98,261.822 1875.84,267.877C1875.68,274.909 1868.77,285.295 1869.59,292.685C1870.4,300.076 1881.67,307.758 1880.72,312.22C1879.78,316.681 1863.92,319.454 1863.92,319.454L1876.04,331.949L1878.66,323.454C1878.66,323.454 1885.89,328.567 1889.9,328.042C1895,327.376 1909.24,319.454 1909.24,319.454Z" style="fill:rgb(235,235,234);stroke:black;stroke-width:2.08px;stroke-linecap:square;"/>
                <path d="M1908.64,319.454C1908.64,319.454 1887.1,309.858 1895.24,302.831C1913.83,286.775 1920.14,270.826 1920.14,270.826L1924.64,286.928C1924.64,286.928 1923.81,293.25 1922.24,295.93C1920.18,299.448 1912.28,308.04 1912.28,308.04L1908.64,319.454Z" style="fill:rgb(205,205,205);stroke:black;stroke-width:2.08px;stroke-linecap:square;"/>
                <g transform="matrix(1,0,0,1,90.9125,93.4324)">
                    <path d="M1815.7,120.865C1827.06,113.287 1830.13,113.221 1845.23,105.798" style="fill:none;stroke:black;stroke-width:2.08px;stroke-linecap:square;"/>
                </g>
                <g transform="matrix(1,0,0,1,90.9125,93.4324)">
                    <path d="M1815.7,120.865C1823.86,123.778 1837.85,130.539 1853.4,124.824" style="fill:none;stroke:black;stroke-width:2.08px;stroke-linecap:square;"/>
                </g>
                <g transform="matrix(1,0,0,1,90.9125,93.4324)">
                    <path d="M1808.62,122.358C1812.03,133.702 1835.76,126.912 1844.3,142.284" style="fill:none;stroke:black;stroke-width:2.08px;stroke-linecap:square;"/>
                </g>
                <g transform="matrix(1,0,0,1,90.9125,93.4324)">
                    <path d="M1818.26,154.308C1831.31,162.873 1829.08,159.817 1846.82,168.677" style="fill:none;stroke:black;stroke-width:2.08px;stroke-linecap:square;"/>
                </g>
                <g transform="matrix(1,0,0,1,90.9125,93.4324)">
                    <path d="M1808.62,164.726C1810.82,168.603 1806.07,177.18 1828.85,177.359" style="fill:none;stroke:black;stroke-width:2.08px;stroke-linecap:square;"/>
                </g>
                <g transform="matrix(1,0,0,1,90.9125,93.4324)">
                    <path d="M1788.31,213.518C1790.5,217.396 1794.09,197.757 1804.88,190.382" style="fill:none;stroke:black;stroke-width:2.08px;stroke-linecap:square;"/>
                </g>
                <path d="M1875.99,266.954L1889.27,247.74L1895.8,244.121L1892.05,242.124L1891.44,237.696L1889.45,229.449L1885.8,225.754L1881.11,231.359L1876.51,240.127L1870.87,247.74C1870.87,247.74 1871.92,254.956 1872.78,258.158C1873.58,261.174 1875.99,266.954 1875.99,266.954Z" style="fill:rgb(205,205,205);stroke:black;stroke-width:2.08px;stroke-linecap:square;"/>
            </g>
            <g transform="matrix(1,0,0,1,-253.687,-50.5352)">
                <path d="M1332.95,494.194C1334.89,491.159 1339.88,486.373 1343.81,486.373C1347.74,486.373 1354.98,491.159 1356.53,494.194C1358.08,497.229 1355.6,502.145 1353.09,504.583C1350.57,507.02 1344.92,508.822 1341.43,508.822C1338.03,508.822 1333.57,507.02 1332.15,504.583C1330.74,502.145 1331.08,497.119 1332.95,494.194Z" style="fill:rgb(205,205,205);stroke:black;stroke-width:2.08px;stroke-linecap:square;"/>
            </g>
        </g>
        <g id="Copper-Foil" serif:id="Copper Foil">
            <g transform="matrix(1.13548,0,0,1.13548,-879.926,165.467)">
                <path d="M1664.44,174.465C1664.44,174.465 1688.63,203.245 1695.38,209.47C1697.78,211.689 1702,210.316 1704.91,211.814C1708.4,213.611 1711.93,218.478 1716.32,220.253C1721.66,222.415 1731.84,223.144 1736.95,224.785C1740.54,225.94 1743.21,229.555 1746.95,230.098C1752.5,230.906 1770.23,229.629 1770.23,229.629L1853.06,191.811C1853.06,191.811 1839.48,183.745 1832.12,184.466C1821.75,185.482 1801.24,198.557 1790.85,197.906C1781.77,197.337 1777.19,184.128 1769.77,180.559C1762.62,177.123 1751.53,179.908 1746.32,176.496C1741.26,173.177 1741.41,165.404 1738.51,160.087C1734.19,152.17 1725.15,134.875 1720.38,128.989C1718.01,126.065 1711.87,126.098 1709.91,124.769C1708.82,124.028 1709.55,120.047 1708.66,121.019C1701.08,129.301 1664.44,174.465 1664.44,174.465Z" style="fill:rgb(210,143,143);stroke:black;stroke-width:1.83px;stroke-linecap:square;"/>
                <path d="M1667.96,178.634C1667.96,178.634 1681.07,171.507 1684.75,172.277C1689.4,173.249 1682.72,195.718 1682.72,195.718L1667.96,178.634Z" style="fill:rgb(137,72,72);stroke:black;stroke-width:1.83px;stroke-linecap:square;"/>
                <g transform="matrix(1,0,0,1,19.9926,-50.4049)">
                    <path d="M1679.61,234.373C1680.05,220.123 1690.71,200.725 1689.76,181.956" style="fill:none;stroke:black;stroke-width:1.83px;stroke-linecap:square;"/>
                </g>
                <g transform="matrix(1,0,0,1,19.9926,-50.4049)">
                    <path d="M1671.64,234.373C1680.51,236.688 1678.32,235.639 1684.71,234.373" style="fill:none;stroke:black;stroke-width:1.83px;stroke-linecap:square;"/>
                </g>
                <g transform="matrix(1,0,0,1,19.9926,-50.4049)">
                    <path d="M1696.95,250.157C1705.83,252.472 1720.66,254.861 1727.85,264.847" style="fill:none;stroke:black;stroke-width:1.83px;stroke-linecap:square;"/>
                </g>
                <g transform="matrix(1,0,0,1,19.9926,-50.4049)">
                    <path d="M1723.99,239.374C1731.15,242.626 1737.07,251.266 1748.94,241.562" style="fill:none;stroke:black;stroke-width:1.83px;stroke-linecap:square;"/>
                </g>
                <g transform="matrix(1,0,0,1,19.9926,-50.4049)">
                    <path d="M1696.95,264.847C1708.02,264.036 1714.73,257.517 1727.85,274.536" style="fill:none;stroke:black;stroke-width:1.83px;stroke-linecap:square;"/>
                </g>
                <g transform="matrix(1,0,0,1,19.9926,-50.4049)">
                    <path d="M1727.85,274.536C1738.91,273.725 1738.64,271.895 1753.94,277.349" style="fill:none;stroke:black;stroke-width:1.83px;stroke-linecap:square;"/>
                </g>
                <g transform="matrix(1,0,0,1,19.9926,-50.4049)">
                    <path d="M1727.85,274.536C1739.07,269.193 1748.48,261.893 1765.66,264.847" style="fill:none;stroke:black;stroke-width:1.83px;stroke-linecap:square;"/>
                </g>
                <g transform="matrix(1,0,0,1,19.9926,-50.4049)">
                    <path d="M1765.66,266.354C1775.64,256.323 1768.33,249.329 1785.2,246.031" style="fill:none;stroke:black;stroke-width:1.83px;stroke-linecap:square;"/>
                </g>
            </g>
            <g transform="matrix(1,0,0,1,-607.672,224.744)">
                <path d="M1668.3,341.779L1706.58,266.504C1706.58,266.504 1711.17,273.452 1719.48,274.892C1734.65,277.517 1776.26,271.773 1776.26,271.773C1776.26,271.773 1773.03,277.509 1781.64,282.849C1788.76,287.267 1792.18,286.29 1792.18,286.29C1792.18,286.29 1781.03,300.934 1789.6,314.25C1789.8,314.569 1770.67,355.652 1770.67,355.652C1770.67,355.652 1750.73,356.094 1741.21,353.609C1728.84,350.382 1708.62,338.267 1696.47,336.295C1687.03,334.763 1668.3,341.779 1668.3,341.779Z" style="fill:rgb(210,143,143);stroke:black;stroke-width:2.08px;stroke-linecap:square;"/>
                <path d="M1668.3,341.779L1690.88,326.617C1690.88,326.617 1717.85,331.187 1728.3,334.897C1737.37,338.118 1746.51,345.436 1753.57,348.877C1759.07,351.557 1770.67,355.544 1770.67,355.544L1759.49,364.04C1759.49,364.04 1729.25,358.018 1718.95,350.167C1711.16,344.24 1706.42,344.683 1690.56,342.747C1683.18,341.848 1668.3,341.779 1668.3,341.779Z" style="fill:rgb(137,72,72);stroke:black;stroke-width:2.08px;stroke-linecap:square;"/>
                <path d="M1715.08,298.511C1733.36,289.515 1747.13,292.779 1762.83,290.342" style="fill:rgb(210,143,143);stroke:black;stroke-width:2.08px;stroke-linecap:square;"/>
                <path d="M1776.38,318.083C1780.46,301.022 1773.8,308.801 1778.96,290.342" style="fill:rgb(210,143,143);stroke:black;stroke-width:2.08px;stroke-linecap:square;"/>
                <path d="M1765.52,350.021C1763.26,342.638 1765.84,341.278 1765.41,335.83" style="fill:rgb(210,143,143);stroke:black;stroke-width:2.08px;stroke-linecap:square;"/>
                <path d="M1691.64,308.727C1702.39,299.946 1710.24,294.176 1711.64,279.159" style="fill:rgb(210,143,143);stroke:black;stroke-width:2.08px;stroke-linecap:square;"/>
                <path d="M1691.64,308.727C1702.39,299.946 1710.24,294.176 1711.64,279.159" style="fill:rgb(210,143,143);stroke:black;stroke-width:2.08px;stroke-linecap:square;"/>
            </g>
            <g transform="matrix(1,0,0,1,-253.687,-50.5352)">
                <path d="M1279.13,541.138L1298.66,550.092L1298.12,540.053L1302.73,534.763L1300.15,527.709L1290.38,532.863L1276.18,525.674L1279.13,541.138Z" style="fill:rgb(210,143,143);stroke:black;stroke-width:2.08px;stroke-linecap:square;"/>
            </g>
        </g>
        <g id="Black-Mass" serif:id="Black Mass">
            <g transform="matrix(1,0,0,1,-253.687,-50.5352)">
                <path d="M1596.66,613.169L1613.55,620.608L1616.2,612.507L1606.92,611.182L1596.66,613.169Z" style="fill:rgb(65,65,65);stroke:black;stroke-width:2.08px;stroke-linecap:square;"/>
            </g>
            <g transform="matrix(1,0,0,1,-253.687,-50.5352)">
                <path d="M1600.91,573.102L1606.43,566.265L1608.29,570.823L1609.05,580.808L1599.17,581.893L1600.91,573.102Z" style="fill:rgb(65,65,65);stroke:black;stroke-width:2.08px;stroke-linecap:square;"/>
            </g>
            <g transform="matrix(1,0,0,1,-446.024,-138.234)">
                <path d="M1592.78,568.518C1593.99,565.914 1606.43,566.265 1606.43,566.265L1616.35,571.448C1616.35,571.448 1612.19,576.914 1609.33,578.654C1606.46,580.395 1599.17,581.893 1599.17,581.893C1599.17,581.893 1591.57,571.123 1592.78,568.518Z" style="fill:rgb(65,65,65);stroke:black;stroke-width:2.08px;stroke-linecap:square;"/>
            </g>
            <g transform="matrix(1,0,0,1,-253.687,-50.5352)">
                <path d="M1272.01,486.373L1276.18,478.551L1284.99,478.551L1289.45,494.194L1280.49,494.194L1272.01,486.373Z" style="stroke:black;stroke-width:2.08px;stroke-linecap:square;"/>
            </g>
            <g transform="matrix(1,0,0,1,-253.687,-50.5352)">
                <path d="M1550.43,642.988L1562.31,650.195L1575.66,641.081L1560.61,633.026L1550.43,642.988Z" style="stroke:black;stroke-width:2.08px;stroke-linecap:square;"/>
            </g>
            <g transform="matrix(1,0,0,1,-253.687,-50.5352)">
                <path d="M1529.88,513.057C1527.86,509.208 1531.36,497.597 1531.36,497.597L1546.62,501.399C1546.62,501.399 1556.48,512.174 1555.95,515.388C1555.42,518.603 1543.44,520.687 1543.44,520.687C1543.44,520.687 1531.89,516.905 1529.88,513.057Z" style="stroke:black;stroke-width:2.08px;stroke-linecap:square;"/>
            </g>
            <g transform="matrix(1,0,0,1,-253.687,-50.5352)">
                <path d="M1452.31,408.714L1442.84,399.218L1455.98,395.963L1465.2,401.807L1452.31,408.714Z" style="fill:rgb(65,65,65);stroke:black;stroke-width:2.08px;stroke-linecap:square;"/>
            </g>
            <g transform="matrix(1,0,0,1,-253.687,-50.5352)">
                <path d="M1381.37,402.338L1375.4,395.963L1382.32,384.432L1391.4,389.858L1387.47,395.963L1396.29,401.807L1388.42,408.714L1378.92,408.714L1381.37,402.338Z" style="fill:rgb(65,65,65);stroke:black;stroke-width:2.08px;stroke-linecap:square;"/>
            </g>
            <g transform="matrix(1,0,0,1,-253.687,-50.5352)">
                <path d="M1573.09,517.941C1574.44,519.496 1577.87,524.904 1581.23,524.215C1585.64,523.311 1598.84,515.027 1599.54,512.515C1600.25,510.003 1589.09,509.704 1585.47,509.142C1582.95,508.752 1579.9,508.185 1577.84,509.142C1575.77,510.1 1573.88,513.423 1573.09,514.889C1572.61,515.784 1572.42,517.175 1573.09,517.941Z" style="fill:rgb(65,65,65);stroke:black;stroke-width:2.08px;stroke-linecap:square;"/>
            </g>
            <g transform="matrix(1,0,0,1,-253.687,-50.5352)">
                <path d="M1585.13,517.941L1570.21,526.08L1575.66,530.489L1585.47,529.981L1585.13,517.941Z" style="fill:rgb(65,65,65);stroke:black;stroke-width:2.08px;stroke-linecap:square;"/>
            </g>
        </g>
    </g>
    <g id="Copper-Foil1" serif:id="Copper Foil" transform="matrix(1,0,0,1,796.466,483.589)">
        <g transform="matrix(0.0441982,0.999023,-0.999023,0.0441982,1297.75,-1558.16)">
            <path d="M1909.24,319.454C1909.24,319.454 1903.78,313.461 1905.34,310.657C1907.42,306.912 1921.75,296.983 1921.75,296.983C1921.75,296.983 1922.95,289.216 1925.07,286.044C1928.65,280.664 1940.04,273.484 1943.23,264.704C1947.27,253.602 1949,232.414 1949.29,219.432C1949.54,208.467 1944.99,186.81 1944.99,186.81L1881.11,207.516C1881.11,207.516 1871.44,240.431 1870.57,250.491C1870.04,256.524 1875.98,261.822 1875.84,267.877C1875.68,274.909 1868.77,285.295 1869.59,292.685C1870.4,300.076 1881.67,307.758 1880.72,312.22C1879.78,316.681 1863.92,319.454 1863.92,319.454L1876.04,331.949L1878.66,323.454C1878.66,323.454 1885.89,328.567 1889.9,328.042C1895,327.376 1909.24,319.454 1909.24,319.454Z" style="fill:rgb(210,143,143);stroke:black;stroke-width:2.08px;stroke-linecap:square;"/>
            <path d="M1908.64,319.454C1908.64,319.454 1887.1,309.858 1895.24,302.831C1913.83,286.775 1920.14,270.826 1920.14,270.826L1924.64,286.928C1924.64,286.928 1923.81,293.25 1922.24,295.93C1920.18,299.448 1912.28,308.04 1912.28,308.04L1908.64,319.454Z" style="fill:rgb(137,72,72);stroke:black;stroke-width:2.08px;stroke-linecap:square;"/>
            <g transform="matrix(1,0,0,1,90.9125,93.4324)">
                <path d="M1815.7,120.865C1827.06,113.287 1830.13,113.221 1845.23,105.798" style="fill:none;stroke:black;stroke-width:2.08px;stroke-linecap:square;"/>
            </g>
            <g transform="matrix(1,0,0,1,90.9125,93.4324)">
                <path d="M1815.7,120.865C1823.86,123.778 1837.85,130.539 1853.4,124.824" style="fill:none;stroke:black;stroke-width:2.08px;stroke-linecap:square;"/>
            </g>
            <g transform="matrix(1,0,0,1,90.9125,93.4324)">
                <path d="M1808.62,122.358C1812.03,133.702 1835.76,126.912 1844.3,142.284" style="fill:none;stroke:black;stroke-width:2.08px;stroke-linecap:square;"/>
            </g>
            <g transform="matrix(1,0,0,1,90.9125,93.4324)">
                <path d="M1818.26,154.308C1831.31,162.873 1829.08,159.817 1846.82,168.677" style="fill:none;stroke:black;stroke-width:2.08px;stroke-linecap:square;"/>
            </g>
            <g transform="matrix(1,0,0,1,90.9125,93.4324)">
                <path d="M1808.62,164.726C1810.82,168.603 1806.07,177.18 1828.85,177.359" style="fill:none;stroke:black;stroke-width:2.08px;stroke-linecap:square;"/>
            </g>
            <g transform="matrix(1,0,0,1,90.9125,93.4324)">
                <path d="M1788.31,213.518C1790.5,217.396 1794.09,197.757 1804.88,190.382" style="fill:none;stroke:black;stroke-width:2.08px;stroke-linecap:square;"/>
            </g>
            <path d="M1875.99,266.954L1889.27,247.74L1895.8,244.121L1892.05,242.124L1891.44,237.696L1889.45,229.449L1885.8,225.754L1881.11,231.359L1876.51,240.127L1870.87,247.74C1870.87,247.74 1871.92,254.956 1872.78,258.158C1873.58,261.174 1875.99,266.954 1875.99,266.954Z" style="fill:rgb(137,72,72);stroke:black;stroke-width:2.08px;stroke-linecap:square;"/>
        </g>
        <g transform="matrix(-1.26486,0.252392,-0.252392,-1.26486,3352.51,420.786)">
            <path d="M1568.11,383.124L1607.43,366.997C1607.43,366.997 1701.81,359.974 1701.75,359.495C1698.89,335.525 1722.38,312.988 1722.38,312.988C1722.38,312.988 1724.05,298.91 1720.69,294.61C1718.38,291.644 1709.44,293.673 1709.44,293.673L1710.69,281.821L1586.12,331.828L1580.8,343.368L1568.11,383.124Z" style="fill:rgb(210,143,143);stroke:black;stroke-width:1.62px;stroke-linecap:square;"/>
            <path d="M1580.8,343.368L1585.14,345.745L1707.32,295.937L1715.36,282.855L1700.12,249.13L1672.2,287.766C1672.2,287.766 1658.27,277.592 1650.7,279.117C1635.59,282.159 1581.54,306.019 1581.54,306.019L1580.7,312.14L1583.22,316.22L1580.46,317.54L1583.7,320.901L1579.14,322.221L1581.18,324.622L1579.38,328.342L1583.46,331.272L1581.42,334.103L1576.5,335.183L1577.7,338.064L1581.06,339.384L1580.8,343.368Z" style="fill:rgb(137,72,72);stroke:black;stroke-width:1.62px;stroke-linecap:square;"/>
            <g transform="matrix(1,0,0,1,-335.227,239.723)">
                <path d="M1931.93,102.283C1965.45,102.091 1978.75,111.39 1991.7,110.71" style="fill:none;stroke:black;stroke-width:1.62px;stroke-linecap:square;"/>
            </g>
            <g transform="matrix(1,0,0,1,-335.227,239.723)">
                <path d="M1931.93,102.283C1924.49,109.388 1922.49,111.198 1919.94,115.639" style="fill:none;stroke:black;stroke-width:1.62px;stroke-linecap:square;"/>
            </g>
            <g transform="matrix(1,0,0,1,-335.227,239.723)">
                <path d="M2037.48,80.007C2024.02,85 2027.27,106.376 2017.5,108.961" style="fill:none;stroke:black;stroke-width:1.62px;stroke-linecap:square;"/>
            </g>
            <g transform="matrix(1,0,0,1,-335.227,239.723)">
                <path d="M2037.48,80.007C2048.28,76.103 2061.07,56.449 2052.38,53.464" style="fill:none;stroke:black;stroke-width:1.62px;stroke-linecap:square;"/>
            </g>
        </g>
        <g transform="matrix(0.82185,-0.783507,0.783507,0.82185,-562.237,1612.31)">
            <path d="M1664.44,174.465C1664.44,174.465 1688.63,203.245 1695.38,209.47C1697.78,211.689 1702,210.316 1704.91,211.814C1708.4,213.611 1711.93,218.478 1716.32,220.253C1721.66,222.415 1731.84,223.144 1736.95,224.785C1740.54,225.94 1743.21,229.555 1746.95,230.098C1752.5,230.906 1770.23,229.629 1770.23,229.629L1853.06,191.811C1853.06,191.811 1839.48,183.745 1832.12,184.466C1821.75,185.482 1801.24,198.557 1790.85,197.906C1781.77,197.337 1777.19,184.128 1769.77,180.559C1762.62,177.123 1751.53,179.908 1746.32,176.496C1741.26,173.177 1741.41,165.404 1738.51,160.087C1734.19,152.17 1725.15,134.875 1720.38,128.989C1718.01,126.065 1711.87,126.098 1709.91,124.769C1708.82,124.028 1709.55,120.047 1708.66,121.019C1701.08,129.301 1664.44,174.465 1664.44,174.465Z" style="fill:rgb(210,143,143);stroke:black;stroke-width:1.83px;stroke-linecap:square;"/>
            <path d="M1667.96,178.634C1667.96,178.634 1681.07,171.507 1684.75,172.277C1689.4,173.249 1682.72,195.718 1682.72,195.718L1667.96,178.634Z" style="fill:rgb(137,72,72);stroke:black;stroke-width:1.83px;stroke-linecap:square;"/>
            <g transform="matrix(1,0,0,1,19.9926,-50.4049)">
                <path d="M1679.61,234.373C1680.05,220.123 1690.71,200.725 1689.76,181.956" style="fill:none;stroke:black;stroke-width:1.83px;stroke-linecap:square;"/>
            </g>
            <g transform="matrix(1,0,0,1,19.9926,-50.4049)">
                <path d="M1671.64,234.373C1680.51,236.688 1678.32,235.639 1684.71,234.373" style="fill:none;stroke:black;stroke-width:1.83px;stroke-linecap:square;"/>
            </g>
            <g transform="matrix(1,0,0,1,19.9926,-50.4049)">
                <path d="M1696.95,250.157C1705.83,252.472 1720.66,254.861 1727.85,264.847" style="fill:none;stroke:black;stroke-width:1.83px;stroke-linecap:square;"/>
            </g>
            <g transform="matrix(1,0,0,1,19.9926,-50.4049)">
                <path d="M1723.99,239.374C1731.15,242.626 1737.07,251.266 1748.94,241.562" style="fill:none;stroke:black;stroke-width:1.83px;stroke-linecap:square;"/>
            </g>
            <g transform="matrix(1,0,0,1,19.9926,-50.4049)">
                <path d="M1696.95,264.847C1708.02,264.036 1714.73,257.517 1727.85,274.536" style="fill:none;stroke:black;stroke-width:1.83px;stroke-linecap:square;"/>
            </g>
            <g transform="matrix(1,0,0,1,19.9926,-50.4049)">
                <path d="M1727.85,274.536C1738.91,273.725 1738.64,271.895 1753.94,277.349" style="fill:none;stroke:black;stroke-width:1.83px;stroke-linecap:square;"/>
            </g>
            <g transform="matrix(1,0,0,1,19.9926,-50.4049)">
                <path d="M1727.85,274.536C1739.07,269.193 1748.48,261.893 1765.66,264.847" style="fill:none;stroke:black;stroke-width:1.83px;stroke-linecap:square;"/>
            </g>
            <g transform="matrix(1,0,0,1,19.9926,-50.4049)">
                <path d="M1765.66,266.354C1775.64,256.323 1768.33,249.329 1785.2,246.031" style="fill:none;stroke:black;stroke-width:1.83px;stroke-linecap:square;"/>
            </g>
        </g>
        <g transform="matrix(1,0,0,1,-681.194,220.844)">
            <path d="M1668.3,341.779L1706.58,266.504C1706.58,266.504 1711.17,273.452 1719.48,274.892C1734.65,277.517 1776.26,271.773 1776.26,271.773C1776.26,271.773 1773.03,277.509 1781.64,282.849C1788.76,287.267 1792.18,286.29 1792.18,286.29C1792.18,286.29 1781.03,300.934 1789.6,314.25C1789.8,314.569 1770.67,355.652 1770.67,355.652C1770.67,355.652 1750.73,356.094 1741.21,353.609C1728.84,350.382 1708.62,338.267 1696.47,336.295C1687.03,334.763 1668.3,341.779 1668.3,341.779Z" style="fill:rgb(210,143,143);stroke:black;stroke-width:2.08px;stroke-linecap:square;"/>
            <path d="M1668.3,341.779L1690.88,326.617C1690.88,326.617 1717.85,331.187 1728.3,334.897C1737.37,338.118 1746.51,345.436 1753.57,348.877C1759.07,351.557 1770.67,355.544 1770.67,355.544L1759.49,364.04C1759.49,364.04 1729.25,358.018 1718.95,350.167C1711.16,344.24 1706.42,344.683 1690.56,342.747C1683.18,341.848 1668.3,341.779 1668.3,341.779Z" style="fill:rgb(137,72,72);stroke:black;stroke-width:2.08px;stroke-linecap:square;"/>
            <path d="M1715.08,298.511C1733.36,289.515 1747.13,292.779 1762.83,290.342" style="fill:rgb(210,143,143);stroke:black;stroke-width:2.08px;stroke-linecap:square;"/>
            <path d="M1776.38,318.083C1780.46,301.022 1773.8,308.801 1778.96,290.342" style="fill:rgb(210,143,143);stroke:black;stroke-width:2.08px;stroke-linecap:square;"/>
            <path d="M1765.52,350.021C1763.26,342.638 1765.84,341.278 1765.41,335.83" style="fill:rgb(210,143,143);stroke:black;stroke-width:2.08px;stroke-linecap:square;"/>
            <path d="M1691.64,308.727C1702.39,299.946 1710.24,294.176 1711.64,279.159" style="fill:rgb(210,143,143);stroke:black;stroke-width:2.08px;stroke-linecap:square;"/>
            <path d="M1691.64,308.727C1702.39,299.946 1710.24,294.176 1711.64,279.159" style="fill:rgb(210,143,143);stroke:black;stroke-width:2.08px;stroke-linecap:square;"/>
        </g>
        <g transform="matrix(1,0,0,1,-227.134,-69.5512)">
            <path d="M1279.13,541.138L1298.66,550.092L1298.12,540.053L1302.73,534.763L1300.15,527.709L1290.38,532.863L1276.18,525.674L1279.13,541.138Z" style="fill:rgb(210,143,143);stroke:black;stroke-width:2.08px;stroke-linecap:square;"/>
        </g>
        <g transform="matrix(-0.751223,-0.660048,0.660048,-0.751223,2245.07,1860.72)">
            <path d="M1582.86,428.228C1595.37,441.755 1630.53,472.805 1649.42,473.08C1662.8,473.274 1696.51,431.565 1696.51,431.565C1696.51,431.565 1695.47,409.273 1687.44,395.295C1687.31,395.061 1695.84,385.076 1695.84,385.076L1701.72,359.662C1701.72,359.662 1638.56,376.718 1618.55,379.615C1603.11,381.85 1582.86,384.026 1582.86,384.026C1582.86,384.026 1590.84,387.113 1590.84,388.409C1590.84,389.704 1587.27,392.307 1580.71,392.571C1576.75,392.73 1568.84,397.407 1568.84,397.407C1568.84,397.407 1563.62,407.425 1582.86,428.228Z" style="fill:rgb(210,143,143);stroke:black;stroke-width:2.08px;stroke-linecap:square;"/>
            <g transform="matrix(1,0,0,1,-133.315,133.771)">
                <path d="M1783.05,338.386C1765.94,309.169 1760.41,320.249 1738.4,300.969C1737.39,300.082 1715.49,288.434 1716.15,294.481C1716.74,299.871 1739.45,322.651 1745.24,327.595C1757.37,337.943 1785.33,340.976 1783.05,338.386Z" style="fill:rgb(137,72,72);stroke:black;stroke-width:2.08px;stroke-linecap:square;"/>
            </g>
            <g transform="matrix(1.2199,0,0,0.397776,-491.812,316.357)">
                <path d="M1793.73,289.971C1770.66,233.535 1770.98,390.17 1744.79,346.94" style="fill:none;stroke:black;stroke-width:2.3px;stroke-linecap:square;"/>
            </g>
            <g transform="matrix(1.2199,0,0,0.397776,-504.609,290.763)">
                <path d="M1773.04,336.734C1763.58,305.708 1753.45,307.574 1746.03,328.416" style="fill:none;stroke:black;stroke-width:2.3px;stroke-linecap:square;"/>
            </g>
            <g transform="matrix(1.2199,0,0,0.397776,-526.662,270.546)">
                <path d="M1782.19,289.768C1765.91,293.62 1753.45,307.574 1746.03,328.416" style="fill:none;stroke:black;stroke-width:2.3px;stroke-linecap:square;"/>
            </g>
            <g transform="matrix(1.2199,0,0,0.397776,-526.662,270.546)">
                <path d="M1782.19,289.768C1770.49,295.242 1806.85,355.273 1810.19,362.868" style="fill:none;stroke:black;stroke-width:2.3px;stroke-linecap:square;"/>
            </g>
            <g transform="matrix(1.2199,0,0,0.397776,-526.662,270.546)">
                <path d="M1797.44,278.143C1807.52,304.434 1815.5,268.525 1825.6,225.271" style="fill:none;stroke:black;stroke-width:2.3px;stroke-linecap:square;"/>
            </g>
        </g>
    </g>
    <g id="Alumuminium-Foil" serif:id="Alumuminium Foil" transform="matrix(-0.930834,-0.365442,0.365442,-0.930834,2979.92,1002.17)">
        <g transform="matrix(0.819873,-0.572545,0.572545,0.819873,-192.399,1026.43)">
            <path d="M1582.86,428.228C1595.37,441.755 1630.53,472.805 1649.42,473.08C1667.7,473.346 1717.42,447.503 1687.44,395.295C1687.31,395.061 1695.84,385.076 1695.84,385.076C1695.84,385.076 1712.22,383.249 1713.06,378.985C1713.61,376.212 1701.72,359.662 1701.72,359.662C1701.72,359.662 1638.56,376.718 1618.55,379.615C1603.11,381.85 1582.86,384.026 1582.86,384.026C1582.86,384.026 1590.84,387.113 1590.84,388.409C1590.84,389.704 1587.27,392.307 1580.71,392.571C1576.75,392.73 1568.84,397.407 1568.84,397.407C1568.84,397.407 1563.62,407.425 1582.86,428.228Z" style="fill:rgb(235,235,234);stroke:black;stroke-width:2.08px;stroke-linecap:square;"/>
            <path d="M1561.02,407.729C1563.96,413.218 1582.86,428.228 1582.86,428.228L1581.68,412.938L1578.16,414.282L1578.32,407.393L1572.44,408.569L1575.3,400.84L1565.22,395.295C1565.22,395.295 1558.95,403.873 1561.02,407.729Z" style="fill:rgb(205,205,205);stroke:black;stroke-width:2.08px;stroke-linecap:square;"/>
            <g transform="matrix(1,0,0,1,-133.315,133.771)">
                <path d="M1783.05,338.386C1762.98,304.119 1751.77,319.469 1720.73,284.079" style="fill:none;stroke:black;stroke-width:2.08px;stroke-linecap:square;"/>
            </g>
            <g transform="matrix(1.2199,0,0,0.397776,-491.812,316.357)">
                <path d="M1783.33,340.863C1760.26,284.428 1746.92,327.309 1720.73,284.079" style="fill:none;stroke:black;stroke-width:2.3px;stroke-linecap:square;"/>
            </g>
            <g transform="matrix(1.2199,0,0,0.397776,-504.609,290.763)">
                <path d="M1764.11,288.146C1753.39,308.218 1753.45,307.574 1746.03,328.416" style="fill:none;stroke:black;stroke-width:2.3px;stroke-linecap:square;"/>
            </g>
            <g transform="matrix(1.2199,0,0,0.397776,-526.662,270.546)">
                <path d="M1782.19,289.768C1765.91,293.62 1753.45,307.574 1746.03,328.416" style="fill:none;stroke:black;stroke-width:2.3px;stroke-linecap:square;"/>
            </g>
            <g transform="matrix(1.2199,0,0,0.397776,-526.662,270.546)">
                <path d="M1782.19,289.768C1770.49,295.242 1777.26,314.333 1780.6,321.928" style="fill:none;stroke:black;stroke-width:2.3px;stroke-linecap:square;"/>
            </g>
            <g transform="matrix(1.2199,0,0,0.397776,-526.662,270.546)">
                <path d="M1797.44,278.143C1804.79,314.436 1783.34,354.884 1780.6,369.509" style="fill:none;stroke:black;stroke-width:2.3px;stroke-linecap:square;"/>
            </g>
            <g transform="matrix(1.2199,0,0,0.397776,-526.662,270.546)">
                <path d="M1797.44,278.143C1807.52,304.434 1820.28,235.932 1823.18,244.609" style="fill:none;stroke:black;stroke-width:2.3px;stroke-linecap:square;"/>
            </g>
        </g>
        <g transform="matrix(0.262158,0.965025,-0.965025,0.262158,1071.44,-1417.32)">
            <path d="M1909.24,319.454C1909.24,319.454 1903.78,313.461 1905.34,310.657C1907.42,306.912 1921.75,296.983 1921.75,296.983C1921.75,296.983 1922.95,289.216 1925.07,286.044C1928.65,280.664 1940.04,273.484 1943.23,264.704C1947.27,253.602 1949,232.414 1949.29,219.432C1949.54,208.467 1944.99,186.81 1944.99,186.81L1881.11,207.516C1881.11,207.516 1871.44,240.431 1870.57,250.491C1870.04,256.524 1875.98,261.822 1875.84,267.877C1875.68,274.909 1868.77,285.295 1869.59,292.685C1870.4,300.076 1881.67,307.758 1880.72,312.22C1879.78,316.681 1863.92,319.454 1863.92,319.454L1876.04,331.949L1878.66,323.454C1878.66,323.454 1885.89,328.567 1889.9,328.042C1895,327.376 1909.24,319.454 1909.24,319.454Z" style="fill:rgb(235,235,234);stroke:black;stroke-width:2.08px;stroke-linecap:square;"/>
            <path d="M1908.64,319.454C1908.64,319.454 1887.1,309.858 1895.24,302.831C1913.83,286.775 1920.14,270.826 1920.14,270.826L1924.64,286.928C1924.64,286.928 1923.81,293.25 1922.24,295.93C1920.18,299.448 1912.28,308.04 1912.28,308.04L1908.64,319.454Z" style="fill:rgb(205,205,205);stroke:black;stroke-width:2.08px;stroke-linecap:square;"/>
            <g transform="matrix(1,0,0,1,90.9125,93.4324)">
                <path d="M1815.7,120.865C1827.06,113.287 1830.13,113.221 1845.23,105.798" style="fill:none;stroke:black;stroke-width:2.08px;stroke-linecap:square;"/>
            </g>
            <g transform="matrix(1,0,0,1,90.9125,93.4324)">
                <path d="M1815.7,120.865C1823.86,123.778 1837.85,130.539 1853.4,124.824" style="fill:none;stroke:black;stroke-width:2.08px;stroke-linecap:square;"/>
            </g>
            <g transform="matrix(1,0,0,1,90.9125,93.4324)">
                <path d="M1808.62,122.358C1812.03,133.702 1835.76,126.912 1844.3,142.284" style="fill:none;stroke:black;stroke-width:2.08px;stroke-linecap:square;"/>
            </g>
            <g transform="matrix(1,0,0,1,90.9125,93.4324)">
                <path d="M1818.26,154.308C1831.31,162.873 1829.08,159.817 1846.82,168.677" style="fill:none;stroke:black;stroke-width:2.08px;stroke-linecap:square;"/>
            </g>
            <g transform="matrix(1,0,0,1,90.9125,93.4324)">
                <path d="M1808.62,164.726C1810.82,168.603 1806.07,177.18 1828.85,177.359" style="fill:none;stroke:black;stroke-width:2.08px;stroke-linecap:square;"/>
            </g>
            <g transform="matrix(1,0,0,1,90.9125,93.4324)">
                <path d="M1788.31,213.518C1790.5,217.396 1794.09,197.757 1804.88,190.382" style="fill:none;stroke:black;stroke-width:2.08px;stroke-linecap:square;"/>
            </g>
            <path d="M1875.99,266.954L1889.27,247.74L1895.8,244.121L1892.05,242.124L1891.44,237.696L1889.45,229.449L1885.8,225.754L1881.11,231.359L1876.51,240.127L1870.87,247.74C1870.87,247.74 1871.92,254.956 1872.78,258.158C1873.58,261.174 1875.99,266.954 1875.99,266.954Z" style="fill:rgb(205,205,205);stroke:black;stroke-width:2.08px;stroke-linecap:square;"/>
        </g>
        <g transform="matrix(1,0,0,1,-240.103,-86.029)">
            <path d="M1332.95,494.194C1334.89,491.159 1339.88,486.373 1343.81,486.373C1347.74,486.373 1354.98,491.159 1356.53,494.194C1358.08,497.229 1355.6,502.145 1353.09,504.583C1350.57,507.02 1344.92,508.822 1341.43,508.822C1338.03,508.822 1333.57,507.02 1332.15,504.583C1330.74,502.145 1331.08,497.119 1332.95,494.194Z" style="fill:rgb(205,205,205);stroke:black;stroke-width:2.08px;stroke-linecap:square;"/>
        </g>
        <g transform="matrix(-1.13545,-0.00787816,0.00787816,-1.13545,3135.41,614.685)">
            <path d="M1664.44,174.465C1664.44,174.465 1688.63,203.245 1695.38,209.47C1697.78,211.689 1702,210.316 1704.91,211.814C1708.4,213.611 1711.93,218.478 1716.32,220.253C1721.66,222.415 1731.84,223.144 1736.95,224.785C1740.54,225.94 1743.21,229.555 1746.95,230.098C1752.5,230.906 1770.23,229.629 1770.23,229.629L1853.06,191.811C1853.06,191.811 1839.48,183.745 1832.12,184.466C1821.75,185.482 1801.24,198.557 1790.85,197.906C1781.77,197.337 1777.19,184.128 1769.77,180.559C1762.62,177.123 1751.53,179.908 1746.32,176.496C1741.26,173.177 1741.41,165.404 1738.51,160.087C1734.19,152.17 1725.15,134.875 1720.38,128.989C1718.01,126.065 1711.87,126.098 1709.91,124.769C1708.82,124.028 1709.55,120.047 1708.66,121.019C1701.08,129.301 1664.44,174.465 1664.44,174.465Z" style="fill:rgb(235,235,234);stroke:black;stroke-width:1.83px;stroke-linecap:square;"/>
            <path d="M1667.96,178.634C1667.96,178.634 1681.07,171.507 1684.75,172.277C1689.4,173.249 1682.72,195.718 1682.72,195.718L1667.96,178.634Z" style="fill:rgb(205,205,205);stroke:black;stroke-width:1.83px;stroke-linecap:square;"/>
            <g transform="matrix(1,0,0,1,19.9926,-50.4049)">
                <path d="M1679.61,234.373C1680.05,220.123 1690.71,200.725 1689.76,181.956" style="fill:none;stroke:black;stroke-width:1.83px;stroke-linecap:square;"/>
            </g>
            <g transform="matrix(1,0,0,1,19.9926,-50.4049)">
                <path d="M1671.64,234.373C1680.51,236.688 1678.32,235.639 1684.71,234.373" style="fill:none;stroke:black;stroke-width:1.83px;stroke-linecap:square;"/>
            </g>
            <g transform="matrix(1,0,0,1,19.9926,-50.4049)">
                <path d="M1696.95,250.157C1705.83,252.472 1720.66,254.861 1727.85,264.847" style="fill:none;stroke:black;stroke-width:1.83px;stroke-linecap:square;"/>
            </g>
            <g transform="matrix(1,0,0,1,19.9926,-50.4049)">
                <path d="M1723.99,239.374C1731.15,242.626 1737.07,251.266 1748.94,241.562" style="fill:none;stroke:black;stroke-width:1.83px;stroke-linecap:square;"/>
            </g>
            <g transform="matrix(1,0,0,1,19.9926,-50.4049)">
                <path d="M1696.95,264.847C1708.02,264.036 1714.73,257.517 1727.85,274.536" style="fill:none;stroke:black;stroke-width:1.83px;stroke-linecap:square;"/>
            </g>
            <g transform="matrix(1,0,0,1,19.9926,-50.4049)">
                <path d="M1727.85,274.536C1738.91,273.725 1738.64,271.895 1753.94,277.349" style="fill:none;stroke:black;stroke-width:1.83px;stroke-linecap:square;"/>
            </g>
            <g transform="matrix(1,0,0,1,19.9926,-50.4049)">
                <path d="M1727.85,274.536C1739.07,269.193 1748.48,261.893 1765.66,264.847" style="fill:none;stroke:black;stroke-width:1.83px;stroke-linecap:square;"/>
            </g>
            <g transform="matrix(1,0,0,1,19.9926,-50.4049)">
                <path d="M1765.66,266.354C1775.64,256.323 1768.33,249.329 1785.2,246.031" style="fill:none;stroke:black;stroke-width:1.83px;stroke-linecap:square;"/>
            </g>
        </g>
        <g transform="matrix(-0.939482,0.342599,-0.342599,-0.939482,3137.76,-18.4332)">
            <path d="M1668.3,341.779L1706.58,266.504C1706.58,266.504 1711.17,273.452 1719.48,274.892C1734.65,277.517 1776.26,271.773 1776.26,271.773C1776.26,271.773 1773.03,277.509 1781.64,282.849C1788.76,287.267 1792.18,286.29 1792.18,286.29C1792.18,286.29 1781.03,300.934 1789.6,314.25C1789.8,314.569 1770.67,355.652 1770.67,355.652C1770.67,355.652 1750.73,356.094 1741.21,353.609C1728.84,350.382 1708.62,338.267 1696.47,336.295C1687.03,334.763 1668.3,341.779 1668.3,341.779Z" style="fill:rgb(235,235,234);stroke:black;stroke-width:2.08px;stroke-linecap:square;"/>
            <path d="M1668.3,341.779L1690.88,326.617C1690.88,326.617 1717.85,331.187 1728.3,334.897C1737.37,338.118 1746.51,345.436 1753.57,348.877C1759.07,351.557 1770.67,355.544 1770.67,355.544L1759.49,364.04C1759.49,364.04 1729.25,358.018 1718.95,350.167C1711.16,344.24 1706.42,344.683 1690.56,342.747C1683.18,341.848 1668.3,341.779 1668.3,341.779Z" style="fill:rgb(205,205,205);stroke:black;stroke-width:2.08px;stroke-linecap:square;"/>
            <path d="M1715.08,298.511C1733.36,289.515 1747.13,292.779 1762.83,290.342" style="fill:none;stroke:black;stroke-width:2.08px;stroke-linecap:square;"/>
            <path d="M1776.38,318.083C1780.46,301.022 1773.8,308.801 1778.96,290.342" style="fill:rgb(210,143,143);stroke:black;stroke-width:2.08px;stroke-linecap:square;"/>
            <path d="M1765.52,350.021C1763.26,342.638 1765.84,341.278 1765.41,335.83" style="fill:rgb(210,143,143);stroke:black;stroke-width:2.08px;stroke-linecap:square;"/>
            <path d="M1691.64,308.727C1702.39,299.946 1710.24,294.176 1711.64,279.159" style="fill:none;stroke:black;stroke-width:2.08px;stroke-linecap:square;"/>
            <path d="M1691.64,308.727C1702.39,299.946 1710.24,294.176 1711.64,279.159" style="fill:none;stroke:black;stroke-width:2.08px;stroke-linecap:square;"/>
        </g>
        <g transform="matrix(1,0,0,1,-59.8122,-190.886)">
            <path d="M1279.13,541.138L1298.66,550.092L1298.12,540.053L1302.73,534.763L1300.15,527.709L1290.38,532.863L1276.18,525.674L1279.13,541.138Z" style="fill:rgb(235,235,234);stroke:black;stroke-width:2.08px;stroke-linecap:square;"/>
        </g>
        <g transform="matrix(1.21922,-0.420804,0.420804,1.21922,-847.865,668.894)">
            <path d="M1568.11,383.124L1607.43,366.997C1607.43,366.997 1701.81,359.974 1701.75,359.495C1698.89,335.525 1722.38,312.988 1722.38,312.988C1722.38,312.988 1724.05,298.91 1720.69,294.61C1718.38,291.644 1709.44,293.673 1709.44,293.673L1710.69,281.821L1586.12,331.828L1580.8,343.368L1568.11,383.124Z" style="fill:rgb(205,205,205);stroke:black;stroke-width:1.62px;stroke-linecap:square;"/>
            <path d="M1580.8,343.368L1585.14,345.745L1707.32,295.937L1715.36,282.855L1700.12,249.13L1581.54,306.019L1580.7,312.14L1583.22,316.22L1580.46,317.54L1583.7,320.901L1579.14,322.221L1581.18,324.622L1579.38,328.342L1583.46,331.272L1581.42,334.103L1576.5,335.183L1577.7,338.064L1581.06,339.384L1580.8,343.368Z" style="fill:rgb(235,235,234);stroke:black;stroke-width:1.62px;stroke-linecap:square;"/>
            <g transform="matrix(1,0,0,1,-335.227,239.723)">
                <path d="M1931.93,102.283C1965.45,102.091 1978.75,111.39 1991.7,110.71" style="fill:none;stroke:black;stroke-width:1.62px;stroke-linecap:square;"/>
            </g>
            <g transform="matrix(1,0,0,1,-335.227,239.723)">
                <path d="M1931.93,102.283C1924.49,109.388 1922.49,111.198 1919.94,115.639" style="fill:none;stroke:black;stroke-width:1.62px;stroke-linecap:square;"/>
            </g>
            <g transform="matrix(1,0,0,1,-335.227,239.723)">
                <path d="M2037.48,80.007C2024.02,85 2027.27,106.376 2017.5,108.961" style="fill:none;stroke:black;stroke-width:1.62px;stroke-linecap:square;"/>
            </g>
            <g transform="matrix(1,0,0,1,-335.227,239.723)">
                <path d="M2037.48,80.007C2048.28,76.103 2061.07,56.449 2052.38,53.464" style="fill:none;stroke:black;stroke-width:1.62px;stroke-linecap:square;"/>
            </g>
            <g transform="matrix(1,0,0,1,-335.227,239.723)">
                <path d="M1997.95,92.105C2008.75,88.201 2019.32,93.267 2020.11,89.976" style="fill:none;stroke:black;stroke-width:1.62px;stroke-linecap:square;"/>
            </g>
        </g>
    </g>
    <g id="Black-Mass1" serif:id="Black Mass" transform="matrix(1,0,0,1,854.523,773.586)">
        <g transform="matrix(-0.0457216,-0.776229,1.43913,-0.0847678,231.175,1662.76)">
            <path d="M1596.66,613.169L1613.55,620.608L1616.2,612.507L1606.92,611.182L1596.66,613.169Z" style="fill:rgb(210,143,143);stroke:black;stroke-width:1.8px;stroke-linecap:square;"/>
        </g>
        <g transform="matrix(-0.0457216,-0.776229,1.43913,-0.0847678,231.175,1662.76)">
            <path d="M1600.91,573.102L1606.43,566.265L1608.29,570.823L1609.05,580.808L1599.17,581.893L1600.91,573.102Z" style="fill:rgb(65,65,65);stroke:black;stroke-width:1.8px;stroke-linecap:square;"/>
        </g>
        <g transform="matrix(-0.0457216,-0.776229,1.43913,-0.0847678,437.872,1831.93)">
            <path d="M1592.78,568.518C1593.99,565.914 1606.43,566.265 1606.43,566.265L1616.35,571.448C1616.35,571.448 1612.19,576.914 1609.33,578.654C1606.46,580.395 1599.17,581.893 1599.17,581.893C1599.17,581.893 1591.57,571.123 1592.78,568.518Z" style="fill:rgb(65,65,65);stroke:black;stroke-width:1.8px;stroke-linecap:square;"/>
        </g>
        <g transform="matrix(-0.0457216,-0.776229,1.43913,-0.0847678,349.263,1518.64)">
            <path d="M1272.01,486.373L1276.18,478.551L1284.99,478.551L1289.45,494.194L1280.49,494.194L1272.01,486.373Z" style="stroke:black;stroke-width:1.8px;stroke-linecap:square;"/>
        </g>
        <g transform="matrix(-0.0457216,-0.776229,1.43913,-0.0847678,231.175,1662.76)">
            <path d="M1550.43,642.988L1562.31,650.195L1575.66,641.081L1560.61,633.026L1550.43,642.988Z" style="stroke:black;stroke-width:1.8px;stroke-linecap:square;"/>
        </g>
        <g transform="matrix(-0.0636339,-1.08033,1.43913,-0.0847678,505.515,2271.43)">
            <path d="M1529.88,513.057C1527.86,509.208 1531.36,497.597 1531.36,497.597L1546.62,501.399C1546.62,501.399 1556.48,512.174 1555.95,515.388C1555.42,518.603 1543.44,520.687 1543.44,520.687C1543.44,520.687 1531.89,516.905 1529.88,513.057Z" style="stroke:black;stroke-width:1.63px;stroke-linecap:square;"/>
        </g>
        <g transform="matrix(-0.0457216,-0.776229,1.43913,-0.0847678,555.288,1675.2)">
            <path d="M1452.31,408.714L1442.84,399.218L1455.98,395.963L1465.2,401.807L1452.31,408.714Z" style="fill:rgb(65,65,65);stroke:black;stroke-width:1.8px;stroke-linecap:square;"/>
        </g>
        <g transform="matrix(-0.0457216,-0.776229,1.43913,-0.0847678,586.405,1666.79)">
            <path d="M1381.37,402.338L1375.4,395.963L1382.32,384.432L1391.4,389.858L1387.47,395.963L1396.29,401.807L1388.42,408.714L1378.92,408.714L1381.37,402.338Z" style="fill:rgb(65,65,65);stroke:black;stroke-width:1.8px;stroke-linecap:square;"/>
        </g>
        <g transform="matrix(-0.0636339,-1.08033,1.43913,-0.0847678,505.515,2271.43)">
            <path d="M1573.09,517.941C1574.44,519.496 1577.87,524.904 1581.23,524.215C1585.64,523.311 1598.84,515.027 1599.54,512.515C1600.25,510.003 1589.09,509.704 1585.47,509.142C1582.95,508.752 1579.9,508.185 1577.84,509.142C1575.77,510.1 1573.88,513.423 1573.09,514.889C1572.61,515.784 1572.42,517.175 1573.09,517.941Z" style="fill:rgb(65,65,65);stroke:black;stroke-width:1.63px;stroke-linecap:square;"/>
        </g>
        <g transform="matrix(-0.0457216,-0.776229,1.43913,-0.0847678,273.41,1669.96)">
            <path d="M1585.13,517.941L1570.21,526.08L1575.66,530.489L1585.47,529.981L1585.13,517.941Z" style="fill:rgb(65,65,65);stroke:black;stroke-width:1.8px;stroke-linecap:square;"/>
        </g>
        <g transform="matrix(-0.309678,-0.519461,1.79955,-1.0728,420.041,1966.8)">
            <path d="M1596.66,613.169L1613.55,620.608L1616.2,612.507L1606.92,611.182L1596.66,613.169Z" style="fill:rgb(65,65,65);stroke:black;stroke-width:1.35px;stroke-linecap:square;"/>
        </g>
        <g transform="matrix(-0.309678,-0.519461,1.79955,-1.0728,584.741,1826.1)">
            <path d="M1600.91,573.102L1606.43,566.265L1608.29,570.823L1609.05,580.808L1599.17,581.893L1600.91,573.102Z" style="fill:rgb(65,65,65);stroke:black;stroke-width:1.35px;stroke-linecap:square;"/>
        </g>
        <g transform="matrix(-0.309678,-0.519461,1.79955,-1.0728,443.83,1985.76)">
            <path d="M1592.78,568.518C1593.99,565.914 1606.43,566.265 1606.43,566.265L1616.35,571.448C1616.35,571.448 1612.19,576.914 1609.33,578.654C1606.46,580.395 1599.17,581.893 1599.17,581.893C1599.17,581.893 1591.57,571.123 1592.78,568.518Z" style="fill:rgb(65,65,65);stroke:black;stroke-width:1.35px;stroke-linecap:square;"/>
        </g>
        <g transform="matrix(-0.309678,-0.519461,1.79955,-1.0728,583.129,1621.73)">
            <path d="M1272.01,486.373L1276.18,478.551L1284.99,478.551L1289.45,494.194L1280.49,494.194L1272.01,486.373Z" style="stroke:black;stroke-width:1.35px;stroke-linecap:square;"/>
        </g>
        <g transform="matrix(-0.309678,-0.519461,1.79955,-1.0728,420.041,1966.8)">
            <path d="M1550.43,642.988L1562.31,650.195L1575.66,641.081L1560.61,633.026L1550.43,642.988Z" style="stroke:black;stroke-width:1.35px;stroke-linecap:square;"/>
        </g>
        <g transform="matrix(-0.309678,-0.519461,1.79955,-1.0728,672.779,1836.28)">
            <path d="M1529.88,513.057C1527.86,509.208 1531.36,497.597 1531.36,497.597L1546.62,501.399C1546.62,501.399 1556.48,512.174 1555.95,515.388C1555.42,518.603 1543.44,520.687 1543.44,520.687C1543.44,520.687 1531.89,516.905 1529.88,513.057Z" style="stroke:black;stroke-width:1.35px;stroke-linecap:square;"/>
        </g>
        <g transform="matrix(-0.309678,-0.519461,1.79955,-1.0728,904.667,1652.11)">
            <path d="M1452.31,408.714L1442.84,399.218L1455.98,395.963L1465.2,401.807L1452.31,408.714Z" style="fill:rgb(65,65,65);stroke:black;stroke-width:1.35px;stroke-linecap:square;"/>
        </g>
        <g transform="matrix(-0.309678,-0.519461,1.79955,-1.0728,904.667,1652.11)">
            <path d="M1381.37,402.338L1375.4,395.963L1382.32,384.432L1391.4,389.858L1387.47,395.963L1396.29,401.807L1388.42,408.714L1378.92,408.714L1381.37,402.338Z" style="fill:rgb(65,65,65);stroke:black;stroke-width:1.35px;stroke-linecap:square;"/>
        </g>
        <g transform="matrix(-0.309678,-0.519461,1.79955,-1.0728,542.085,1791.77)">
            <path d="M1573.09,517.941C1574.44,519.496 1577.87,524.904 1581.23,524.215C1585.64,523.311 1598.84,515.027 1599.54,512.515C1600.25,510.003 1589.09,509.704 1585.47,509.142C1582.95,508.752 1579.9,508.185 1577.84,509.142C1575.77,510.1 1573.88,513.423 1573.09,514.889C1572.61,515.784 1572.42,517.175 1573.09,517.941Z" style="fill:rgb(65,65,65);stroke:black;stroke-width:1.35px;stroke-linecap:square;"/>
        </g>
        <g transform="matrix(-0.662773,-1.11175,1.79955,-1.0728,1150.11,2814.17)">
            <path d="M1573.09,517.941C1574.44,519.496 1577.87,524.904 1581.23,524.215C1585.64,523.311 1598.84,515.027 1599.54,512.515C1600.25,510.003 1589.09,509.704 1585.47,509.142C1582.95,508.752 1579.9,508.185 1577.84,509.142C1575.77,510.1 1573.88,513.423 1573.09,514.889C1572.61,515.784 1572.42,517.175 1573.09,517.941Z" style="fill:rgb(244,255,203);stroke:black;stroke-width:1.2px;stroke-linecap:square;"/>
        </g>
        <g transform="matrix(-0.309678,-0.519461,1.79955,-1.0728,596.937,1781.59)">
            <path d="M1585.13,517.941L1570.21,526.08L1575.66,530.489L1585.47,529.981L1585.13,517.941Z" style="fill:rgb(65,65,65);stroke:black;stroke-width:1.35px;stroke-linecap:square;"/>
        </g>
        <g transform="matrix(1,-1.11022e-16,1.11022e-16,1,-459.712,-207.098)">
            <path d="M1596.66,613.169L1613.55,620.608L1616.2,612.507L1606.92,611.182L1596.66,613.169Z" style="fill:rgb(65,65,65);stroke:black;stroke-width:2.08px;stroke-linecap:square;"/>
        </g>
        <g transform="matrix(1,-1.11022e-16,1.11022e-16,1,-493.101,-40.3611)">
            <path d="M1600.91,573.102L1606.43,566.265L1608.29,570.823L1609.05,580.808L1599.17,581.893L1600.91,573.102Z" style="fill:rgb(65,65,65);stroke:black;stroke-width:2.08px;stroke-linecap:square;"/>
        </g>
        <g transform="matrix(1,-1.11022e-16,1.11022e-16,1,-446.024,-138.234)">
            <path d="M1592.78,568.518C1593.99,565.914 1606.43,566.265 1606.43,566.265L1616.35,571.448C1616.35,571.448 1612.19,576.914 1609.33,578.654C1606.46,580.395 1599.17,581.893 1599.17,581.893C1599.17,581.893 1591.57,571.123 1592.78,568.518Z" style="fill:rgb(65,65,65);stroke:black;stroke-width:2.08px;stroke-linecap:square;"/>
        </g>
        <g transform="matrix(1,-1.11022e-16,1.11022e-16,1,-253.687,-50.5352)">
            <path d="M1272.01,486.373L1276.18,478.551L1284.99,478.551L1289.45,494.194L1280.49,494.194L1272.01,486.373Z" style="stroke:black;stroke-width:2.08px;stroke-linecap:square;"/>
        </g>
        <g transform="matrix(1,-1.11022e-16,1.11022e-16,1,-459.712,-207.098)">
            <path d="M1550.43,642.988L1562.31,650.195L1575.66,641.081L1560.61,633.026L1550.43,642.988Z" style="stroke:black;stroke-width:2.08px;stroke-linecap:square;"/>
        </g>
        <g transform="matrix(1,-1.11022e-16,1.11022e-16,1,-577.799,-62.9785)">
            <path d="M1529.88,513.057C1527.86,509.208 1531.36,497.597 1531.36,497.597L1546.62,501.399C1546.62,501.399 1556.48,512.174 1555.95,515.388C1555.42,518.603 1543.44,520.687 1543.44,520.687C1543.44,520.687 1531.89,516.905 1529.88,513.057Z" style="stroke:black;stroke-width:2.08px;stroke-linecap:square;"/>
        </g>
        <g transform="matrix(1,-1.11022e-16,1.11022e-16,1,-250.456,25.7703)">
            <path d="M1452.31,408.714L1442.84,399.218L1455.98,395.963L1465.2,401.807L1452.31,408.714Z" style="fill:rgb(210,143,143);stroke:black;stroke-width:2.08px;stroke-linecap:square;"/>
        </g>
        <g transform="matrix(1,-1.11022e-16,1.11022e-16,1,-211.031,-16.1977)">
            <path d="M1381.37,402.338L1375.4,395.963L1382.32,384.432L1391.4,389.858L1387.47,395.963L1396.29,401.807L1388.42,408.714L1378.92,408.714L1381.37,402.338Z" style="fill:rgb(65,65,65);stroke:black;stroke-width:2.08px;stroke-linecap:square;"/>
        </g>
        <g transform="matrix(1,-1.11022e-16,1.11022e-16,1,-577.799,-62.9785)">
            <path d="M1573.09,517.941C1574.44,519.496 1577.87,524.904 1581.23,524.215C1585.64,523.311 1598.84,515.027 1599.54,512.515C1600.25,510.003 1589.09,509.704 1585.47,509.142C1582.95,508.752 1579.9,508.185 1577.84,509.142C1575.77,510.1 1573.88,513.423 1573.09,514.889C1572.61,515.784 1572.42,517.175 1573.09,517.941Z" style="fill:rgb(65,65,65);stroke:black;stroke-width:2.08px;stroke-linecap:square;"/>
        </g>
        <g transform="matrix(1,-1.11022e-16,1.11022e-16,1,-549.318,11.781)">
            <path d="M1585.13,517.941L1570.21,526.08L1575.66,530.489L1585.47,529.981L1585.13,517.941Z" style="fill:rgb(65,65,65);stroke:black;stroke-width:2.08px;stroke-linecap:square;"/>
        </g>
    </g>
    <g id="Separator-Foil1" serif:id="Separator Foil" transform="matrix(-0.755542,-0.6551,0.6551,-0.755542,3006.21,2170.15)">
        <g transform="matrix(0.516868,0.56301,-0.56301,0.516868,810.618,-812.154)">
            <path d="M2157.61,420.224C2167.44,405.07 2052.05,449.409 2053.48,340.686C2053.63,329.665 2060.58,313.99 2064.87,304.316C2068.38,296.397 2075.95,289.62 2079.2,282.64C2082.13,276.338 2084.34,268.374 2084.34,262.434C2084.34,257.013 2080.73,251.29 2079.2,247.004C2077.96,243.535 2072.85,239.589 2075.16,236.718C2077.91,233.289 2088.81,228.941 2095.73,226.431C2102.46,223.989 2110.36,223.186 2116.67,221.655C2122.33,220.282 2128.12,219.284 2133.57,217.246C2139.63,214.981 2153.04,208.062 2153.04,208.062C2153.04,208.062 2146.55,202.337 2143.49,202C2140.43,201.663 2137.57,204.619 2134.67,206.041C2131.67,207.511 2128.78,209.798 2125.49,210.817C2122.12,211.858 2117.95,212.715 2114.47,212.287C2110.97,211.858 2107.36,209.593 2104.55,208.246C2102.12,207.086 2100.03,205.285 2097.57,204.204C2095.05,203.102 2092.31,201.717 2089.48,201.633C2085.38,201.51 2072.95,203.47 2072.95,203.47C2072.95,203.47 2082.69,190.795 2087.28,185.835C2091.34,181.447 2096.22,176.957 2100.51,173.712C2104.36,170.796 2108.42,167.909 2113,166.364C2117.89,164.711 2124.45,162.874 2129.89,163.792C2135.35,164.711 2141.02,168.252 2145.69,171.875C2150.59,175.671 2154.68,181.743 2159.29,186.57C2164.43,191.958 2169.85,203.163 2176.55,204.204C2183.25,205.245 2191.7,196.3 2199.49,192.816C2207.85,189.081 2217.62,184.856 2226.68,181.794C2235.57,178.79 2244.65,176.247 2253.87,174.447C2264.52,172.365 2283.87,165.568 2290.6,169.303C2297.34,173.038 2293.26,187.647 2294.28,196.857C2295.38,206.837 2297.52,218.655 2297.22,229.186C2296.91,239.591 2293.55,249.697 2292.44,260.046C2291.28,270.884 2289.99,283.62 2290.24,294.213C2290.46,304.083 2292.56,314.113 2293.91,323.603C2295.22,332.812 2297.87,341.866 2298.32,351.157C2298.87,362.668 2299.48,382.078 2297.22,392.671C2295.45,400.929 2289.56,409.08 2284.72,414.714C2280.32,419.844 2274.07,423.286 2268.19,426.47C2262.32,429.654 2256,432.328 2249.46,433.817C2241.93,435.532 2231.52,437.552 2223.01,436.756C2214.49,435.96 2204.82,432.654 2198.39,429.041C2192.65,425.818 2188.66,419.061 2184.43,415.081C2180.76,411.629 2177.51,404.305 2173.04,405.162C2168.57,406.019 2153.7,426.254 2157.61,420.224Z" style="fill:rgb(245,252,252);stroke:black;stroke-width:2.73px;stroke-linecap:square;"/>
            <path d="M2097.03,305.315C2097.77,308.595 2096.48,313.642 2098.87,315.234C2101.26,316.826 2107.28,315.716 2111.36,314.867C2115.77,313.948 2120.97,311.683 2125.32,309.723C2129.51,307.832 2133.46,304.947 2137.44,303.11C2141.24,301.357 2145.65,298.947 2149.2,298.702C2152.52,298.473 2155.5,301.947 2158.75,301.641C2161.99,301.335 2165.2,298.071 2168.67,296.865C2172.89,295.395 2178.78,292.824 2184.1,292.824C2190.16,292.824 2198.98,295.518 2205.04,296.865C2210.23,298.018 2216.18,300.416 2220.47,300.906C2223.9,301.298 2227.63,299.192 2230.76,299.804C2233.88,300.416 2236.29,303.176 2239.21,304.58C2242.51,306.172 2247.72,309.05 2250.6,309.356C2252.77,309.588 2255.98,308.009 2256.47,306.417C2256.96,304.825 2255.13,301.613 2253.53,299.804C2251.7,297.722 2248.41,295.454 2245.45,293.926C2241.66,291.967 2235.53,289.517 2230.76,288.048C2226.21,286.649 2220.9,286.027 2216.8,285.109C2213.23,284.311 2209.67,283.489 2206.14,282.537C2202.28,281.496 2197.99,278.806 2193.65,278.863C2189,278.925 2182.69,281.313 2178.22,282.905C2174.25,284.32 2170.38,287.313 2166.83,288.415C2163.66,289.401 2160.1,290.375 2156.91,289.517C2153.73,288.66 2150.3,284.925 2147.73,283.272C2145.7,281.966 2143.26,278.741 2141.48,279.598C2139.71,280.455 2139.37,286.063 2137.07,288.415C2134.69,290.864 2130.34,292.395 2127.16,294.293C2124.09,296.122 2120.6,298.886 2117.97,299.804C2115.89,300.53 2113.27,300.904 2111.36,299.804C2109.34,298.641 2107.25,295.435 2105.85,292.824C2104.07,289.517 2100.7,279.965 2100.7,279.965L2092.25,285.844C2092.25,285.844 2095.93,300.416 2097.03,305.315Z" style="fill:rgb(164,185,187);stroke:black;stroke-width:2.73px;stroke-linecap:square;"/>
            <path d="M2177.49,374.933C2188.18,373.172 2209.57,369.648 2219,363.177C2236.13,351.427 2236.71,344.32 2237,340.767" style="fill:none;stroke:black;stroke-width:2.73px;stroke-linecap:square;"/>
            <path d="M2159.12,280.333C2160.39,276.62 2162.94,269.194 2160.22,248.003C2158.16,231.977 2152.19,223.557 2149.2,219.348" style="fill:none;stroke:black;stroke-width:2.73px;stroke-linecap:square;"/>
            <path d="M2143.32,393.302C2138.82,388.952 2129.8,380.25 2128.99,371.627C2127.28,353.442 2136.99,342.543 2141.85,337.093" style="fill:none;stroke:black;stroke-width:2.73px;stroke-linecap:square;"/>
            <path d="M2162.02,415.816C2162.02,415.816 2148.79,433.205 2137.41,430.511C2132.07,429.249 2127.37,426.093 2122.34,423.898C2117.01,421.571 2111.14,416.367 2105.44,416.551C2099.75,416.734 2093.82,421.975 2088.18,425C2082.52,428.031 2071.48,434.736 2071.48,434.736C2071.48,434.736 2056.42,397.508 2053.48,381.466C2050.9,367.372 2053.85,338.482 2053.85,338.482C2053.85,338.482 2065.19,365.681 2072.23,376.874C2080.01,389.245 2088.28,395.889 2103.46,400.386C2144.47,412.535 2162.02,415.816 2162.02,415.816Z" style="fill:rgb(164,185,187);stroke:black;stroke-width:2.73px;stroke-linecap:square;"/>
        </g>
        <g transform="matrix(1,0,0,1,89.3422,140.145)">
            <path d="M1751.92,187.921C1749.32,204.224 1756.67,267.903 1758.81,292.166C1760.03,306.032 1762.41,323.24 1764.78,333.496C1766.42,340.586 1767.94,348.519 1773.05,353.702C1778.33,359.06 1789.73,361.279 1796.47,365.642C1802.67,369.659 1808.6,374.308 1813.46,379.878C1818.66,385.848 1820.29,397.047 1827.69,401.462C1836.04,406.437 1851.57,410.57 1863.51,409.728C1875.45,408.886 1889.31,403.069 1899.33,396.41C1909.35,389.756 1917.54,380.119 1923.67,369.775C1930.25,358.677 1938.29,341.609 1938.83,329.822C1939.33,318.832 1927.57,308.009 1926.89,299.054C1926.27,290.994 1932.63,282.675 1934.69,276.093C1936.41,270.636 1939.29,259.561 1939.29,259.561C1939.29,259.561 1945.48,265.148 1947.55,264.612C1949.62,264.076 1951.68,259.101 1951.68,256.346C1951.68,253.591 1949.62,248.692 1947.55,248.08C1945.48,247.468 1939.29,252.672 1939.29,252.672C1939.29,252.672 1928.27,244.406 1921.83,244.406C1914.26,244.406 1901.93,252.519 1893.82,252.672C1886.51,252.81 1878.36,241.957 1873.16,245.325C1867.95,248.692 1865.35,267.061 1862.59,272.878C1861.24,275.73 1859.53,279.843 1856.62,280.226C1853.72,280.609 1848.97,276.629 1845.14,275.174C1841.39,273.747 1834.73,272.955 1833.66,271.501C1832.59,270.046 1838.71,266.449 1838.71,266.449C1838.71,266.449 1823.87,237.059 1816.67,226.956C1810.89,218.844 1802.59,211.265 1795.55,205.831C1789.2,200.935 1781.69,197.336 1774.42,194.351C1767.21,191.388 1753.15,180.218 1751.92,187.921Z" style="fill:rgb(245,252,252);stroke:black;stroke-width:2.08px;stroke-linecap:square;"/>
            <path d="M1833.66,382.174C1832.9,384.853 1835.58,387.838 1835.96,390.44C1836.32,392.863 1834.2,396.084 1835.96,397.788C1838.41,400.16 1845.37,403.834 1850.65,404.676C1855.93,405.518 1862.23,404.595 1867.64,402.839C1873.08,401.079 1878.9,397.175 1883.26,394.114C1887.16,391.375 1890.68,387.379 1893.82,384.47C1896.6,381.894 1899.24,379.159 1902.09,376.663C1905.15,373.985 1910.35,371.076 1912.19,368.397C1913.67,366.236 1913.11,360.59 1913.11,360.59C1913.11,360.59 1906.08,364.584 1902.55,366.56C1898.72,368.703 1893.82,371.153 1890.15,373.449C1886.8,375.542 1884.25,379.088 1880.5,380.337C1876.14,381.791 1868.72,382.71 1863.97,382.174C1859.68,381.689 1855.93,378.424 1852.03,377.123C1848.3,375.878 1843.61,373.525 1840.55,374.367C1837.49,375.209 1834.43,379.495 1833.66,382.174Z" style="fill:rgb(245,252,252);stroke:black;stroke-width:2.08px;stroke-linecap:square;"/>
            <path d="M1762.02,226.956C1760.11,228.486 1761.34,243.947 1762.02,251.295C1762.65,257.99 1764.09,264.918 1766.16,271.041C1768.17,277.009 1772.05,283.67 1774.42,288.033C1776.17,291.24 1780.39,297.217 1780.39,297.217C1780.39,297.217 1786.75,288.547 1787.28,283.44C1787.82,278.312 1782,269.051 1783.61,266.449C1785.21,263.847 1792.5,268.417 1796.92,267.827C1801.52,267.214 1811.16,262.775 1811.16,262.775C1811.16,262.775 1796.31,251.983 1790.04,248.539C1784.85,245.695 1778.17,245.707 1773.5,242.11C1768.84,238.513 1763.94,225.425 1762.02,226.956Z" style="fill:rgb(164,185,187);stroke:black;stroke-width:2.08px;stroke-linecap:square;"/>
            <path d="M1811.1,309.364C1811.1,309.364 1831.87,312.656 1841.19,293.846" style="fill:none;stroke:black;stroke-width:2.08px;stroke-linecap:square;"/>
            <path d="M1836.73,357.095C1836.73,357.095 1898.17,363.913 1907.5,345.103" style="fill:none;stroke:black;stroke-width:2.08px;stroke-linecap:square;"/>
            <path d="M1916.43,284.206C1916.43,284.206 1877.95,287.968 1887.28,269.158" style="fill:none;stroke:black;stroke-width:2.08px;stroke-linecap:square;"/>
        </g>
        <g transform="matrix(0.415366,-0.749986,0.749986,0.415366,705.031,1905.56)">
            <path d="M1878.22,510.423C1874.54,502.845 1872.25,491.9 1872.71,485.624C1873.08,480.543 1878.06,476.593 1880.97,472.766C1883.73,469.142 1886.56,464.959 1890.16,462.663C1893.75,460.367 1898.27,459.422 1902.56,458.989C1910.13,458.224 1924.98,459.984 1935.62,458.071C1946.26,456.157 1957.66,451.106 1966.39,447.509C1973.86,444.429 1981.47,438.018 1987.97,436.487C1993.66,435.147 1999.94,436.278 2005.42,438.324C2011.16,440.467 2016.94,445.39 2022.41,449.345C2028.77,453.938 2037.03,461.668 2043.54,465.878C2049.11,469.485 2057.09,472.307 2061.45,474.603C2064.3,476.107 2069.71,479.654 2069.71,479.654C2069.71,479.654 2069.72,485.768 2071.55,487.92C2073.69,490.446 2078.77,492.738 2082.57,494.809C2087.78,497.641 2095.53,502.861 2102.78,504.912C2110.89,507.208 2122.14,507.897 2131.25,508.586C2139.95,509.244 2157.43,509.045 2157.43,509.045C2157.43,509.045 2162.17,528.715 2163.86,538.435C2165.51,548.014 2166.46,559.33 2167.53,567.367C2168.39,573.804 2168.75,581.449 2170.28,586.654C2171.56,590.991 2176.42,594.083 2176.71,598.594C2177.02,603.339 2175.26,611.682 2172.12,615.126C2168.98,618.57 2162.1,617.116 2157.89,619.259C2153.71,621.385 2150.54,625.382 2146.86,627.984C2143.33,630.489 2139.8,633.113 2135.84,634.873C2131.71,636.71 2125.89,639.848 2122.07,639.006C2118.24,638.164 2112.88,629.821 2112.88,629.821C2112.88,629.821 2099.8,634.971 2093.13,637.169C2086.4,639.389 2079.39,641.277 2072.47,643.139C2065.35,645.052 2056.86,648.267 2050.43,648.65C2044.82,648.983 2039.38,646.616 2033.89,645.435C2027.85,644.134 2020.12,642.45 2014.15,640.843C2008.73,639.383 2003.36,637.552 1998.08,635.791C1992.84,634.046 1986.6,633.928 1982.46,630.281C1977.33,625.765 1969.68,615.432 1967.31,608.697C1965.22,602.77 1968.23,595.456 1968.23,589.869C1968.23,584.961 1968.02,580.029 1967.31,575.173C1966.54,569.969 1966.54,562.392 1963.63,558.641C1960.72,554.891 1954.73,553.806 1949.86,552.671C1944.27,551.37 1936.23,551.676 1930.11,550.834C1924.4,550.049 1917.48,549.074 1913.12,547.62C1909.73,546.491 1906.59,544.498 1903.93,542.109C1900.87,539.354 1897.76,534.801 1894.75,531.088C1890.46,525.807 1881.89,518 1878.22,510.423Z" style="fill:rgb(245,252,252);stroke:black;stroke-width:2.43px;stroke-linecap:square;"/>
            <path d="M1932.4,518.689C1932.4,518.689 1935.86,523.768 1937.92,526.036C1940.14,528.485 1942.97,531.317 1945.72,533.384C1948.41,535.4 1951.39,537.67 1954.45,538.435C1957.51,539.201 1962.87,539.048 1964.09,537.976C1965.32,536.905 1963.16,533.644 1961.8,532.006C1960.27,530.169 1957.22,528.616 1954.91,526.955C1952.46,525.194 1948.86,523.51 1947.1,521.444C1945.5,519.561 1943.35,516.469 1944.35,514.556C1945.34,512.642 1949.99,511.109 1953.07,509.963C1956.36,508.739 1960.5,507.897 1964.09,507.208C1967.58,506.54 1971.52,507.055 1974.65,505.83C1977.79,504.606 1981.02,502.677 1982.92,499.86C1984.99,496.799 1986.01,491.692 1987.05,487.461C1988.12,483.099 1988.43,477.894 1989.35,473.684C1990.2,469.802 1989.81,464.653 1992.56,462.204C1995.32,459.755 2001.67,458.913 2005.88,458.989C2010.05,459.065 2014.15,461.132 2017.82,462.663C2021.36,464.138 2024.54,466.376 2027.92,468.174C2031.67,470.164 2036.65,472.919 2040.32,474.603C2043.45,476.036 2046.77,476.999 2049.97,478.277C2053.41,479.654 2057.7,481.491 2060.99,482.869C2063.9,484.088 2068.18,487.232 2069.71,486.543C2071.24,485.854 2070.17,478.736 2070.17,478.736C2070.17,478.736 2062.14,474.603 2058.23,472.766C2054.45,470.986 2049.97,469.628 2046.75,467.715C2043.86,465.99 2041.51,463.473 2038.95,461.285C2036.34,459.066 2033.89,456.387 2031.14,454.397C2028.41,452.429 2025.57,450.51 2022.41,449.345C2018.89,448.044 2014.24,446.304 2010.02,446.59C2005.5,446.896 1999.15,449.192 1995.32,451.182C1992.05,452.883 1989.43,455.775 1987.05,458.53C1984.68,461.285 1982.61,464.423 1981.08,467.715C1979.55,471.006 1978.62,474.674 1977.87,478.277C1977.1,481.951 1976.49,489.757 1976.49,489.757C1976.49,489.757 1970.18,493.085 1966.85,494.35C1963.02,495.804 1957.2,496.799 1953.53,498.483C1950.33,499.951 1947.56,502.539 1944.8,504.453C1942.19,506.269 1939.06,507.591 1937,509.963C1934.93,512.336 1932.4,518.689 1932.4,518.689Z" style="fill:rgb(164,185,187);stroke:black;stroke-width:2.43px;stroke-linecap:square;"/>
            <path d="M1905.77,522.592C1908.27,514.632 1913.27,498.712 1920.92,491.824C1928.58,484.935 1944.32,484.217 1951.69,481.262C1957.35,478.996 1962.76,476.22 1965.47,474.833" style="fill:none;stroke:black;stroke-width:2.43px;stroke-linecap:square;"/>
            <path d="M2098.64,574.485C2099.31,569.688 2100.64,560.095 2104.62,556.116C2108.6,552.136 2116.69,552.822 2122.53,550.605C2128.57,548.309 2136.22,546.548 2140.89,542.339C2145.56,538.129 2147.86,530.782 2150.54,525.347C2153.03,520.299 2155.65,513.255 2156.97,509.734" style="fill:none;stroke:black;stroke-width:2.43px;stroke-linecap:square;"/>
            <path d="M1990.27,554.279C1998.82,554.931 2015.94,556.236 2027.01,562.085C2040.48,569.203 2060.89,587.726 2071.09,596.987" style="fill:none;stroke:black;stroke-width:2.43px;stroke-linecap:square;"/>
        </g>
    </g>
    <g id="Battery-Structure" serif:id="Battery Structure" transform="matrix(1,0,0,1,312.561,51.1227)">
        <g id="Battery-Cell1" serif:id="Battery Cell" transform="matrix(1,0,0,1,1977.13,794.882)">
            <g transform="matrix(0.77033,0,0,0.751911,70.9575,44.8944)">
                <path d="M97.026,237.636C97.355,170.415 195.91,112.351 312.487,111.22C439.893,109.983 527.782,176.877 527.947,237.636C528.17,319.652 441.696,362.769 316.857,364.052C181.697,365.442 96.708,302.844 97.026,237.636Z" style="fill:rgb(174,175,170);stroke:black;stroke-width:2.74px;"/>
            </g>
            <g transform="matrix(0.450298,-1.11022e-16,1.11022e-16,0.446076,173.938,118.384)">
                <path d="M97.026,237.636C97.355,170.415 195.91,112.351 312.487,111.22C439.893,109.983 527.782,176.877 527.947,237.636C528.17,319.652 441.696,362.769 316.857,364.052C181.697,365.442 96.708,302.844 97.026,237.636Z" style="fill:rgb(112,105,92);stroke:black;stroke-width:4.65px;"/>
            </g>
            <path d="M240.967,260.334C240.967,260.334 245.254,253.371 245.951,244.595C246.452,238.287 241.443,233.114 235.506,231.752C227.836,229.991 222.403,233.35 219.322,233.838L220.248,237.962L223.605,244.857L230.228,253.386L240.028,261.371L240.967,260.334Z" style="fill:rgb(62,62,62);"/>
            <path d="M240.967,260.334C240.967,260.334 245.254,253.371 245.951,244.595C246.452,238.287 241.443,233.114 235.506,231.752C227.836,229.991 222.403,233.35 219.322,233.838" style="fill:none;stroke:black;stroke-width:2.08px;"/>
            <g transform="matrix(0.512175,-0.858881,0.858881,0.512175,11.4891,348.566)">
                <path d="M240.446,261.388C240.446,261.388 242.417,258.679 243.488,255.726C244.39,253.24 245.023,249.835 244.298,245.721C242.741,236.896 235.436,228.703 228.31,226.452C220.487,223.982 216.566,225.177 213.484,225.665L227.468,246.316L240.446,261.388Z" style="fill:rgb(66,66,66);"/>
            </g>
            <g transform="matrix(0.512175,-0.858881,0.858881,0.512175,11.4891,348.566)">
                <path d="M240.446,261.388C240.446,261.388 242.417,258.679 243.488,255.726C244.39,253.24 245.023,249.835 244.298,245.721C242.741,236.896 235.436,228.703 228.31,226.452C220.487,223.982 216.566,225.177 213.484,225.665" style="fill:none;stroke:black;stroke-width:2.08px;"/>
            </g>
            <path d="M395.162,227.349C394.153,246.93 376.697,259.725 349.429,265.364C348.87,265.09 348.281,264.833 347.658,264.596C339.28,261.413 328.502,263.491 322.92,268.459L322.897,268.479C320.503,268.581 318.062,268.644 315.58,268.667C283.647,268.965 259.138,260.677 245.308,248.96C245.602,247.577 245.83,246.113 245.951,244.595C246.452,238.287 241.443,233.114 235.506,231.752C234.78,231.585 234.074,231.464 233.387,231.383C232.891,229.416 232.643,227.425 232.654,225.426C232.778,202.433 269.956,182.572 313.931,182.186C342.753,181.932 366.215,190.059 380.394,201.091C379.878,205.834 379.048,211.598 382.032,215.871C385.875,221.371 390.811,223.503 395.162,227.349Z" style="fill:rgb(138,135,130);stroke:black;stroke-width:2.08px;"/>
            <g transform="matrix(0.450298,-1.11022e-16,1.11022e-16,0.446076,173.938,118.384)">
                <path d="M97.026,237.636C97.355,170.415 195.91,112.351 312.487,111.22C439.893,109.983 527.782,176.877 527.947,237.636C528.17,319.652 441.696,362.769 316.857,364.052C181.697,365.442 96.708,302.844 97.026,237.636Z" style="fill:none;stroke:black;stroke-width:4.65px;"/>
            </g>
        </g>
        <g id="Battery-Structure1" serif:id="Battery Structure" transform="matrix(1,0,0,1,1273.17,68.3202)">
            <path d="M1001.23,241.289L1496.01,199.224L1487.19,260.944L1025.22,388.647L1001.23,241.289Z" style="fill:rgb(205,205,205);stroke:black;stroke-width:2.08px;stroke-linecap:square;"/>
            <path d="M1031.88,239.538L1577.72,244.445L1568.54,313.023L1123.4,275.06L1031.88,239.538Z" style="fill:rgb(164,185,187);stroke:black;stroke-width:2.08px;stroke-linecap:square;"/>
            <path d="M1054.53,240.873L1636.58,301.368L1530.77,930.139L1124.27,884.273L1075.89,556.386L1100.39,261.87L1054.53,240.873Z" style="fill:rgb(210,143,143);stroke:black;stroke-width:2.08px;stroke-linecap:square;"/>
            <path d="M1155.94,302.395L1119.17,946.836C1119.17,946.836 1118.53,949.662 1116.04,955.491C1114.33,959.485 1110.64,966.618 1107.83,970.972C1105.35,974.815 1102.28,978.524 1099.16,981.614C1096.15,984.608 1092.84,987.396 1089.15,989.511C1084.8,992.003 1078.51,994.517 1073.08,996.564C1067.68,998.601 1062.17,1000.51 1056.57,1001.79C1050.96,1003.07 1045.2,1003.78 1039.45,1004.24C1033.17,1004.74 1025.24,1004.9 1018.91,1004.8C1013.08,1004.72 1007.25,1004.32 1001.46,1003.67C995.536,1003.02 989.316,1002.3 983.397,1000.85C976.84,999.254 968.137,996.652 962.112,994.081C956.841,991.831 951.56,988.193 947.253,985.428C943.451,982.988 939.671,980.461 936.268,977.491C932.568,974.262 928.242,970.155 925.057,966.054C921.917,962.012 919.006,957.527 917.157,952.887C915.307,948.247 913.959,938.216 913.959,938.216L913.532,292.769C913.532,292.769 918.168,306.954 920.977,311.973C923.321,316.164 927.121,319.811 930.382,322.883C933.448,325.773 937.404,328.244 940.539,330.407C943.345,332.343 946.202,334.223 949.191,335.862C952.452,337.649 956.402,339.53 960.101,341.129C963.799,342.727 967.596,344.09 971.387,345.455C975.306,346.866 979.726,348.371 983.614,349.593C987.286,350.748 990.977,351.857 994.711,352.791C998.724,353.794 1003.32,354.903 1007.69,355.612C1012.52,356.396 1018.69,357.086 1023.68,357.493C1028.31,357.872 1032.95,358.058 1037.6,358.058C1042.49,358.058 1048.04,357.776 1053.02,357.493C1057.86,357.22 1062.71,357.017 1067.51,356.365C1072.58,355.675 1078.32,354.358 1083.46,353.355C1088.42,352.386 1093.43,351.636 1098.32,350.346C1103.3,349.029 1108.88,347.273 1113.37,345.455C1117.47,343.79 1121.42,341.662 1125.21,339.436C1128.99,337.218 1132.74,334.828 1136.12,332.1C1139.51,329.374 1142.93,326.144 1145.53,323.071C1147.96,320.205 1150.05,317.021 1151.74,313.666C1153.47,310.22 1155.94,302.395 1155.94,302.395Z" style="fill:rgb(235,235,234);stroke:black;stroke-width:2.08px;stroke-linecap:square;"/>
            <path d="M1122.75,886.557L1155.75,302.067C1155.75,302.067 1152.49,311.978 1150.61,315.736C1149.01,318.95 1146.41,322.595 1144.5,324.611C1142.11,327.123 1141.72,327.451 1140.21,328.726C1137.76,330.783 1129.8,336.955 1129.8,336.955C1129.8,336.955 1114.18,645.335 1110.99,712.418C1110.57,721.422 1110.7,731.571 1110.7,739.457C1110.7,746.218 1110.86,752.978 1110.99,759.737C1111.14,767.427 1111.14,778.057 1111.58,785.6C1111.96,792.091 1113.04,798.524 1113.64,804.998C1114.27,811.856 1114.81,819.693 1115.4,826.747C1115.97,833.606 1116.33,840.489 1117.16,847.32C1118.39,857.289 1122.75,886.557 1122.75,886.557Z" style="fill:rgb(248,189,170);stroke:black;stroke-width:2.08px;stroke-linecap:square;"/>
        </g>
        <g>
            <g transform="matrix(1.00184,0.0542895,-0.0689143,1.27172,609.412,-124.628)">
                <ellipse cx="1716.95" cy="313.586" rx="120.982" ry="46.042" style="fill:rgb(205,205,205);stroke:black;stroke-width:1.82px;stroke-linecap:square;"/>
            </g>
            <g transform="matrix(0.942611,0.0510799,-0.0627195,1.1574,709.253,-84.2)">
                <ellipse cx="1716.95" cy="313.586" rx="120.982" ry="46.042" style="fill:rgb(164,185,187);stroke:black;stroke-width:1.97px;stroke-linecap:square;"/>
            </g>
            <g transform="matrix(0.883467,0.0478749,-0.0558716,1.03103,809.079,-39.0464)">
                <ellipse cx="1716.95" cy="313.586" rx="120.982" ry="46.042" style="fill:rgb(210,143,143);stroke:black;stroke-width:2.17px;stroke-linecap:square;"/>
            </g>
            <g transform="matrix(0.822961,0.0445961,-0.0494738,0.912973,911.214,3.61949)">
                <ellipse cx="1716.95" cy="313.586" rx="120.982" ry="46.042" style="fill:rgb(205,205,205);stroke:black;stroke-width:2.39px;stroke-linecap:square;"/>
            </g>
            <g transform="matrix(0.768382,0.0416385,-0.0435343,0.803366,1002.87,43.0586)">
                <ellipse cx="1716.95" cy="313.586" rx="120.982" ry="46.042" style="fill:rgb(164,185,187);stroke:black;stroke-width:2.65px;stroke-linecap:square;"/>
            </g>
            <g transform="matrix(0.717491,0.0388807,-0.0380116,0.701453,1088.36,79.7436)">
                <ellipse cx="1716.95" cy="313.586" rx="120.982" ry="46.042" style="fill:rgb(210,143,143);stroke:black;stroke-width:2.93px;stroke-linecap:square;"/>
            </g>
            <g transform="matrix(0.666347,0.0361092,-0.0328807,0.606768,1174.75,114.204)">
                <ellipse cx="1716.95" cy="313.586" rx="120.982" ry="46.042" style="fill:rgb(205,205,205);stroke:black;stroke-width:3.26px;stroke-linecap:square;"/>
            </g>
            <g transform="matrix(0.621151,0.0336601,-0.0281426,0.519334,1251.08,145.839)">
                <ellipse cx="1716.95" cy="313.586" rx="120.982" ry="46.042" style="fill:rgb(164,185,187);stroke:black;stroke-width:3.63px;stroke-linecap:square;"/>
            </g>
            <g transform="matrix(0.574237,0.0311178,-0.0237587,0.438436,1330.62,175.592)">
                <ellipse cx="1716.95" cy="313.586" rx="120.982" ry="46.042" style="fill:rgb(210,143,143);stroke:black;stroke-width:4.07px;stroke-linecap:square;"/>
            </g>
            <g transform="matrix(0.534247,0.0289507,-0.019741,0.364294,1398.43,202.585)">
                <ellipse cx="1716.95" cy="313.586" rx="120.982" ry="46.042" style="fill:rgb(164,185,187);stroke:black;stroke-width:4.55px;stroke-linecap:square;"/>
            </g>
            <g transform="matrix(0.498836,0.0270318,-0.0155586,0.287113,1458.06,230.069)">
                <ellipse cx="1716.95" cy="313.586" rx="120.982" ry="46.042" style="fill:rgb(205,205,205);stroke:black;stroke-width:5.11px;stroke-linecap:square;"/>
            </g>
            <g transform="matrix(0.457056,0.0247678,-0.0112804,0.208166,1528.19,258.751)">
                <ellipse cx="1716.95" cy="313.586" rx="120.982" ry="46.042" style="fill:rgb(210,143,143);stroke:black;stroke-width:5.86px;stroke-linecap:square;"/>
            </g>
            <g transform="matrix(0.409099,0.022169,-0.00683024,0.126043,1608.63,288.903)">
                <ellipse cx="1716.95" cy="313.586" rx="120.982" ry="46.042" style="fill:rgb(164,185,187);stroke:black;stroke-width:6.87px;stroke-linecap:square;"/>
            </g>
            <g transform="matrix(0.323589,0.0175352,-0.0024388,0.0450048,1753.23,322.361)">
                <ellipse cx="1716.95" cy="313.586" rx="120.982" ry="46.042" style="fill:rgb(205,205,205);stroke:black;stroke-width:9px;stroke-linecap:square;"/>
            </g>
        </g>
    </g>
    <path d="M664.385,644.134L734.385,679.134L664.385,714.134L664.385,644.134Z" style="fill:rgb(0,100,168);"/>
    <path d="M499.005,679.134L678.385,679.134" style="fill:none;stroke:rgb(0,100,168);stroke-width:16.67px;stroke-linecap:square;"/>
    <g transform="matrix(1.01092,0,0,1,871.137,-309.193)">
        <g transform="matrix(0.989195,-0,-0,1,-861.724,309.193)">
            <path d="M1549.77,284.281L1626.4,268.388L1593.13,339.229L1549.77,284.281Z" style="fill:rgb(0,100,168);"/>
            <path d="M1381.7,461.513C1381.7,461.513 1512.01,358.671 1582.44,303.082" style="fill:none;stroke:rgb(0,100,168);stroke-width:16.67px;stroke-linecap:square;"/>
        </g>
    </g>
    <g transform="matrix(1,0,0,2.66542,47.832,-821.894)">
        <path d="M2268.89,566.829C2264.17,564.556 2260.46,562.403 2257.78,560.373C2255.09,558.342 2252.53,555.296 2250.08,551.235C2247.64,547.173 2245.93,542.016 2244.95,535.762C2243.98,529.509 2243.49,522.809 2243.49,515.663C2243.49,512.575 2243.61,508.068 2243.86,502.14C2244.1,496.211 2244.38,489.754 2244.71,482.769L2246.41,452.51C2247.23,439.334 2247.71,429.33 2247.88,422.498C2248.04,415.666 2248.12,410.054 2248.12,405.662C2248.12,396.555 2247.43,389.44 2246.05,384.317C2244.66,379.194 2242.14,374.762 2238.48,371.021C2234.82,367.28 2230.31,364.515 2224.94,362.726C2219.57,360.937 2212.57,359.798 2203.95,359.31C2203.95,355.078 2203.72,355.085 2202.9,350.365C2210.23,350.365 2223.42,351.402 2228.62,353.436C2233.83,355.469 2240.45,356.647 2246,360.012C2250.88,362.973 2254.98,365.463 2258.03,369.304C2261.32,373.445 2262.22,378.698 2263.52,384.799C2264.82,390.9 2265.47,397.773 2265.47,405.418C2265.47,409.81 2265.16,418.27 2264.52,430.797L2261.91,479.354C2260.77,499.008 2260.2,511.839 2260.2,517.848C2260.2,524.669 2260.89,530.922 2262.27,536.607C2263.65,542.292 2266.81,547.286 2271.76,551.589C2276.71,555.892 2293.3,565.113 2299.46,566.9C2295.24,567.877 2279.5,575.455 2276.25,577.571C2272.2,580.013 2269.04,582.536 2266.76,585.142C2264.49,587.747 2262.71,590.677 2261.41,593.933C2259.62,598.167 2258.33,603.458 2257.52,609.806C2256.87,614.691 2256.38,625.761 2256.06,643.016L2255.57,687.95C2255.24,703.414 2254.84,715.217 2254.35,723.358C2253.21,736.045 2251.58,745.684 2249.46,752.273C2247.34,758.862 2244.85,761.709 2240.93,766.346C2237.02,770.982 2232.99,772.666 2227.77,775.349C2222.55,778.032 2217.25,779.296 2209.75,780.435C2206.86,780.916 2191.41,782.225 2189.03,782.31C2189.68,777.916 2189.14,778.418 2189.3,773.86C2197.76,773.698 2204.97,772.559 2210.91,770.444C2216.85,768.33 2221.65,765.321 2225.31,761.417C2228.97,757.513 2231.62,753.325 2233.25,748.853C2234.87,744.381 2236.18,736.249 2237.15,724.456C2238.13,712.664 2238.62,695.289 2238.62,672.332C2238.62,661.262 2238.82,649.173 2239.23,636.066C2239.64,622.959 2240.29,613.434 2241.18,607.492C2242.08,601.55 2243.3,596.503 2244.84,592.351C2246.39,588.2 2248.3,584.536 2250.58,581.361C2252.86,578.186 2255.26,575.581 2257.78,573.545C2260.3,571.509 2264.01,569.271 2268.89,566.829Z" style="fill:rgb(0,100,168);fill-rule:nonzero;"/>
    </g>
    <g transform="matrix(1.01092,0,0,1,898.282,410.569)">
        <g transform="matrix(0.989195,-0,-0,1,-888.576,-410.569)">
            <path d="M1653.93,1120.92L1688.25,1191.26L1611.39,1176.51L1653.93,1120.92Z" style="fill:rgb(0,100,168);"/>
            <path d="M1421.7,987.296C1421.7,987.296 1567.94,1099.19 1643.78,1157.23" style="fill:none;stroke:rgb(0,100,168);stroke-width:16.67px;stroke-linecap:square;"/>
        </g>
    </g>
    <g transform="matrix(1.01092,0,0,1,866.574,393.286)">
        <g transform="matrix(0.989195,-0,-0,1,-857.211,-393.286)">
            <path d="M1603.49,807.015L1666.4,853.566L1591.41,875.966L1603.49,807.015Z" style="fill:rgb(0,100,168);"/>
            <path d="M1450.49,815.755C1450.49,815.755 1547.27,832.703 1611.24,843.906" style="fill:none;stroke:rgb(0,100,168);stroke-width:16.67px;stroke-linecap:square;"/>
        </g>
    </g>
    <g transform="matrix(1.01092,0,0,-1,876.429,1046.82)">
        <g transform="matrix(0.989195,0,0,-1,-866.959,1046.82)">
            <path d="M1591.75,567.872L1666.4,591.365L1602.81,636.992L1591.75,567.872Z" style="fill:rgb(0,100,168);"/>
            <path d="M1460.35,624.356C1460.35,624.356 1550.07,609.991 1611.1,600.219" style="fill:none;stroke:rgb(0,100,168);stroke-width:16.67px;stroke-linecap:square;"/>
        </g>
    </g>
</svg>
