<?xml version="1.0" encoding="UTF-8" standalone="no"?>
<!DOCTYPE svg PUBLIC "-//W3C//DTD SVG 1.1//EN" "http://www.w3.org/Graphics/SVG/1.1/DTD/svg11.dtd">
<svg width="100%" height="100%" viewBox="0 0 619 545" version="1.1" xmlns="http://www.w3.org/2000/svg" xmlns:xlink="http://www.w3.org/1999/xlink" xml:space="preserve" xmlns:serif="http://www.serif.com/" style="fill-rule:evenodd;clip-rule:evenodd;stroke-linecap:square;stroke-linejoin:round;stroke-miterlimit:1.5;">
    <g transform="matrix(1,0,0,1,-615.112,-67.0025)">
        <g id="Crushed-Cell" serif:id="Crushed Cell" transform="matrix(1,0,0,1,-162.852,-143.807)">
            <g id="Separator-Foil" serif:id="Separator Foil" transform="matrix(-0.203586,0.979057,-0.979057,-0.203586,1654.91,-1448.04)">
                <path d="M1751.92,187.921C1749.32,204.224 1756.67,267.903 1758.81,292.166C1760.03,306.032 1762.41,323.24 1764.78,333.496C1766.42,340.586 1767.94,348.519 1773.05,353.702C1778.33,359.06 1789.73,361.279 1796.47,365.642C1802.67,369.659 1808.6,374.308 1813.46,379.878C1818.66,385.848 1820.29,397.047 1827.69,401.462C1836.04,406.437 1851.57,410.57 1863.51,409.728C1875.45,408.886 1889.31,403.069 1899.33,396.41C1909.35,389.756 1917.54,380.119 1923.67,369.775C1930.25,358.677 1938.29,341.609 1938.83,329.822C1939.33,318.832 1927.57,308.009 1926.89,299.054C1926.27,290.994 1932.63,282.675 1934.69,276.093C1936.41,270.636 1939.29,259.561 1939.29,259.561C1939.29,259.561 1945.48,265.148 1947.55,264.612C1949.62,264.076 1951.68,259.101 1951.68,256.346C1951.68,253.591 1949.62,248.692 1947.55,248.08C1945.48,247.468 1939.29,252.672 1939.29,252.672C1939.29,252.672 1928.27,244.406 1921.83,244.406C1914.26,244.406 1901.93,252.519 1893.82,252.672C1886.51,252.81 1878.36,241.957 1873.16,245.325C1867.95,248.692 1865.35,267.061 1862.59,272.878C1861.24,275.73 1859.53,279.843 1856.62,280.226C1853.72,280.609 1848.97,276.629 1845.14,275.174C1841.39,273.747 1834.73,272.955 1833.66,271.501C1832.59,270.046 1838.71,266.449 1838.71,266.449C1838.71,266.449 1823.87,237.059 1816.67,226.956C1810.89,218.844 1802.59,211.265 1795.55,205.831C1789.2,200.935 1781.69,197.336 1774.42,194.351C1767.21,191.388 1753.15,180.218 1751.92,187.921Z" style="fill:rgb(245,252,252);stroke:black;stroke-width:2.08px;"/>
                <path d="M1833.66,382.174C1832.9,384.853 1835.58,387.838 1835.96,390.44C1836.32,392.863 1834.2,396.084 1835.96,397.788C1838.41,400.16 1845.37,403.834 1850.65,404.676C1855.93,405.518 1862.23,404.595 1867.64,402.839C1873.08,401.079 1878.9,397.175 1883.26,394.114C1887.16,391.375 1890.68,387.379 1893.82,384.47C1896.6,381.894 1899.24,379.159 1902.09,376.663C1905.15,373.985 1910.35,371.076 1912.19,368.397C1913.67,366.236 1913.11,360.59 1913.11,360.59C1913.11,360.59 1906.08,364.584 1902.55,366.56C1898.72,368.703 1893.82,371.153 1890.15,373.449C1886.8,375.542 1884.25,379.088 1880.5,380.337C1876.14,381.791 1868.72,382.71 1863.97,382.174C1859.68,381.689 1855.93,378.424 1852.03,377.123C1848.3,375.878 1843.61,373.525 1840.55,374.367C1837.49,375.209 1834.43,379.495 1833.66,382.174Z" style="fill:rgb(245,252,252);stroke:black;stroke-width:2.08px;"/>
                <path d="M1762.02,226.956C1760.11,228.486 1761.34,243.947 1762.02,251.295C1762.65,257.99 1764.09,264.918 1766.16,271.041C1768.17,277.009 1772.05,283.67 1774.42,288.033C1776.17,291.24 1780.39,297.217 1780.39,297.217C1780.39,297.217 1786.75,288.547 1787.28,283.44C1787.82,278.312 1782,269.051 1783.61,266.449C1785.21,263.847 1792.5,268.417 1796.92,267.827C1801.52,267.214 1811.16,262.775 1811.16,262.775C1811.16,262.775 1796.31,251.983 1790.04,248.539C1784.85,245.695 1778.17,245.707 1773.5,242.11C1768.84,238.513 1763.94,225.425 1762.02,226.956Z" style="fill:rgb(164,185,187);stroke:black;stroke-width:2.08px;"/>
                <path d="M1811.1,309.364C1811.1,309.364 1831.87,312.656 1841.19,293.846" style="fill:none;stroke:black;stroke-width:2.08px;"/>
                <path d="M1836.73,357.095C1836.73,357.095 1898.17,363.913 1907.5,345.103" style="fill:none;stroke:black;stroke-width:2.08px;"/>
                <path d="M1916.43,284.206C1916.43,284.206 1877.95,287.968 1887.28,269.158" style="fill:none;stroke:black;stroke-width:2.08px;"/>
            </g>
            <g id="Crushed-Battery-Cell" serif:id="Crushed Battery Cell">
                <g transform="matrix(0.000582731,-1,1,0.000582731,1364.99,810.208)">
                    <path d="M191.908,-90.446C191.59,-31.144 213.132,4.975 213.132,4.975C213.132,4.975 105.047,-17.677 105.366,-71.527C105.764,-138.748 105.137,-464.792 105.137,-464.792L209.136,-366.767L200.379,-243.399L174.509,-232.938L196.489,-188.608C196.489,-188.608 192.016,-110.62 191.908,-90.446Z" style="fill:rgb(18,126,217);stroke:black;stroke-width:2.08px;stroke-linecap:round;"/>
                </g>
                <g transform="matrix(0.0185596,-0.999828,0.999828,0.0185596,662.02,797.388)">
                    <path d="M473.424,165.471L280.595,347.34C200.51,344.617 96.761,291.869 97.026,237.636C97.355,170.415 195.91,112.351 312.487,111.22C381.375,110.551 438.711,129.801 476.848,157.258L473.424,165.471Z" style="fill:rgb(19,93,168);stroke:black;stroke-width:2.08px;stroke-linecap:round;"/>
                    <g transform="matrix(0.77033,0,0,0.751911,70.9575,44.8944)">
                        <path d="M448.945,341.037C370.931,325.901 403.152,354.771 352.003,366.082C219.879,395.299 96.708,302.844 97.026,237.636C97.355,170.415 195.91,112.351 312.487,111.22C406.398,110.308 478.839,146.413 510.47,189.829L448.945,341.037Z" style="fill:rgb(174,175,170);stroke:black;stroke-width:2.74px;stroke-linecap:round;"/>
                    </g>
                    <g transform="matrix(0.450298,-1.11022e-16,1.11022e-16,0.446076,173.938,118.384)">
                        <path d="M97.026,237.636C97.355,170.415 195.91,112.351 312.487,111.22C439.893,109.983 527.782,176.877 527.947,237.636C528.17,319.652 441.696,362.769 316.857,364.052C181.697,365.442 96.708,302.844 97.026,237.636Z" style="fill:rgb(112,105,92);stroke:black;stroke-width:4.65px;stroke-linecap:round;"/>
                    </g>
                    <path d="M240.967,260.334C240.967,260.334 245.254,253.371 245.951,244.595C246.452,238.287 241.443,233.114 235.506,231.752C227.836,229.991 222.403,233.35 219.322,233.838L220.248,237.962L223.605,244.857L230.228,253.386L240.028,261.371L240.967,260.334Z" style="fill:rgb(62,62,62);"/>
                    <path d="M240.967,260.334C240.967,260.334 245.254,253.371 245.951,244.595C246.452,238.287 241.443,233.114 235.506,231.752C227.836,229.991 222.403,233.35 219.322,233.838" style="fill:none;stroke:black;stroke-width:2.08px;stroke-linecap:round;"/>
                    <g transform="matrix(0.512175,-0.858881,0.858881,0.512175,11.4891,348.566)">
                        <path d="M240.446,261.388C240.446,261.388 242.417,258.679 243.488,255.726C244.39,253.24 245.023,249.835 244.298,245.721C242.741,236.896 235.436,228.703 228.31,226.452C220.487,223.982 216.566,225.177 213.484,225.665L227.468,246.316L240.446,261.388Z" style="fill:rgb(66,66,66);"/>
                    </g>
                    <g transform="matrix(0.512175,-0.858881,0.858881,0.512175,11.4891,348.566)">
                        <path d="M240.446,261.388C240.446,261.388 242.417,258.679 243.488,255.726C244.39,253.24 245.023,249.835 244.298,245.721C242.741,236.896 235.436,228.703 228.31,226.452C220.487,223.982 216.566,225.177 213.484,225.665" style="fill:none;stroke:black;stroke-width:2.08px;stroke-linecap:round;"/>
                    </g>
                    <path d="M395.162,227.349C394.153,246.93 376.697,259.725 349.429,265.364C348.87,265.09 348.281,264.833 347.658,264.596C339.28,261.413 328.502,263.491 322.92,268.459L322.897,268.479C320.503,268.581 318.062,268.644 315.58,268.667C283.647,268.965 259.138,260.677 245.308,248.96C245.602,247.577 245.83,246.113 245.951,244.595C246.452,238.287 241.443,233.114 235.506,231.752C234.78,231.585 234.074,231.464 233.387,231.383C232.891,229.416 232.643,227.425 232.654,225.426C232.778,202.433 269.956,182.572 313.931,182.186C342.753,181.932 366.215,190.059 380.394,201.091C379.878,205.834 379.048,211.598 382.032,215.871C385.875,221.371 390.811,223.503 395.162,227.349Z" style="fill:rgb(138,135,130);stroke:black;stroke-width:2.08px;stroke-linecap:round;"/>
                    <g transform="matrix(0.450298,-1.11022e-16,1.11022e-16,0.446076,173.938,118.384)">
                        <path d="M97.026,237.636C97.355,170.415 195.91,112.351 312.487,111.22C439.893,109.983 527.782,176.877 527.947,237.636C528.17,319.652 441.696,362.769 316.857,364.052C181.697,365.442 96.708,302.844 97.026,237.636Z" style="fill:none;stroke:black;stroke-width:4.65px;stroke-linecap:round;"/>
                    </g>
                </g>
            </g>
            <g id="Alumiunium-Foil" serif:id="Alumiunium Foil">
                <g transform="matrix(0.883644,0.468159,-0.468159,0.883644,58.3854,-440.56)">
                    <path d="M1582.86,428.228C1595.37,441.755 1630.53,472.805 1649.42,473.08C1667.7,473.346 1717.42,447.503 1687.44,395.295C1687.31,395.061 1695.84,385.076 1695.84,385.076C1695.84,385.076 1712.22,383.249 1713.06,378.985C1713.61,376.212 1701.72,359.662 1701.72,359.662C1701.72,359.662 1638.56,376.718 1618.55,379.615C1603.11,381.85 1582.86,384.026 1582.86,384.026C1582.86,384.026 1590.84,387.113 1590.84,388.409C1590.84,389.704 1587.27,392.307 1580.71,392.571C1576.75,392.73 1568.84,397.407 1568.84,397.407C1568.84,397.407 1563.62,407.425 1582.86,428.228Z" style="fill:rgb(235,235,234);stroke:black;stroke-width:2.08px;"/>
                    <path d="M1561.02,407.729C1563.96,413.218 1582.86,428.228 1582.86,428.228L1581.68,412.938L1578.16,414.282L1578.32,407.393L1572.44,408.569L1575.3,400.84L1565.22,395.295C1565.22,395.295 1558.95,403.873 1561.02,407.729Z" style="fill:rgb(205,205,205);stroke:black;stroke-width:2.08px;"/>
                    <g transform="matrix(1,0,0,1,-133.315,133.771)">
                        <path d="M1783.05,338.386C1762.98,304.119 1751.77,319.469 1720.73,284.079" style="fill:none;stroke:black;stroke-width:2.08px;"/>
                    </g>
                    <g transform="matrix(1.2199,0,0,0.397776,-491.812,316.357)">
                        <path d="M1783.33,340.863C1760.26,284.428 1746.92,327.309 1720.73,284.079" style="fill:none;stroke:black;stroke-width:2.3px;"/>
                    </g>
                    <g transform="matrix(1.2199,0,0,0.397776,-504.609,290.763)">
                        <path d="M1764.11,288.146C1753.39,308.218 1753.45,307.574 1746.03,328.416" style="fill:none;stroke:black;stroke-width:2.3px;"/>
                    </g>
                    <g transform="matrix(1.2199,0,0,0.397776,-526.662,270.546)">
                        <path d="M1782.19,289.768C1765.91,293.62 1753.45,307.574 1746.03,328.416" style="fill:none;stroke:black;stroke-width:2.3px;"/>
                    </g>
                    <g transform="matrix(1.2199,0,0,0.397776,-526.662,270.546)">
                        <path d="M1782.19,289.768C1770.49,295.242 1777.26,314.333 1780.6,321.928" style="fill:none;stroke:black;stroke-width:2.3px;"/>
                    </g>
                    <g transform="matrix(1.2199,0,0,0.397776,-526.662,270.546)">
                        <path d="M1797.44,278.143C1804.79,314.436 1783.34,354.884 1780.6,369.509" style="fill:none;stroke:black;stroke-width:2.3px;"/>
                    </g>
                    <g transform="matrix(1.2199,0,0,0.397776,-526.662,270.546)">
                        <path d="M1797.44,278.143C1807.52,304.434 1820.28,235.932 1823.18,244.609" style="fill:none;stroke:black;stroke-width:2.3px;"/>
                    </g>
                </g>
                <g transform="matrix(1.1992,-0.474848,0.474848,1.1992,-919.341,859.813)">
                    <path d="M1568.11,383.124L1607.43,366.997C1607.43,366.997 1701.81,359.974 1701.75,359.495C1698.89,335.525 1722.38,312.988 1722.38,312.988C1722.38,312.988 1724.05,298.91 1720.69,294.61C1718.38,291.644 1709.44,293.673 1709.44,293.673L1710.69,281.821L1586.12,331.828L1580.8,343.368L1568.11,383.124Z" style="fill:rgb(205,205,205);stroke:black;stroke-width:1.62px;"/>
                    <path d="M1580.8,343.368L1585.14,345.745L1707.32,295.937L1715.36,282.855L1700.12,249.13L1581.54,306.019L1580.7,312.14L1583.22,316.22L1580.46,317.54L1583.7,320.901L1579.14,322.221L1581.18,324.622L1579.38,328.342L1583.46,331.272L1581.42,334.103L1576.5,335.183L1577.7,338.064L1581.06,339.384L1580.8,343.368Z" style="fill:rgb(235,235,234);stroke:black;stroke-width:1.62px;"/>
                    <g transform="matrix(1,0,0,1,-335.227,239.723)">
                        <path d="M1931.93,102.283C1965.45,102.091 1978.75,111.39 1991.7,110.71" style="fill:none;stroke:black;stroke-width:1.62px;"/>
                    </g>
                    <g transform="matrix(1,0,0,1,-335.227,239.723)">
                        <path d="M1931.93,102.283C1924.49,109.388 1922.49,111.198 1919.94,115.639" style="fill:none;stroke:black;stroke-width:1.62px;"/>
                    </g>
                    <g transform="matrix(1,0,0,1,-335.227,239.723)">
                        <path d="M2037.48,80.007C2024.02,85 2027.27,106.376 2017.5,108.961" style="fill:none;stroke:black;stroke-width:1.62px;"/>
                    </g>
                    <g transform="matrix(1,0,0,1,-335.227,239.723)">
                        <path d="M2037.48,80.007C2048.28,76.103 2061.07,56.449 2052.38,53.464" style="fill:none;stroke:black;stroke-width:1.62px;"/>
                    </g>
                    <g transform="matrix(1,0,0,1,-335.227,239.723)">
                        <path d="M1997.95,92.105C2008.75,88.201 2019.32,93.267 2020.11,89.976" style="fill:none;stroke:black;stroke-width:1.62px;"/>
                    </g>
                </g>
                <g transform="matrix(0.85845,0.512897,-0.512897,0.85845,-247.086,-658.203)">
                    <path d="M1909.24,319.454C1909.24,319.454 1903.78,313.461 1905.34,310.657C1907.42,306.912 1921.75,296.983 1921.75,296.983C1921.75,296.983 1922.95,289.216 1925.07,286.044C1928.65,280.664 1940.04,273.484 1943.23,264.704C1947.27,253.602 1949,232.414 1949.29,219.432C1949.54,208.467 1944.99,186.81 1944.99,186.81L1881.11,207.516C1881.11,207.516 1871.44,240.431 1870.57,250.491C1870.04,256.524 1875.98,261.822 1875.84,267.877C1875.68,274.909 1868.77,285.295 1869.59,292.685C1870.4,300.076 1881.67,307.758 1880.72,312.22C1879.78,316.681 1863.92,319.454 1863.92,319.454L1876.04,331.949L1878.66,323.454C1878.66,323.454 1885.89,328.567 1889.9,328.042C1895,327.376 1909.24,319.454 1909.24,319.454Z" style="fill:rgb(235,235,234);stroke:black;stroke-width:2.08px;"/>
                    <path d="M1908.64,319.454C1908.64,319.454 1887.1,309.858 1895.24,302.831C1913.83,286.775 1920.14,270.826 1920.14,270.826L1924.64,286.928C1924.64,286.928 1923.81,293.25 1922.24,295.93C1920.18,299.448 1912.28,308.04 1912.28,308.04L1908.64,319.454Z" style="fill:rgb(205,205,205);stroke:black;stroke-width:2.08px;"/>
                    <g transform="matrix(1,0,0,1,90.9125,93.4324)">
                        <path d="M1815.7,120.865C1827.06,113.287 1830.13,113.221 1845.23,105.798" style="fill:none;stroke:black;stroke-width:2.08px;"/>
                    </g>
                    <g transform="matrix(1,0,0,1,90.9125,93.4324)">
                        <path d="M1815.7,120.865C1823.86,123.778 1837.85,130.539 1853.4,124.824" style="fill:none;stroke:black;stroke-width:2.08px;"/>
                    </g>
                    <g transform="matrix(1,0,0,1,90.9125,93.4324)">
                        <path d="M1808.62,122.358C1812.03,133.702 1835.76,126.912 1844.3,142.284" style="fill:none;stroke:black;stroke-width:2.08px;"/>
                    </g>
                    <g transform="matrix(1,0,0,1,90.9125,93.4324)">
                        <path d="M1818.26,154.308C1831.31,162.873 1829.08,159.817 1846.82,168.677" style="fill:none;stroke:black;stroke-width:2.08px;"/>
                    </g>
                    <g transform="matrix(1,0,0,1,90.9125,93.4324)">
                        <path d="M1808.62,164.726C1810.82,168.603 1806.07,177.18 1828.85,177.359" style="fill:none;stroke:black;stroke-width:2.08px;"/>
                    </g>
                    <g transform="matrix(1,0,0,1,90.9125,93.4324)">
                        <path d="M1788.31,213.518C1790.5,217.396 1794.09,197.757 1804.88,190.382" style="fill:none;stroke:black;stroke-width:2.08px;"/>
                    </g>
                    <path d="M1875.99,266.954L1889.27,247.74L1895.8,244.121L1892.05,242.124L1891.44,237.696L1889.45,229.449L1885.8,225.754L1881.11,231.359L1876.51,240.127L1870.87,247.74C1870.87,247.74 1871.92,254.956 1872.78,258.158C1873.58,261.174 1875.99,266.954 1875.99,266.954Z" style="fill:rgb(205,205,205);stroke:black;stroke-width:2.08px;"/>
                </g>
                <g transform="matrix(1,0,0,1,-253.687,-50.5352)">
                    <path d="M1332.95,494.194C1334.89,491.159 1339.88,486.373 1343.81,486.373C1347.74,486.373 1354.98,491.159 1356.53,494.194C1358.08,497.229 1355.6,502.145 1353.09,504.583C1350.57,507.02 1344.92,508.822 1341.43,508.822C1338.03,508.822 1333.57,507.02 1332.15,504.583C1330.74,502.145 1331.08,497.119 1332.95,494.194Z" style="fill:rgb(205,205,205);stroke:black;stroke-width:2.08px;"/>
                </g>
            </g>
            <g id="Copper-Foil" serif:id="Copper Foil">
                <g transform="matrix(1.13548,0,0,1.13548,-879.926,165.467)">
                    <path d="M1664.44,174.465C1664.44,174.465 1688.63,203.245 1695.38,209.47C1697.78,211.689 1702,210.316 1704.91,211.814C1708.4,213.611 1711.93,218.478 1716.32,220.253C1721.66,222.415 1731.84,223.144 1736.95,224.785C1740.54,225.94 1743.21,229.555 1746.95,230.098C1752.5,230.906 1770.23,229.629 1770.23,229.629L1853.06,191.811C1853.06,191.811 1839.48,183.745 1832.12,184.466C1821.75,185.482 1801.24,198.557 1790.85,197.906C1781.77,197.337 1777.19,184.128 1769.77,180.559C1762.62,177.123 1751.53,179.908 1746.32,176.496C1741.26,173.177 1741.41,165.404 1738.51,160.087C1734.19,152.17 1725.15,134.875 1720.38,128.989C1718.01,126.065 1711.87,126.098 1709.91,124.769C1708.82,124.028 1709.55,120.047 1708.66,121.019C1701.08,129.301 1664.44,174.465 1664.44,174.465Z" style="fill:rgb(210,143,143);stroke:black;stroke-width:1.83px;"/>
                    <path d="M1667.96,178.634C1667.96,178.634 1681.07,171.507 1684.75,172.277C1689.4,173.249 1682.72,195.718 1682.72,195.718L1667.96,178.634Z" style="fill:rgb(137,72,72);stroke:black;stroke-width:1.83px;"/>
                    <g transform="matrix(1,0,0,1,19.9926,-50.4049)">
                        <path d="M1679.61,234.373C1680.05,220.123 1690.71,200.725 1689.76,181.956" style="fill:none;stroke:black;stroke-width:1.83px;"/>
                    </g>
                    <g transform="matrix(1,0,0,1,19.9926,-50.4049)">
                        <path d="M1671.64,234.373C1680.51,236.688 1678.32,235.639 1684.71,234.373" style="fill:none;stroke:black;stroke-width:1.83px;"/>
                    </g>
                    <g transform="matrix(1,0,0,1,19.9926,-50.4049)">
                        <path d="M1696.95,250.157C1705.83,252.472 1720.66,254.861 1727.85,264.847" style="fill:none;stroke:black;stroke-width:1.83px;"/>
                    </g>
                    <g transform="matrix(1,0,0,1,19.9926,-50.4049)">
                        <path d="M1723.99,239.374C1731.15,242.626 1737.07,251.266 1748.94,241.562" style="fill:none;stroke:black;stroke-width:1.83px;"/>
                    </g>
                    <g transform="matrix(1,0,0,1,19.9926,-50.4049)">
                        <path d="M1696.95,264.847C1708.02,264.036 1714.73,257.517 1727.85,274.536" style="fill:none;stroke:black;stroke-width:1.83px;"/>
                    </g>
                    <g transform="matrix(1,0,0,1,19.9926,-50.4049)">
                        <path d="M1727.85,274.536C1738.91,273.725 1738.64,271.895 1753.94,277.349" style="fill:none;stroke:black;stroke-width:1.83px;"/>
                    </g>
                    <g transform="matrix(1,0,0,1,19.9926,-50.4049)">
                        <path d="M1727.85,274.536C1739.07,269.193 1748.48,261.893 1765.66,264.847" style="fill:none;stroke:black;stroke-width:1.83px;"/>
                    </g>
                    <g transform="matrix(1,0,0,1,19.9926,-50.4049)">
                        <path d="M1765.66,266.354C1775.64,256.323 1768.33,249.329 1785.2,246.031" style="fill:none;stroke:black;stroke-width:1.83px;"/>
                    </g>
                </g>
                <g transform="matrix(1,0,0,1,-607.672,224.744)">
                    <path d="M1668.3,341.779L1706.58,266.504C1706.58,266.504 1711.17,273.452 1719.48,274.892C1734.65,277.517 1776.26,271.773 1776.26,271.773C1776.26,271.773 1773.03,277.509 1781.64,282.849C1788.76,287.267 1792.18,286.29 1792.18,286.29C1792.18,286.29 1781.03,300.934 1789.6,314.25C1789.8,314.569 1770.67,355.652 1770.67,355.652C1770.67,355.652 1750.73,356.094 1741.21,353.609C1728.84,350.382 1708.62,338.267 1696.47,336.295C1687.03,334.763 1668.3,341.779 1668.3,341.779Z" style="fill:rgb(210,143,143);stroke:black;stroke-width:2.08px;"/>
                    <path d="M1668.3,341.779L1690.88,326.617C1690.88,326.617 1717.85,331.187 1728.3,334.897C1737.37,338.118 1746.51,345.436 1753.57,348.877C1759.07,351.557 1770.67,355.544 1770.67,355.544L1759.49,364.04C1759.49,364.04 1729.25,358.018 1718.95,350.167C1711.16,344.24 1706.42,344.683 1690.56,342.747C1683.18,341.848 1668.3,341.779 1668.3,341.779Z" style="fill:rgb(137,72,72);stroke:black;stroke-width:2.08px;"/>
                    <path d="M1715.08,298.511C1733.36,289.515 1747.13,292.779 1762.83,290.342" style="fill:rgb(210,143,143);stroke:black;stroke-width:2.08px;"/>
                    <path d="M1776.38,318.083C1780.46,301.022 1773.8,308.801 1778.96,290.342" style="fill:rgb(210,143,143);stroke:black;stroke-width:2.08px;"/>
                    <path d="M1765.52,350.021C1763.26,342.638 1765.84,341.278 1765.41,335.83" style="fill:rgb(210,143,143);stroke:black;stroke-width:2.08px;"/>
                    <path d="M1691.64,308.727C1702.39,299.946 1710.24,294.176 1711.64,279.159" style="fill:rgb(210,143,143);stroke:black;stroke-width:2.08px;"/>
                    <path d="M1691.64,308.727C1702.39,299.946 1710.24,294.176 1711.64,279.159" style="fill:rgb(210,143,143);stroke:black;stroke-width:2.08px;"/>
                </g>
                <g transform="matrix(1,0,0,1,-253.687,-50.5352)">
                    <path d="M1279.13,541.138L1298.66,550.092L1298.12,540.053L1302.73,534.763L1300.15,527.709L1290.38,532.863L1276.18,525.674L1279.13,541.138Z" style="fill:rgb(210,143,143);stroke:black;stroke-width:2.08px;"/>
                </g>
            </g>
            <g id="Black-Mass" serif:id="Black Mass">
                <g transform="matrix(1,0,0,1,-253.687,-50.5352)">
                    <path d="M1596.66,613.169L1613.55,620.608L1616.2,612.507L1606.92,611.182L1596.66,613.169Z" style="fill:rgb(65,65,65);stroke:black;stroke-width:2.08px;"/>
                </g>
                <g transform="matrix(1,0,0,1,-253.687,-50.5352)">
                    <path d="M1600.91,573.102L1606.43,566.265L1608.29,570.823L1609.05,580.808L1599.17,581.893L1600.91,573.102Z" style="fill:rgb(65,65,65);stroke:black;stroke-width:2.08px;"/>
                </g>
                <g transform="matrix(1,0,0,1,-446.024,-138.234)">
                    <path d="M1592.78,568.518C1593.99,565.914 1606.43,566.265 1606.43,566.265L1616.35,571.448C1616.35,571.448 1612.19,576.914 1609.33,578.654C1606.46,580.395 1599.17,581.893 1599.17,581.893C1599.17,581.893 1591.57,571.123 1592.78,568.518Z" style="fill:rgb(65,65,65);stroke:black;stroke-width:2.08px;"/>
                </g>
                <g transform="matrix(1,0,0,1,-253.687,-50.5352)">
                    <path d="M1272.01,486.373L1276.18,478.551L1284.99,478.551L1289.45,494.194L1280.49,494.194L1272.01,486.373Z" style="stroke:black;stroke-width:2.08px;"/>
                </g>
                <g transform="matrix(1,0,0,1,-253.687,-50.5352)">
                    <path d="M1550.43,642.988L1562.31,650.195L1575.66,641.081L1560.61,633.026L1550.43,642.988Z" style="stroke:black;stroke-width:2.08px;"/>
                </g>
                <g transform="matrix(1,0,0,1,-253.687,-50.5352)">
                    <path d="M1529.88,513.057C1527.86,509.208 1531.36,497.597 1531.36,497.597L1546.62,501.399C1546.62,501.399 1556.48,512.174 1555.95,515.388C1555.42,518.603 1543.44,520.687 1543.44,520.687C1543.44,520.687 1531.89,516.905 1529.88,513.057Z" style="stroke:black;stroke-width:2.08px;"/>
                </g>
                <g transform="matrix(1,0,0,1,-253.687,-50.5352)">
                    <path d="M1452.31,408.714L1442.84,399.218L1455.98,395.963L1465.2,401.807L1452.31,408.714Z" style="fill:rgb(65,65,65);stroke:black;stroke-width:2.08px;"/>
                </g>
                <g transform="matrix(1,0,0,1,-253.687,-50.5352)">
                    <path d="M1381.37,402.338L1375.4,395.963L1382.32,384.432L1391.4,389.858L1387.47,395.963L1396.29,401.807L1388.42,408.714L1378.92,408.714L1381.37,402.338Z" style="fill:rgb(65,65,65);stroke:black;stroke-width:2.08px;"/>
                </g>
                <g transform="matrix(1,0,0,1,-253.687,-50.5352)">
                    <path d="M1573.09,517.941C1574.44,519.496 1577.87,524.904 1581.23,524.215C1585.64,523.311 1598.84,515.027 1599.54,512.515C1600.25,510.003 1589.09,509.704 1585.47,509.142C1582.95,508.752 1579.9,508.185 1577.84,509.142C1575.77,510.1 1573.88,513.423 1573.09,514.889C1572.61,515.784 1572.42,517.175 1573.09,517.941Z" style="fill:rgb(65,65,65);stroke:black;stroke-width:2.08px;"/>
                </g>
                <g transform="matrix(1,0,0,1,-253.687,-50.5352)">
                    <path d="M1585.13,517.941L1570.21,526.08L1575.66,530.489L1585.47,529.981L1585.13,517.941Z" style="fill:rgb(65,65,65);stroke:black;stroke-width:2.08px;"/>
                </g>
            </g>
        </g>
    </g>
</svg>
